{
.appVersion = "3311";
.formatVersion = 3;
axes = (
{
name = Weight;
tag = wght;
},
{
name = Italic;
tag = ital;
}
);
customParameters = (
{
name = fsType;
value = (
);
},
{
name = "Use Typo Metrics";
value = 1;
},
{
name = "Variable Font Origin";
value = m01;
},
{
name = "Axis Mappings";
value = {
ital = {
0 = 0;
11 = 11;
};
wght = {
300 = 300;
350 = 350;
400 = 400;
500 = 500;
600 = 600;
700 = 700;
};
};
},
{
name = "Use Extension Kerning";
value = 1;
},
{
name = "Write DisplayStrings";
value = 0;
},
{
name = "Write lastChange";
value = 0;
},
{
name = "Export Mac Name Table Entries";
value = 0;
}
);
date = "2023-09-04 21:04:04 +0000";
familyName = "Uncut Sans";
featurePrefixes = (
{
automatic = 1;
code = "languagesystem DFLT dflt;

languagesystem latn dflt;
languagesystem latn AZE;
languagesystem latn CRT;
languagesystem latn KAZ;
languagesystem latn TAT;
languagesystem latn TRK;
languagesystem latn ROM;
languagesystem latn MOL;
languagesystem latn CAT;
languagesystem latn NLD;
";
name = Languagesystems;
}
);
features = (
{
automatic = 1;
code = "feature locl;
feature subs;
feature sinf;
feature sups;
feature numr;
feature dnom;
feature frac;
feature ordn;
feature pnum;
feature tnum;
feature case;
feature zero;
feature ss01;
feature ss02;
feature ss03;
feature ss04;
feature ss05;
feature ss06;
feature ss07;
feature ss08;
feature ss09;
";
tag = aalt;
},
{
automatic = 1;
code = "lookup ccmp_Other_1 {
	@CombiningTopAccents = [acutecomb brevecomb caroncomb circumflexcomb dieresiscomb dotaccentcomb gravecomb hungarumlautcomb macroncomb ringcomb tildecomb];
	lookupflag UseMarkFilteringSet @CombiningTopAccents;
	sub i' @CombiningTopAccents by idotless;
	sub j' @CombiningTopAccents by jdotless;
} ccmp_Other_1;

lookup ccmp_latn_1 {
	lookupflag 0;
	sub napostrophe by apostrophemod n;
} ccmp_latn_1;

script latn;
lookup ccmp_latn_1;
";
tag = ccmp;
},
{
automatic = 1;
code = "script latn;
language AZE;
lookup locl_latn_0 {
	sub i by idotaccent;
} locl_latn_0;
language CRT;

glyphs = (
{
glyphname = A;
kernLeft = A;
kernRight = A;
layers = (
{
anchors = (
{
name = bottom;
pos = (321,0);
},
{
name = ogonek;
pos = (659,0);
},
{
name = top;
pos = (321,700);
}
);
layerId = m01;
shapes = (
{
closed = 1;
nodes = (
(102,0,l),
(336,678,l),
(306,678,l),
(539,0,l),
(618,0,l),
(377,700,l),
(264,700,l),
(23,0,l)
);
},
{
closed = 1;
nodes = (
(477,226,l),
(477,299,l),
(164,299,l),
(164,226,l)
);
}
);
width = 641;
},
{
anchors = (
{
name = bottom;
pos = (358,0);
},
{
name = ogonek;
pos = (740,0);
},
{
name = top;
pos = (358,700);
}
);
layerId = m005;
shapes = (
{
closed = 1;
nodes = (
(163,0,l),
(391,678,l),
(326,678,l),
(552,0,l),
(692,0,l),
(458,700,l),
(257,700,l),
(23,0,l)
);
},
{
closed = 1;
nodes = (
(544,196,l),
(544,309,l),
(171,309,l),
(171,196,l)
);
}
);
width = 716;
},
{
anchors = (
{
name = bottom;
pos = (311,0);
},
{
name = ogonek;
pos = (637,0);
},
{
name = top;
pos = (311,700);
}
);
layerId = m007;
shapes = (
{
closed = 1;
nodes = (
(80,0,l),
(317,678,l),
(305,678,l),
(541,0,l),
(599,0,l),
(355,700,l),
(266,700,l),
(22,0,l)
);
},
{
closed = 1;
nodes = (
(472,236,l),
(472,289,l),
(149,289,l),
(149,236,l)
);
}
);
width = 622;
},
{
anchors = (
{
name = bottom;
pos = (261,0);
},
{
name = ogonek;
pos = (599,0);
},
{
name = top;
pos = (397,700);
}
);
layerId = m004;
shapes = (
{
closed = 1;
nodes = (
(45,0,l),
(411,678,l),
(381,678,l),
(482,0,l),
(558,0,l),
(453,700,l),
(340,700,l),
(-37,0,l)
);
},
{
closed = 1;
nodes = (
(464,226,l),
(478,299,l),
(165,299,l),
(151,226,l)
);
}
);
width = 668;
},
{
anchors = (
{
name = bottom;
pos = (298,0);
},
{
name = ogonek;
pos = (680,0);
},
{
name = top;
pos = (434,700);
}
);
layerId = m008;
shapes = (
{
closed = 1;
nodes = (
(108,0,l),
(468,678,l),
(403,678,l),
(497,0,l),
(632,0,l),
(534,700,l),
(333,700,l),
(-37,0,l)
);
},
{
closed = 1;
nodes = (
(529,196,l),
(551,309,l),
(178,309,l),
(156,196,l)
);
}
);
width = 745;
},
{
anchors = (
{
name = bottom;
pos = (251,0);
},
{
name = ogonek;
pos = (579,0);
},
{
name = top;
pos = (387,700);
}
);
layerId = m006;
shapes = (
{
closed = 1;
nodes = (
(23,0,l),
(392,678,l),
(380,678,l),
(484,0,l),
(539,0,l),
(431,700,l),
(342,700,l),
(-38,0,l)
);
},
{
closed = 1;
nodes = (
(461,236,l),
(471,289,l),
(148,289,l),
(138,236,l)
);
}
);
width = 647;
}
);
unicode = 65;
},
{
glyphname = AE;
kernLeft = A;
kernRight = E;
layers = (
{
anchors = (
{
name = bottom;
pos = (425,0);
},
{
name = top;
pos = (325,700);
}
);
layerId = m01;
shapes = (
{
closed = 1;
nodes = (
(795,627,l),
(795,700,l),
(364,700,l),
(364,627,l)
);
},
{
ref = A;
},
{
closed = 1;
nodes = (
(795,0,l),
(795,73,l),
(549,73,l),
(549,0,l)
);
},
{
closed = 1;
nodes = (
(735,327,l),
(735,400,l),
(445,400,l),
(445,327,l)
);
}
);
width = 846;
},
{
anchors = (
{
name = bottom;
pos = (445,0);
},
{
name = top;
pos = (356,700);
}
);
layerId = m005;
shapes = (
{
closed = 1;
nodes = (
(845,587,l),
(845,700,l),
(435,700,l),
(435,587,l)
);
},
{
ref = A;
},
{
closed = 1;
nodes = (
(845,0,l),
(845,113,l),
(586,113,l),
(586,0,l)
);
},
{
closed = 1;
nodes = (
(785,307,l),
(785,420,l),
(515,420,l),
(515,307,l)
);
}
);
width = 913;
},
{
anchors = (
{
name = bottom;
pos = (423,0);
},
{
name = top;
pos = (313,700);
}
);
layerId = m007;
shapes = (
{
closed = 1;
nodes = (
(785,647,l),
(785,700,l),
(344,700,l),
(344,647,l)
);
},
{
ref = A;
},
{
closed = 1;
nodes = (
(785,0,l),
(785,53,l),
(559,53,l),
(559,0,l)
);
},
{
closed = 1;
nodes = (
(725,337,l),
(725,390,l),
(445,390,l),
(445,337,l)
);
}
);
width = 828;
},
{
anchors = (
{
name = bottom;
pos = (367,0);
},
{
name = top;
pos = (412,700);
}
);
layerId = m004;
shapes = (
{
closed = 1;
nodes = (
(849,627,l),
(863,700,l),
(432,700,l),
(418,627,l)
);
},
{
ref = A;
},
{
closed = 1;
nodes = (
(727,0,l),
(741,73,l),
(495,73,l),
(481,0,l)
);
},
{
closed = 1;
nodes = (
(731,327,l),
(745,400,l),
(455,400,l),
(441,327,l)
);
}
);
width = 788;
},
{
anchors = (
{
name = bottom;
pos = (386,0);
},
{
name = top;
pos = (451,700);
}
);
layerId = m008;
shapes = (
{
closed = 1;
nodes = (
(891,587,l),
(913,700,l),
(503,700,l),
(481,587,l)
);
},
{
ref = A;
},
{
closed = 1;
nodes = (
(777,0,l),
(799,113,l),
(540,113,l),
(518,0,l)
);
},
{
closed = 1;
nodes = (
(777,307,l),
(799,420,l),
(529,420,l),
(507,307,l)
);
}
);
width = 843;
},
{
anchors = (
{
name = bottom;
pos = (365,0);
},
{
name = top;
pos = (407,700);
}
);
layerId = m006;
shapes = (
{
closed = 1;
nodes = (
(843,647,l),
(853,700,l),
(412,700,l),
(402,647,l)
);
},
{
ref = A;
},
{
closed = 1;
nodes = (
(717,0,l),
(727,53,l),
(501,53,l),
(491,0,l)
);
},
{
closed = 1;
nodes = (
(722,337,l),
(733,390,l),
(453,390,l),
(442,337,l)
);
}
);
width = 775;
}
);
metricLeft = A;
metricRight = E;
unicode = 198;
},
{
glyphname = B;
kernLeft = H;
kernRight = B;
layers = (
{
anchors = (
{
name = bottom;
pos = (320,0);
},
{
name = center;
pos = (320,350);
},
{
name = top;
pos = (320,700);
}
);
layerId = m01;
shapes = (
{
closed = 1;
nodes = (
(342,0,ls),
(471,0,o),
(563,80,o),
(563,193,cs),
(563,293,o),
(492,362,o),
(391,362,c),
(395,358,l),
(470,358,o),
(523,421,o),
(523,510,cs),
(523,624,o),
(434,700,o),
(302,700,cs),
(112,700,l),
(112,0,l)
);
},
{
closed = 1;
nodes = (
(185,319,l),
(342,319,ls),
(426,319,o),
(485,269,o),
(485,196,cs),
(485,123,o),
(426,73,o),
(342,73,cs),
(185,73,l)
);
},
{
closed = 1;
nodes = (
(185,627,l),
(302,627,ls),
(388,627,o),
(445,580,o),
(445,510,cs),
(445,440,o),
(387,392,o),
(302,392,cs),
(185,392,l)
);
}
);
width = 621;
},
{
anchors = (
{
name = bottom;
pos = (354,0);
},
{
name = center;
pos = (354,350);
},
{
name = top;
pos = (354,700);
}
);
layerId = m005;
shapes = (
{
closed = 1;
nodes = (
(352,0,ls),
(514,0,o),
(623,80,o),
(623,200,cs),
(623,303,o),
(543,369,o),
(418,369,c),
(422,354,l),
(519,354,o),
(583,414,o),
(583,506,cs),
(583,624,o),
(476,700,o),
(312,700,cs),
(112,700,l),
(112,0,l)
);
},
{
closed = 1;
nodes = (
(245,299,l),
(352,299,ls),
(435,299,o),
(485,264,o),
(485,206,cs),
(485,148,o),
(435,113,o),
(352,113,cs),
(245,113,l)
);
},
{
closed = 1;
nodes = (
(245,587,l),
(312,587,ls),
(397,587,o),
(445,555,o),
(445,499,cs),
(445,443,o),
(397,411,o),
(312,411,cs),
(245,411,l)
);
}
);
width = 678;
},
{
anchors = (
{
name = bottom;
pos = (308,0);
},
{
name = center;
pos = (308,350);
},
{
name = top;
pos = (308,700);
}
);
layerId = m007;
shapes = (
{
closed = 1;
nodes = (
(322,0,ls),
(453,0,o),
(543,77,o),
(543,189,cs),
(543,292,o),
(467,361,o),
(353,361,c),
(358,357,l),
(443,357,o),
(503,423,o),
(503,515,cs),
(503,626,o),
(414,700,o),
(282,700,cs),
(112,700,l),
(112,0,l)
);
},
{
closed = 1;
nodes = (
(165,329,l),
(322,329,ls),
(420,329,o),
(485,274,o),
(485,191,cs),
(485,108,o),
(420,53,o),
(322,53,cs),
(165,53,l)
);
},
{
closed = 1;
nodes = (
(165,647,l),
(282,647,ls),
(380,647,o),
(445,595,o),
(445,515,cs),
(445,435,o),
(380,382,o),
(282,382,cs),
(165,382,l)
);
}
);
width = 600;
},
{
anchors = (
{
name = bottom;
pos = (206,0);
},
{
name = center;
pos = (274,350);
},
{
name = top;
pos = (342,700);
}
);
layerId = m004;
shapes = (
{
closed = 1;
nodes = (
(231,0,ls),
(384,0,o),
(484,79,o),
(484,200,cs),
(484,294,o),
(424,361,o),
(341,361,c),
(339,358,l),
(436,358,o),
(506,428,o),
(506,525,cs),
(506,630,o),
(424,700,o),
(299,700,cs),
(133,700,l),
(-3,0,l)
);
},
{
closed = 1;
nodes = (
(132,319,l),
(279,319,ls),
(354,319,o),
(408,269,o),
(408,198,cs),
(408,120,o),
(342,73,o),
(231,73,cs),
(84,73,l)
);
},
{
closed = 1;
nodes = (
(192,627,l),
(299,627,ls),
(377,627,o),
(428,584,o),
(428,518,cs),
(428,441,o),
(360,392,o),
(253,392,cs),
(146,392,l)
);
}
);
width = 563;
},
{
anchors = (
{
name = bottom;
pos = (238,0);
},
{
name = center;
pos = (306,350);
},
{
name = top;
pos = (374,700);
}
);
layerId = m008;
shapes = (
{
closed = 1;
nodes = (
(259,0,ls),
(431,0,o),
(543,81,o),
(543,204,cs),
(543,301,o),
(474,364,o),
(369,364,c),
(376,353,l),
(488,353,o),
(565,421,o),
(565,521,cs),
(565,632,o),
(469,700,o),
(311,700,cs),
(133,700,l),
(-3,0,l)
);
},
{
closed = 1;
nodes = (
(188,299,l),
(295,299,ls),
(366,299,o),
(409,266,o),
(409,212,cs),
(409,150,o),
(353,113,o),
(259,113,cs),
(152,113,l)
);
},
{
closed = 1;
nodes = (
(244,587,l),
(311,587,ls),
(383,587,o),
(426,556,o),
(426,503,cs),
(426,444,o),
(373,411,o),
(277,411,cs),
(210,411,l)
);
}
);
width = 618;
},
{
anchors = (
{
name = bottom;
pos = (193,0);
},
{
name = center;
pos = (261,350);
},
{
name = top;
pos = (329,700);
}
);
layerId = m006;
shapes = (
{
closed = 1;
nodes = (
(217,0,ls),
(363,0,o),
(463,82,o),
(463,201,cs),
(463,296,o),
(400,361,o),
(310,361,c),
(311,357,l),
(414,357,o),
(488,429,o),
(488,530,cs),
(488,633,o),
(411,700,o),
(293,700,cs),
(133,700,l),
(-3,0,l)
);
},
{
closed = 1;
nodes = (
(114,329,l),
(271,329,ls),
(351,329,o),
(406,276,o),
(406,201,cs),
(406,113,o),
(330,53,o),
(217,53,cs),
(60,53,l)
);
},
{
closed = 1;
nodes = (
(176,647,l),
(293,647,ls),
(374,647,o),
(429,596,o),
(429,523,cs),
(429,438,o),
(355,382,o),
(241,382,cs),
(124,382,l)
);
}
);
width = 539;
}
);
metricLeft = H;
unicode = 66;
},
{
glyphname = C;
kernLeft = O;
kernRight = O;
layers = (
{
anchors = (
{
name = bottom;
pos = (373,0);
},
{
name = top;
pos = (373,700);
}
);
layerId = m01;
shapes = (
{
closed = 1;
nodes = (
(540,-16,o),
(659,97,o),
(676,267,c),
(597,277,l),
(585,145,o),
(497,57,o),
(377,57,cs),
(236,57,o),
(137,178,o),
(137,350,cs),
(137,522,o),
(236,642,o),
(376,642,cs),
(495,642,o),
(581,555,o),
(596,418,c),
(676,428,l),
(660,601,o),
(541,716,o),
(378,716,cs),
(191,716,o),
(59,564,o),
(59,350,cs),
(59,136,o),
(191,-16,o),
(378,-16,cs)
);
}
);
width = 747;
},
{
anchors = (
{
name = bottom;
pos = (395,0);
},
{
name = top;
pos = (395,700);
}
);
layerId = m005;
shapes = (
{
closed = 1;
nodes = (
(584,-16,o),
(711,99,o),
(725,273,c),
(587,283,l),
(569,164,o),
(505,97,o),
(407,97,cs),
(284,97,o),
(194,203,o),
(194,348,cs),
(194,493,o),
(285,602,o),
(408,602,cs),
(506,602,o),
(571,533,o),
(587,412,c),
(725,422,l),
(711,599,o),
(585,716,o),
(407,716,cs),
(203,716,o),
(56,563,o),
(56,350,cs),
(56,137,o),
(204,-16,o),
(408,-16,cs)
);
}
);
width = 792;
},
{
anchors = (
{
name = bottom;
pos = (364,0);
},
{
name = top;
pos = (364,700);
}
);
layerId = m007;
shapes = (
{
closed = 1;
nodes = (
(525,-16,o),
(637,92,o),
(656,258,c),
(597,266,l),
(580,125,o),
(493,37,o),
(372,37,cs),
(225,37,o),
(118,169,o),
(118,350,cs),
(118,531,o),
(224,662,o),
(372,662,cs),
(492,662,o),
(575,575,o),
(596,428,c),
(656,437,l),
(637,607,o),
(526,716,o),
(372,716,cs),
(190,716,o),
(60,563,o),
(60,350,cs),
(60,137,o),
(190,-16,o),
(372,-16,cs)
);
}
);
width = 728;
},
{
anchors = (
{
name = bottom;
pos = (329,0);
},
{
name = top;
pos = (465,700);
}
);
layerId = m004;
shapes = (
{
closed = 1;
nodes = (
(509,-16,o),
(639,93,o),
(690,267,c),
(613,277,l),
(576,143,o),
(476,57,o),
(358,57,cs),
(233,57,o),
(157,152,o),
(157,309,cs),
(157,500,o),
(269,642,o),
(420,642,cs),
(534,642,o),
(609,561,o),
(629,417,c),
(711,427,l),
(694,605,o),
(585,716,o),
(427,716,cs),
(228,716,o),
(79,540,o),
(79,306,cs),
(79,109,o),
(185,-16,o),
(353,-16,cs)
);
}
);
width = 758;
},
{
anchors = (
{
name = bottom;
pos = (353,0);
},
{
name = top;
pos = (489,700);
}
);
layerId = m008;
shapes = (
{
closed = 1;
nodes = (
(560,-16,o),
(700,98,o),
(743,273,c),
(607,284,l),
(574,170,o),
(489,97,o),
(389,97,cs),
(281,97,o),
(215,181,o),
(215,318,cs),
(215,482,o),
(309,602,o),
(437,602,cs),
(531,602,o),
(593,537,o),
(618,412,c),
(759,422,l),
(742,600,o),
(619,716,o),
(447,716,cs),
(237,716,o),
(77,541,o),
(77,313,cs),
(77,114,o),
(200,-16,o),
(386,-16,cs)
);
}
);
width = 806;
},
{
anchors = (
{
name = bottom;
pos = (316,0);
},
{
name = top;
pos = (452,700);
}
);
layerId = m006;
shapes = (
{
closed = 1;
nodes = (
(502,-16,o),
(626,94,o),
(659,259,c),
(602,266,l),
(563,125,o),
(464,37,o),
(345,37,cs),
(217,37,o),
(139,140,o),
(139,309,cs),
(139,513,o),
(254,662,o),
(412,662,cs),
(532,662,o),
(610,576,o),
(625,428,c),
(688,436,l),
(668,610,o),
(564,716,o),
(415,716,cs),
(223,716,o),
(81,542,o),
(81,307,cs),
(81,108,o),
(184,-16,o),
(348,-16,cs)
);
}
);
width = 729;
}
);
metricLeft = O;
metricRight = "=O*1.2";
unicode = 67;
},
{
glyphname = D;
kernLeft = H;
kernRight = O;
layers = (
{
anchors = (
{
name = bottom;
pos = (366,0);
},
{
name = center;
pos = (366,350);
},
{
name = top;
pos = (366,700);
}
);
layerId = m01;
shapes = (
{
closed = 1;
nodes = (
(322,0,ls),
(518,0,o),
(650,141,o),
(650,350,cs),
(650,559,o),
(518,700,o),
(322,700,cs),
(112,700,l),
(112,0,l)
);
},
{
closed = 1;
nodes = (
(190,627,l),
(322,627,ls),
(471,627,o),
(572,515,o),
(572,350,cs),
(572,185,o),
(471,73,o),
(322,73,cs),
(190,73,l)
);
}
);
width = 709;
},
{
anchors = (
{
name = bottom;
pos = (399,0);
},
{
name = center;
pos = (399,350);
},
{
name = top;
pos = (399,700);
}
);
layerId = m005;
shapes = (
{
closed = 1;
nodes = (
(362,0,ls),
(566,0,o),
(710,144,o),
(710,350,cs),
(710,556,o),
(566,700,o),
(362,700,cs),
(112,700,l),
(112,0,l)
);
},
{
closed = 1;
nodes = (
(250,587,l),
(362,587,ls),
(486,587,o),
(572,490,o),
(572,350,cs),
(572,210,o),
(486,113,o),
(362,113,cs),
(250,113,l)
);
}
);
width = 766;
},
{
anchors = (
{
name = bottom;
pos = (355,0);
},
{
name = center;
pos = (355,350);
},
{
name = top;
pos = (355,700);
}
);
layerId = m007;
shapes = (
{
closed = 1;
nodes = (
(302,0,ls),
(499,0,o),
(630,140,o),
(630,350,cs),
(630,560,o),
(499,700,o),
(302,700,cs),
(112,700,l),
(112,0,l)
);
},
{
closed = 1;
nodes = (
(170,647,l),
(302,647,ls),
(464,647,o),
(572,529,o),
(572,350,cs),
(572,172,o),
(464,53,o),
(302,53,cs),
(170,53,l)
);
}
);
width = 690;
},
{
anchors = (
{
name = bottom;
pos = (254,0);
},
{
name = center;
pos = (322,350);
},
{
name = top;
pos = (390,700);
}
);
layerId = m004;
shapes = (
{
closed = 1;
nodes = (
(221,0,ls),
(447,0,o),
(610,160,o),
(610,381,cs),
(610,568,o),
(494,700,o),
(329,700,cs),
(133,700,l),
(-3,0,l)
);
},
{
closed = 1;
nodes = (
(197,627,l),
(329,627,ls),
(450,627,o),
(534,527,o),
(534,384,cs),
(534,204,o),
(402,73,o),
(221,73,cs),
(89,73,l)
);
}
);
width = 652;
},
{
anchors = (
{
name = bottom;
pos = (286,0);
},
{
name = center;
pos = (354,350);
},
{
name = top;
pos = (422,700);
}
);
layerId = m008;
shapes = (
{
closed = 1;
nodes = (
(267,0,ls),
(500,0,o),
(666,158,o),
(666,378,cs),
(666,568,o),
(541,700,o),
(361,700,cs),
(133,700,l),
(-3,0,l)
);
},
{
closed = 1;
nodes = (
(249,587,l),
(361,587,ls),
(465,587,o),
(535,504,o),
(535,380,cs),
(535,223,o),
(424,113,o),
(267,113,cs),
(157,113,l)
);
}
);
width = 705;
},
{
anchors = (
{
name = bottom;
pos = (237,0);
},
{
name = center;
pos = (305,350);
},
{
name = top;
pos = (373,700);
}
);
layerId = m006;
shapes = (
{
closed = 1;
nodes = (
(197,0,ls),
(419,0,o),
(580,163,o),
(580,387,cs),
(580,572,o),
(471,700,o),
(313,700,cs),
(133,700,l),
(-3,0,l)
);
},
{
closed = 1;
nodes = (
(181,647,l),
(313,647,ls),
(438,647,o),
(523,542,o),
(523,389,cs),
(523,194,o),
(386,53,o),
(197,53,cs),
(65,53,l)
);
}
);
width = 622;
}
);
metricLeft = H;
metricRight = "=O";
unicode = 68;
},
{
glyphname = Dcroat;
kernLeft = H;
kernRight = O;
layers = (
{
layerId = m01;
shapes = (
{
closed = 1;
nodes = (
(305,323,l),
(305,377,l),
(15,377,l),
(15,323,l)
);
},
{
ref = D;
}
);
width = 709;
},
{
layerId = m005;
shapes = (
{
closed = 1;
nodes = (
(338,294,l),
(338,407,l),
(10,407,l),
(10,294,l)
);
},
{
ref = D;
}
);
width = 766;
},
{
layerId = m007;
shapes = (
{
closed = 1;
nodes = (
(300,330,l),
(300,370,l),
(20,370,l),
(20,330,l)
);
},
{
ref = D;
}
);
width = 690;
},
{
layerId = m004;
shapes = (
{
closed = 1;
nodes = (
(320,323,l),
(330,377,l),
(40,377,l),
(30,323,l)
);
},
{
ref = D;
}
);
width = 652;
},
{
layerId = m008;
shapes = (
{
closed = 1;
nodes = (
(347,294,l),
(369,407,l),
(41,407,l),
(19,294,l)
);
},
{
ref = D;
}
);
width = 705;
},
{
layerId = m006;
shapes = (
{
closed = 1;
nodes = (
(316,330,l),
(324,370,l),
(44,370,l),
(36,330,l)
);
},
{
ref = D;
}
);
width = 622;
}
);
metricRight = "=D";
metricWidth = "=D";
unicode = 272;
},
{
glyphname = Eth;
kernLeft = H;
kernRight = O;
layers = (
{
layerId = m01;
shapes = (
{
closed = 1;
nodes = (
(305,323,l),
(305,377,l),
(15,377,l),
(15,323,l)
);
},
{
ref = D;
}
);
width = 709;
},
{
layerId = m005;
shapes = (
{
closed = 1;
nodes = (
(338,294,l),
(338,407,l),
(10,407,l),
(10,294,l)
);
},
{
ref = D;
}
);
width = 766;
},
{
layerId = m007;
shapes = (
{
closed = 1;
nodes = (
(300,330,l),
(300,370,l),
(20,370,l),
(20,330,l)
);
},
{
ref = D;
}
);
width = 690;
},
{
layerId = m004;
shapes = (
{
closed = 1;
nodes = (
(320,323,l),
(330,377,l),
(40,377,l),
(30,323,l)
);
},
{
ref = D;
}
);
width = 652;
},
{
layerId = m008;
shapes = (
{
closed = 1;
nodes = (
(347,294,l),
(369,407,l),
(41,407,l),
(19,294,l)
);
},
{
ref = D;
}
);
width = 705;
},
{
layerId = m006;
shapes = (
{
closed = 1;
nodes = (
(316,330,l),
(324,370,l),
(44,370,l),
(36,330,l)
);
},
{
ref = D;
}
);
width = 622;
}
);
metricRight = "=D";
metricWidth = "=D";
unicode = 208;
},
{
glyphname = E;
kernLeft = H;
kernRight = E;
layers = (
{
anchors = (
{
name = bottom;
pos = (301,0);
},
{
name = ogonek;
pos = (561,0);
},
{
name = top;
pos = (301,700);
},
{
name = topleft;
pos = (47,700);
}
);
layerId = m01;
shapes = (
{
closed = 1;
nodes = (
(520,0,l),
(520,73,l),
(190,73,l),
(190,327,l),
(460,327,l),
(460,400,l),
(190,400,l),
(190,627,l),
(520,627,l),
(520,700,l),
(112,700,l),
(112,0,l)
);
}
);
width = 571;
},
{
anchors = (
{
name = bottom;
pos = (334,0);
},
{
name = ogonek;
pos = (628,0);
},
{
name = top;
pos = (334,700);
},
{
name = topleft;
pos = (64,700);
}
);
layerId = m005;
shapes = (
{
closed = 1;
nodes = (
(580,0,l),
(580,113,l),
(250,113,l),
(250,307,l),
(520,307,l),
(520,420,l),
(250,420,l),
(250,587,l),
(580,587,l),
(580,700,l),
(112,700,l),
(112,0,l)
);
}
);
width = 648;
},
{
anchors = (
{
name = bottom;
pos = (290,0);
},
{
name = ogonek;
pos = (538,0);
},
{
name = top;
pos = (290,700);
},
{
name = topleft;
pos = (38,700);
}
);
layerId = m007;
shapes = (
{
closed = 1;
nodes = (
(500,0,l),
(500,53,l),
(170,53,l),
(170,337,l),
(440,337,l),
(440,390,l),
(170,390,l),
(170,647,l),
(500,647,l),
(500,700,l),
(112,700,l),
(112,0,l)
);
}
);
width = 543;
},
{
anchors = (
{
name = bottom;
pos = (186,0);
},
{
name = ogonek;
pos = (446,0);
},
{
name = top;
pos = (322,700);
},
{
name = topleft;
pos = (68,700);
}
);
layerId = m004;
shapes = (
{
closed = 1;
nodes = (
(405,0,l),
(419,73,l),
(89,73,l),
(139,327,l),
(409,327,l),
(423,400,l),
(153,400,l),
(197,627,l),
(527,627,l),
(541,700,l),
(133,700,l),
(-3,0,l)
);
}
);
width = 466;
},
{
anchors = (
{
name = bottom;
pos = (219,0);
},
{
name = ogonek;
pos = (513,0);
},
{
name = top;
pos = (355,700);
},
{
name = topleft;
pos = (85,700);
}
);
layerId = m008;
shapes = (
{
closed = 1;
nodes = (
(465,0,l),
(487,113,l),
(157,113,l),
(195,307,l),
(465,307,l),
(487,420,l),
(217,420,l),
(249,587,l),
(579,587,l),
(601,700,l),
(133,700,l),
(-3,0,l)
);
}
);
width = 531;
},
{
anchors = (
{
name = bottom;
pos = (175,0);
},
{
name = ogonek;
pos = (425,0);
},
{
name = top;
pos = (311,700);
},
{
name = topleft;
pos = (59,700);
}
);
layerId = m006;
shapes = (
{
closed = 1;
nodes = (
(385,0,l),
(395,53,l),
(65,53,l),
(120,337,l),
(390,337,l),
(401,390,l),
(131,390,l),
(181,647,l),
(511,647,l),
(521,700,l),
(133,700,l),
(-3,0,l)
);
}
);
width = 443;
}
);
metricLeft = H;
unicode = 69;
},
{
glyphname = F;
kernLeft = H;
kernRight = F;
layers = (
{
anchors = (
{
name = bottom;
pos = (294,0);
},
{
name = top;
pos = (294,700);
}
);
layerId = m01;
shapes = (
{
closed = 1;
nodes = (
(190,0,l),
(190,327,l),
(470,327,l),
(470,400,l),
(190,400,l),
(190,627,l),
(520,627,l),
(520,700,l),
(112,700,l),
(112,0,l)
);
}
);
width = 549;
},
{
anchors = (
{
name = bottom;
pos = (328,0);
},
{
name = top;
pos = (328,700);
}
);
layerId = m005;
shapes = (
{
closed = 1;
nodes = (
(250,0,l),
(250,307,l),
(530,307,l),
(530,420,l),
(250,420,l),
(250,587,l),
(580,587,l),
(580,700,l),
(112,700,l),
(112,0,l)
);
}
);
width = 619;
},
{
anchors = (
{
name = bottom;
pos = (281,0);
},
{
name = top;
pos = (281,700);
}
);
layerId = m007;
shapes = (
{
closed = 1;
nodes = (
(170,0,l),
(170,337,l),
(450,337,l),
(450,390,l),
(170,390,l),
(170,647,l),
(500,647,l),
(500,700,l),
(112,700,l),
(112,0,l)
);
}
);
width = 523;
},
{
anchors = (
{
name = bottom;
pos = (179,0);
},
{
name = top;
pos = (315,700);
}
);
layerId = m004;
shapes = (
{
closed = 1;
nodes = (
(75,0,l),
(139,327,l),
(419,327,l),
(433,400,l),
(153,400,l),
(197,627,l),
(527,627,l),
(541,700,l),
(133,700,l),
(-3,0,l)
);
}
);
width = 467;
},
{
anchors = (
{
name = bottom;
pos = (213,0);
},
{
name = top;
pos = (349,700);
}
);
layerId = m008;
shapes = (
{
closed = 1;
nodes = (
(131,0,l),
(192,307,l),
(475,307,l),
(497,420,l),
(215,420,l),
(248,587,l),
(579,587,l),
(601,700,l),
(133,700,l),
(-3,0,l)
);
}
);
width = 532;
},
{
anchors = (
{
name = bottom;
pos = (166,0);
},
{
name = top;
pos = (302,700);
}
);
layerId = m006;
shapes = (
{
closed = 1;
nodes = (
(55,0,l),
(120,337,l),
(400,337,l),
(411,390,l),
(131,390,l),
(181,647,l),
(511,647,l),
(521,700,l),
(133,700,l),
(-3,0,l)
);
}
);
width = 444;
}
);
metricLeft = H;
unicode = 70;
},
{
glyphname = G;
kernLeft = O;
kernRight = G;
layers = (
{
anchors = (
{
name = bottom;
pos = (400,0);
},
{
name = top;
pos = (400,700);
}
);
layerId = m01;
shapes = (
{
closed = 1;
nodes = (
(552,-16,o),
(664,113,o),
(664,311,c),
(656,262,l),
(641,0,l),
(714,0,l),
(714,354,l),
(386,354,l),
(386,281,l),
(629,281,l),
(609,148,o),
(508,57,o),
(381,57,cs),
(236,57,o),
(137,176,o),
(137,350,cs),
(137,524,o),
(236,642,o),
(381,642,cs),
(508,642,o),
(603,551,o),
(611,421,c),
(689,431,l),
(677,597,o),
(549,715,o),
(381,715,cs),
(192,715,o),
(59,564,o),
(59,351,cs),
(59,137,o),
(194,-16,o),
(381,-16,cs)
);
}
);
width = 793;
},
{
anchors = (
{
name = bottom;
pos = (424,0);
},
{
name = top;
pos = (424,700);
}
);
layerId = m005;
shapes = (
{
closed = 1;
nodes = (
(582,-16,o),
(682,96,o),
(691,301,c),
(671,291,l),
(637,0,l),
(771,0,l),
(771,354,l),
(383,354,l),
(383,241,l),
(621,241,l),
(609,160,o),
(516,97,o),
(409,97,cs),
(276,97,o),
(194,194,o),
(194,350,cs),
(194,506,o),
(275,602,o),
(408,602,cs),
(522,602,o),
(602,531,o),
(608,425,c),
(747,435,l),
(742,593,o),
(595,715,o),
(409,715,cs),
(203,715,o),
(56,564,o),
(56,351,cs),
(56,138,o),
(204,-16,o),
(408,-16,cs)
);
}
);
width = 850;
},
{
anchors = (
{
name = bottom;
pos = (392,0);
},
{
name = top;
pos = (392,700);
}
);
layerId = m007;
shapes = (
{
closed = 1;
nodes = (
(536,-16,o),
(649,107,o),
(665,301,c),
(657,309,l),
(643,0,l),
(695,0,l),
(695,344,l),
(387,344,l),
(387,291,l),
(631,291,l),
(615,142,o),
(508,37,o),
(372,37,cs),
(222,37,o),
(118,165,o),
(118,350,cs),
(118,535,o),
(221,662,o),
(372,662,cs),
(501,662,o),
(597,570,o),
(611,432,c),
(669,440,l),
(652,602,o),
(531,715,o),
(372,715,cs),
(189,715,o),
(60,564,o),
(60,350,cs),
(60,136,o),
(189,-16,o),
(372,-16,cs)
);
}
);
width = 773;
},
{
anchors = (
{
name = bottom;
pos = (357,0);
},
{
name = top;
pos = (493,700);
}
);
layerId = m004;
shapes = (
{
closed = 1;
nodes = (
(526,-16,o),
(647,106,o),
(686,311,c),
(669,262,l),
(603,0,l),
(676,0,l),
(745,354,l),
(417,354,l),
(403,281,l),
(646,281,l),
(596,140,o),
(497,57,o),
(378,57,cs),
(245,57,o),
(157,160,o),
(157,317,cs),
(157,501,o),
(277,642,o),
(435,642,cs),
(558,642,o),
(643,557,o),
(655,421,c),
(735,431,l),
(720,603,o),
(603,715,o),
(438,715,cs),
(234,715,o),
(79,541,o),
(79,311,cs),
(79,116,o),
(193,-16,o),
(363,-16,cs)
);
}
);
width = 791;
},
{
anchors = (
{
name = bottom;
pos = (384,0);
},
{
name = top;
pos = (520,700);
}
);
layerId = m008;
shapes = (
{
closed = 1;
nodes = (
(529,-16,o),
(649,96,o),
(692,287,c),
(666,245,l),
(595,0,l),
(729,0,l),
(806,354,l),
(418,354,l),
(396,241,l),
(634,241,l),
(572,147,o),
(490,97,o),
(402,97,cs),
(287,97,o),
(214,181,o),
(214,315,cs),
(214,478,o),
(321,602,o),
(463,602,cs),
(571,602,o),
(647,530,o),
(652,424,c),
(792,434,l),
(784,601,o),
(655,715,o),
(472,715,cs),
(247,715,o),
(76,539,o),
(76,306,cs),
(76,115,o),
(195,-16,o),
(369,-16,cs)
);
}
);
width = 849;
},
{
anchors = (
{
name = bottom;
pos = (351,0);
},
{
name = top;
pos = (487,700);
}
);
layerId = m006;
shapes = (
{
closed = 1;
nodes = (
(512,-16,o),
(637,100,o),
(693,298,c),
(667,249,l),
(608,0,l),
(660,0,l),
(725,334,l),
(417,334,l),
(407,281,l),
(652,281,l),
(607,130,o),
(499,37,o),
(369,37,cs),
(228,37,o),
(139,144,o),
(139,313,cs),
(139,513,o),
(263,662,o),
(428,662,cs),
(554,662,o),
(637,575,o),
(647,432,c),
(707,440,l),
(699,606,o),
(590,715,o),
(432,715,cs),
(232,715,o),
(81,540,o),
(81,308,cs),
(81,112,o),
(190,-16,o),
(355,-16,cs)
);
}
);
width = 775;
}
);
metricLeft = O;
unicode = 71;
},
{
glyphname = H;
kernLeft = H;
kernRight = H;
layers = (
{
anchors = (
{
name = bottom;
pos = (360,0);
},
{
name = center;
pos = (360,350);
},
{
name = top;
pos = (360,700);
},
{
name = topleft;
pos = (47,700);
}
);
layerId = m01;
shapes = (
{
closed = 1;
nodes = (
(190,0,l),
(190,327,l),
(530,327,l),
(530,0,l),
(608,0,l),
(608,700,l),
(530,700,l),
(530,400,l),
(190,400,l),
(190,700,l),
(112,700,l),
(112,0,l)
);
}
);
width = 720;
},
{
anchors = (
{
name = bottom;
pos = (390,0);
},
{
name = center;
pos = (390,350);
},
{
name = top;
pos = (390,700);
},
{
name = topleft;
pos = (64,700);
}
);
layerId = m005;
shapes = (
{
closed = 1;
nodes = (
(250,0,l),
(250,307,l),
(530,307,l),
(530,0,l),
(668,0,l),
(668,700,l),
(530,700,l),
(530,420,l),
(250,420,l),
(250,700,l),
(112,700,l),
(112,0,l)
);
}
);
width = 780;
},
{
anchors = (
{
name = bottom;
pos = (350,0);
},
{
name = center;
pos = (350,350);
},
{
name = top;
pos = (350,700);
},
{
name = topleft;
pos = (38,700);
}
);
layerId = m007;
shapes = (
{
closed = 1;
nodes = (
(170,0,l),
(170,337,l),
(530,337,l),
(530,0,l),
(588,0,l),
(588,700,l),
(530,700,l),
(530,390,l),
(170,390,l),
(170,700,l),
(112,700,l),
(112,0,l)
);
}
);
width = 700;
},
{
anchors = (
{
name = bottom;
pos = (245,0);
},
{
name = center;
pos = (313,350);
},
{
name = top;
pos = (381,700);
},
{
name = topleft;
pos = (68,700);
}
);
layerId = m004;
shapes = (
{
closed = 1;
nodes = (
(75,0,l),
(139,327,l),
(479,327,l),
(415,0,l),
(493,0,l),
(629,700,l),
(551,700,l),
(493,400,l),
(153,400,l),
(211,700,l),
(133,700,l),
(-3,0,l)
);
}
);
width = 588;
},
{
anchors = (
{
name = bottom;
pos = (275,0);
},
{
name = center;
pos = (343,350);
},
{
name = top;
pos = (411,700);
},
{
name = topleft;
pos = (85,700);
}
);
layerId = m008;
shapes = (
{
closed = 1;
nodes = (
(135,0,l),
(195,307,l),
(475,307,l),
(415,0,l),
(553,0,l),
(689,700,l),
(551,700,l),
(497,420,l),
(217,420,l),
(271,700,l),
(133,700,l),
(-3,0,l)
);
}
);
width = 648;
},
{
anchors = (
{
name = bottom;
pos = (235,0);
},
{
name = center;
pos = (303,350);
},
{
name = top;
pos = (371,700);
},
{
name = topleft;
pos = (59,700);
}
);
layerId = m006;
shapes = (
{
closed = 1;
nodes = (
(55,0,l),
(120,337,l),
(480,337,l),
(415,0,l),
(473,0,l),
(609,700,l),
(551,700,l),
(491,390,l),
(131,390,l),
(191,700,l),
(133,700,l),
(-3,0,l)
);
}
);
width = 568;
}
);
unicode = 72;
},
{
glyphname = Hbar;
layers = (
{
layerId = m01;
shapes = (
{
closed = 1;
nodes = (
(683,530,l),
(683,590,l),
(47,590,l),
(47,530,l)
);
},
{
pos = (32,0);
ref = H;
}
);
width = 730;
},
{
layerId = m005;
shapes = (
{
closed = 1;
nodes = (
(713,520,l),
(713,600,l),
(47,600,l),
(47,520,l)
);
},
{
pos = (34,0);
ref = H;
}
);
width = 760;
},
{
layerId = m007;
shapes = (
{
closed = 1;
nodes = (
(663,540,l),
(663,580,l),
(47,580,l),
(47,540,l)
);
},
{
pos = (23,0);
ref = H;
}
);
width = 710;
},
{
layerId = m004;
shapes = (
{
closed = 1;
nodes = (
(671,530,l),
(683,590,l),
(47,590,l),
(35,530,l)
);
},
{
pos = (-35,0);
ref = H;
}
);
width = 598;
},
{
layerId = m008;
shapes = (
{
closed = 1;
nodes = (
(689,520,l),
(705,600,l),
(49,600,l),
(33,520,l)
);
},
{
pos = (-38,0);
ref = H;
}
);
width = 618;
},
{
layerId = m006;
shapes = (
{
closed = 1;
nodes = (
(653,540,l),
(661,580,l),
(45,580,l),
(37,540,l)
);
},
{
pos = (-45,0);
ref = H;
}
);
width = 578;
}
);
metricLeft = "=H-65";
metricRight = "=H-65";
unicode = 294;
},
{
glyphname = I;
kernLeft = H;
kernRight = H;
layers = (
{
anchors = (
{
name = bottom;
pos = (151,0);
},
{
name = ogonek;
pos = (231,0);
},
{
name = top;
pos = (151,700);
},
{
name = topleft;
pos = (47,700);
}
);
layerId = m01;
shapes = (
{
closed = 1;
nodes = (
(190,0,l),
(190,700,l),
(112,700,l),
(112,0,l)
);
}
);
width = 302;
},
{
anchors = (
{
name = bottom;
pos = (181,0);
},
{
name = ogonek;
pos = (298,0);
},
{
name = top;
pos = (181,700);
},
{
name = topleft;
pos = (64,700);
}
);
layerId = m005;
shapes = (
{
closed = 1;
nodes = (
(250,0,l),
(250,700,l),
(112,700,l),
(112,0,l)
);
}
);
width = 362;
},
{
anchors = (
{
name = bottom;
pos = (141,0);
},
{
name = ogonek;
pos = (208,0);
},
{
name = top;
pos = (141,700);
},
{
name = topleft;
pos = (38,700);
}
);
layerId = m007;
shapes = (
{
closed = 1;
nodes = (
(170,0,l),
(170,700,l),
(112,700,l),
(112,0,l)
);
}
);
width = 282;
},
{
anchors = (
{
name = bottom;
pos = (36,0);
},
{
name = ogonek;
pos = (116,0);
},
{
name = top;
pos = (172,700);
},
{
name = topleft;
pos = (68,700);
}
);
layerId = m004;
shapes = (
{
closed = 1;
nodes = (
(75,0,l),
(211,700,l),
(133,700,l),
(-3,0,l)
);
}
);
width = 170;
},
{
anchors = (
{
name = bottom;
pos = (66,0);
},
{
name = ogonek;
pos = (183,0);
},
{
name = top;
pos = (202,700);
},
{
name = topleft;
pos = (85,700);
}
);
layerId = m008;
shapes = (
{
closed = 1;
nodes = (
(135,0,l),
(271,700,l),
(133,700,l),
(-3,0,l)
);
}
);
width = 230;
},
{
anchors = (
{
name = bottom;
pos = (26,0);
},
{
name = ogonek;
pos = (95,0);
},
{
name = top;
pos = (162,700);
},
{
name = topleft;
pos = (59,700);
}
);
layerId = m006;
shapes = (
{
closed = 1;
nodes = (
(55,0,l),
(191,700,l),
(133,700,l),
(-3,0,l)
);
}
);
width = 150;
}
);
metricLeft = H;
metricRight = H;
unicode = 73;
},
{
glyphname = J;
kernLeft = J;
kernRight = U;
layers = (
{
anchors = (
{
name = bottom;
pos = (272,0);
},
{
name = top;
pos = (430,700);
}
);
layerId = m01;
shapes = (
{
closed = 1;
nodes = (
(380,-16,o),
(469,78,o),
(469,212,cs),
(469,700,l),
(391,700,l),
(391,212,ls),
(391,120,o),
(335,57,o),
(252,57,cs),
(169,57,o),
(112,120,o),
(112,212,cs),
(112,270,l),
(34,270,l),
(34,212,ls),
(34,78,o),
(124,-16,o),
(252,-16,cs)
);
}
);
width = 569;
},
{
anchors = (
{
name = bottom;
pos = (296,0);
},
{
name = top;
pos = (460,700);
}
);
layerId = m005;
shapes = (
{
closed = 1;
nodes = (
(425,-16,o),
(527,86,o),
(527,232,cs),
(527,700,l),
(389,700,l),
(389,232,ls),
(389,151,o),
(345,97,o),
(280,97,cs),
(215,97,o),
(170,152,o),
(170,232,cs),
(170,270,l),
(32,270,l),
(32,232,ls),
(32,87,o),
(135,-16,o),
(280,-16,cs)
);
}
);
width = 624;
},
{
anchors = (
{
name = bottom;
pos = (266,0);
},
{
name = top;
pos = (422,700);
}
);
layerId = m007;
shapes = (
{
closed = 1;
nodes = (
(367,-16,o),
(451,72,o),
(451,202,cs),
(451,700,l),
(393,700,l),
(393,202,ls),
(393,103,o),
(333,37,o),
(244,37,cs),
(154,37,o),
(94,103,o),
(94,202,cs),
(94,270,l),
(36,270,l),
(36,202,ls),
(36,72,o),
(120,-16,o),
(243,-16,cs)
);
}
);
width = 552;
},
{
anchors = (
{
name = bottom;
pos = (222,0);
},
{
name = top;
pos = (516,700);
}
);
layerId = m004;
shapes = (
{
closed = 1;
nodes = (
(336,-16,o),
(432,73,o),
(459,212,cs),
(554,700,l),
(476,700,l),
(381,212,ls),
(363,119,o),
(297,57,o),
(218,57,cs),
(136,57,o),
(89,123,o),
(106,212,cs),
(117,270,l),
(39,270,l),
(28,212,ls),
(4,84,o),
(85,-16,o),
(214,-16,cs)
);
}
);
width = 512;
},
{
anchors = (
{
name = bottom;
pos = (244,0);
},
{
name = top;
pos = (537,700);
}
);
layerId = m008;
shapes = (
{
closed = 1;
nodes = (
(385,-16,o),
(487,82,o),
(518,242,cs),
(607,700,l),
(469,700,l),
(380,242,ls),
(362,149,o),
(318,97,o),
(257,97,cs),
(191,97,o),
(156,156,o),
(171,242,cs),
(176,270,l),
(38,270,l),
(33,242,ls),
(7,98,o),
(102,-16,o),
(249,-16,cs)
);
}
);
width = 564;
},
{
anchors = (
{
name = bottom;
pos = (211,0);
},
{
name = top;
pos = (498,700);
}
);
layerId = m006;
shapes = (
{
closed = 1;
nodes = (
(317,-16,o),
(405,67,o),
(431,202,cs),
(528,700,l),
(470,700,l),
(373,202,ls),
(353,101,o),
(290,37,o),
(207,37,cs),
(119,37,o),
(66,109,o),
(84,202,cs),
(97,270,l),
(39,270,l),
(26,202,ls),
(3,80,o),
(82,-16,o),
(204,-16,cs)
);
}
);
width = 486;
}
);
unicode = 74;
},
{
glyphname = K;
kernLeft = H;
kernRight = K;
layers = (
{
anchors = (
{
name = bottom;
pos = (330,0);
},
{
name = top;
pos = (330,700);
}
);
layerId = m01;
shapes = (
{
closed = 1;
nodes = (
(584,700,l),
(494,700,l),
(128,280,l),
(181,234,l)
);
},
{
closed = 1;
nodes = (
(190,0,l),
(190,700,l),
(112,700,l),
(112,0,l)
);
},
{
closed = 1;
nodes = (
(613,0,l),
(334,422,l),
(266,392,l),
(523,0,l)
);
}
);
width = 632;
},
{
anchors = (
{
name = bottom;
pos = (375,0);
},
{
name = top;
pos = (375,700);
}
);
layerId = m005;
shapes = (
{
closed = 1;
nodes = (
(665,700,l),
(507,700,l),
(123,279,l),
(215,199,l)
);
},
{
closed = 1;
nodes = (
(250,0,l),
(250,700,l),
(112,700,l),
(112,0,l)
);
},
{
closed = 1;
nodes = (
(689,0,l),
(377,451,l),
(259,399,l),
(534,0,l)
);
}
);
width = 708;
},
{
anchors = (
{
name = bottom;
pos = (312,0);
},
{
name = top;
pos = (312,700);
}
);
layerId = m007;
shapes = (
{
closed = 1;
nodes = (
(552,700,l),
(489,700,l),
(132,281,l),
(170,248,l)
);
},
{
closed = 1;
nodes = (
(170,0,l),
(170,700,l),
(112,700,l),
(112,0,l)
);
},
{
closed = 1;
nodes = (
(584,0,l),
(302,437,l),
(271,388,l),
(518,0,l)
);
}
);
width = 603;
},
{
anchors = (
{
name = bottom;
pos = (215,0);
},
{
name = top;
pos = (351,700);
}
);
layerId = m004;
shapes = (
{
closed = 1;
nodes = (
(605,700,l),
(505,700,l),
(57,280,l),
(111,234,l)
);
},
{
closed = 1;
nodes = (
(75,0,l),
(211,700,l),
(133,700,l),
(-3,0,l)
);
},
{
closed = 1;
nodes = (
(498,0,l),
(301,422,l),
(235,392,l),
(416,0,l)
);
}
);
width = 550;
},
{
anchors = (
{
name = bottom;
pos = (260,0);
},
{
name = top;
pos = (396,700);
}
);
layerId = m008;
shapes = (
{
closed = 1;
nodes = (
(686,700,l),
(513,700,l),
(85,313,l),
(139,199,l)
);
},
{
closed = 1;
nodes = (
(135,0,l),
(271,700,l),
(133,700,l),
(-3,0,l)
);
},
{
closed = 1;
nodes = (
(574,0,l),
(350,451,l),
(230,399,l),
(427,0,l)
);
}
);
width = 626;
},
{
anchors = (
{
name = bottom;
pos = (197,0);
},
{
name = top;
pos = (333,700);
}
);
layerId = m006;
shapes = (
{
closed = 1;
nodes = (
(573,700,l),
(505,700,l),
(67,281,l),
(103,248,l)
);
},
{
closed = 1;
nodes = (
(55,0,l),
(191,700,l),
(133,700,l),
(-3,0,l)
);
},
{
closed = 1;
nodes = (
(469,0,l),
(272,437,l),
(239,388,l),
(411,0,l)
);
}
);
width = 521;
}
);
metricLeft = H;
unicode = 75;
},
{
glyphname = L;
kernLeft = H;
kernRight = L;
layers = (
{
anchors = (
{
name = bottom;
pos = (281,0);
},
{
name = center;
pos = (281,350);
},
{
name = top;
pos = (150,700);
},
{
name = topright;
pos = (515,700);
}
);
layerId = m01;
shapes = (
{
closed = 1;
nodes = (
(515,0,l),
(515,73,l),
(190,73,l),
(190,700,l),
(112,700,l),
(112,0,l)
);
}
);
width = 529;
},
{
anchors = (
{
name = bottom;
pos = (318,0);
},
{
name = center;
pos = (318,350);
},
{
name = top;
pos = (193,700);
},
{
name = topright;
pos = (571,700);
}
);
layerId = m005;
shapes = (
{
closed = 1;
nodes = (
(575,0,l),
(575,113,l),
(250,113,l),
(250,700,l),
(112,700,l),
(112,0,l)
);
}
);
width = 596;
},
{
anchors = (
{
name = bottom;
pos = (268,0);
},
{
name = center;
pos = (268,350);
},
{
name = top;
pos = (140,700);
},
{
name = topright;
pos = (497,700);
}
);
layerId = m007;
shapes = (
{
closed = 1;
nodes = (
(495,0,l),
(495,53,l),
(170,53,l),
(170,700,l),
(112,700,l),
(112,0,l)
);
}
);
width = 506;
},
{
anchors = (
{
name = bottom;
pos = (166,0);
},
{
name = center;
pos = (234,350);
},
{
name = top;
pos = (171,700);
},
{
name = topright;
pos = (536,700);
}
);
layerId = m004;
shapes = (
{
closed = 1;
nodes = (
(400,0,l),
(414,73,l),
(89,73,l),
(211,700,l),
(133,700,l),
(-3,0,l)
);
}
);
width = 462;
},
{
anchors = (
{
name = bottom;
pos = (203,0);
},
{
name = center;
pos = (271,350);
},
{
name = top;
pos = (205,700);
},
{
name = topright;
pos = (592,700);
}
);
layerId = m008;
shapes = (
{
closed = 1;
nodes = (
(460,0,l),
(482,113,l),
(157,113,l),
(271,700,l),
(133,700,l),
(-3,0,l)
);
}
);
width = 528;
},
{
anchors = (
{
name = bottom;
pos = (153,0);
},
{
name = center;
pos = (221,350);
},
{
name = top;
pos = (159,700);
},
{
name = topright;
pos = (518,700);
}
);
layerId = m006;
shapes = (
{
closed = 1;
nodes = (
(380,0,l),
(390,53,l),
(65,53,l),
(191,700,l),
(133,700,l),
(-3,0,l)
);
}
);
width = 439;
}
);
metricLeft = H;
unicode = 76;
},
{
glyphname = Lslash;
kernLeft = H;
kernRight = L;
layers = (
{
layerId = m01;
shapes = (
{
closed = 1;
nodes = (
(345,390,l),
(345,450,l),
(5,310,l),
(5,250,l)
);
},
{
ref = L;
}
);
width = 529;
},
{
layerId = m005;
shapes = (
{
closed = 1;
nodes = (
(349,373,l),
(349,475,l),
(-11,327,l),
(-11,225,l)
);
},
{
ref = L;
}
);
width = 596;
},
{
layerId = m007;
shapes = (
{
closed = 1;
nodes = (
(330,402,l),
(330,440,l),
(10,298,l),
(10,260,l)
);
},
{
ref = L;
}
);
width = 506;
},
{
layerId = m004;
shapes = (
{
closed = 1;
nodes = (
(373,390,l),
(384,450,l),
(17,310,l),
(6,250,l)
);
},
{
ref = L;
}
);
width = 462;
},
{
layerId = m008;
shapes = (
{
closed = 1;
nodes = (
(378,373,l),
(398,475,l),
(10,327,l),
(-10,225,l)
);
},
{
ref = L;
}
);
width = 528;
},
{
layerId = m006;
shapes = (
{
closed = 1;
nodes = (
(360,402,l),
(367,440,l),
(20,298,l),
(13,260,l)
);
},
{
ref = L;
}
);
width = 439;
}
);
metricRight = "=L";
metricWidth = "=L";
unicode = 321;
},
{
glyphname = M;
kernLeft = H;
kernRight = H;
layers = (
{
anchors = (
{
name = bottom;
pos = (451,0);
},
{
name = top;
pos = (451,700);
}
);
layerId = m01;
shapes = (
{
closed = 1;
nodes = (
(190,0,l),
(190,645,l),
(180,645,l),
(413,0,l),
(489,0,l),
(722,645,l),
(712,645,l),
(712,0,l),
(790,0,l),
(790,700,l),
(668,700,l),
(452,101,l),
(450,101,l),
(233,700,l),
(112,700,l),
(112,0,l)
);
}
);
width = 902;
},
{
anchors = (
{
name = bottom;
pos = (481,0);
},
{
name = top;
pos = (481,700);
}
);
layerId = m005;
shapes = (
{
closed = 1;
nodes = (
(250,0,l),
(250,572,l),
(209,572,l),
(430,0,l),
(532,0,l),
(753,572,l),
(712,572,l),
(712,0,l),
(850,0,l),
(850,700,l),
(670,700,l),
(454,131,l),
(508,131,l),
(291,700,l),
(112,700,l),
(112,0,l)
);
}
);
width = 962;
},
{
anchors = (
{
name = bottom;
pos = (431,0);
},
{
name = top;
pos = (431,700);
}
);
layerId = m007;
shapes = (
{
closed = 1;
nodes = (
(170,0,l),
(170,632,l),
(167,632,l),
(408,0,l),
(454,0,l),
(695,632,l),
(692,632,l),
(692,0,l),
(750,0,l),
(750,700,l),
(663,700,l),
(427,81,l),
(435,81,l),
(198,700,l),
(112,700,l),
(112,0,l)
);
}
);
width = 862;
},
{
anchors = (
{
name = bottom;
pos = (336,0);
},
{
name = top;
pos = (472,700);
}
);
layerId = m004;
shapes = (
{
closed = 1;
nodes = (
(75,0,l),
(203,657,l),
(187,665,l),
(298,0,l),
(378,0,l),
(748,667,l),
(726,665,l),
(597,0,l),
(675,0,l),
(811,700,l),
(689,700,l),
(337,65,l),
(361,65,l),
(254,700,l),
(133,700,l),
(-3,0,l)
);
}
);
width = 770;
},
{
anchors = (
{
name = bottom;
pos = (366,0);
},
{
name = top;
pos = (502,700);
}
);
layerId = m008;
shapes = (
{
closed = 1;
nodes = (
(130,0,l),
(241,572,l),
(200,572,l),
(310,0,l),
(417,0,l),
(749,572,l),
(703,572,l),
(592,0,l),
(735,0,l),
(871,700,l),
(686,700,l),
(359,131,l),
(413,131,l),
(307,700,l),
(133,700,l),
(-3,0,l)
);
}
);
width = 830;
},
{
anchors = (
{
name = bottom;
pos = (316,0);
},
{
name = top;
pos = (452,700);
}
);
layerId = m006;
shapes = (
{
closed = 1;
nodes = (
(55,0,l),
(178,632,l),
(175,632,l),
(293,0,l),
(339,0,l),
(703,632,l),
(700,632,l),
(577,0,l),
(635,0,l),
(771,700,l),
(684,700,l),
(328,81,l),
(336,81,l),
(219,700,l),
(133,700,l),
(-3,0,l)
);
}
);
width = 730;
}
);
metricLeft = H;
metricRight = H;
unicode = 77;
},
{
glyphname = N;
kernLeft = H;
kernRight = H;
layers = (
{
anchors = (
{
name = bottom;
pos = (385,0);
},
{
name = top;
pos = (385,700);
}
);
layerId = m01;
shapes = (
{
closed = 1;
nodes = (
(191,0,l),
(191,648,l),
(165,641,l),
(559,0,l),
(658,0,l),
(658,700,l),
(579,700,l),
(579,52,l),
(604,59,l),
(211,700,l),
(112,700,l),
(112,0,l)
);
}
);
width = 770;
},
{
anchors = (
{
name = bottom;
pos = (410,0);
},
{
name = top;
pos = (410,700);
}
);
layerId = m005;
shapes = (
{
closed = 1;
nodes = (
(251,0,l),
(251,534,l),
(227,527,l),
(559,0,l),
(708,0,l),
(708,700,l),
(569,700,l),
(569,166,l),
(593,173,l),
(261,700,l),
(112,700,l),
(112,0,l)
);
}
);
width = 820;
},
{
anchors = (
{
name = bottom;
pos = (372,0);
},
{
name = top;
pos = (372,700);
}
);
layerId = m007;
shapes = (
{
closed = 1;
nodes = (
(170,0,l),
(170,677,l),
(144,670,l),
(554,0,l),
(631,0,l),
(631,700,l),
(573,700,l),
(573,23,l),
(599,30,l),
(189,700,l),
(112,700,l),
(112,0,l)
);
}
);
width = 743;
},
{
anchors = (
{
name = bottom;
pos = (270,0);
},
{
name = top;
pos = (406,700);
}
);
layerId = m004;
shapes = (
{
closed = 1;
nodes = (
(76,0,l),
(202,647,l),
(180,645,l),
(444,0,l),
(543,0,l),
(679,700,l),
(600,700,l),
(474,53,l),
(496,55,l),
(232,700,l),
(133,700,l),
(-3,0,l)
);
}
);
width = 638;
},
{
anchors = (
{
name = bottom;
pos = (295,0);
},
{
name = top;
pos = (431,700);
}
);
layerId = m008;
shapes = (
{
closed = 1;
nodes = (
(131,0,l),
(235,533,l),
(208,530,l),
(439,0,l),
(593,0,l),
(729,700,l),
(585,700,l),
(481,167,l),
(508,170,l),
(277,700,l),
(133,700,l),
(-3,0,l)
);
}
);
width = 688;
},
{
anchors = (
{
name = bottom;
pos = (258,0);
},
{
name = top;
pos = (394,700);
}
);
layerId = m006;
shapes = (
{
closed = 1;
nodes = (
(56,0,l),
(188,676,l),
(162,674,l),
(440,0,l),
(518,0,l),
(654,700,l),
(595,700,l),
(463,24,l),
(489,26,l),
(211,700,l),
(133,700,l),
(-3,0,l)
);
}
);
width = 613;
}
);
metricLeft = H;
metricRight = H;
unicode = 78;
},
{
glyphname = Eng;
kernLeft = H;
kernRight = H;
layers = (
{
anchors = (
{
name = bottom;
pos = (358,0);
},
{
name = top;
pos = (358,700);
}
);
layerId = m01;
shapes = (
{
closed = 1;
nodes = (
(491,-200,ls),
(585,-200,o),
(631,-154,o),
(631,-60,cs),
(631,0,l),
(556,0,l),
(556,-67,ls),
(556,-107,o),
(536,-127,o),
(496,-127,cs),
(406,-127,l),
(406,-200,l)
);
},
{
ref = N;
}
);
width = 770;
},
{
anchors = (
{
name = bottom;
pos = (366,0);
},
{
name = top;
pos = (366,700);
}
);
layerId = m005;
shapes = (
{
closed = 1;
nodes = (
(494,-200,ls),
(608,-200,o),
(664,-147,o),
(664,-40,cs),
(664,0,l),
(529,0,l),
(529,-27,ls),
(529,-67,o),
(509,-87,o),
(469,-87,cs),
(379,-87,l),
(379,-200,l)
);
},
{
ref = N;
}
);
width = 820;
},
{
anchors = (
{
name = bottom;
pos = (354,0);
},
{
name = top;
pos = (354,700);
}
);
layerId = m007;
shapes = (
{
closed = 1;
nodes = (
(483,-200,ls),
(570,-200,o),
(613,-157,o),
(613,-70,cs),
(613,0,l),
(558,0,l),
(558,-77,ls),
(558,-124,o),
(535,-147,o),
(488,-147,cs),
(408,-147,l),
(408,-200,l)
);
},
{
ref = N;
}
);
width = 743;
},
{
anchors = (
{
name = bottom;
pos = (309,0);
},
{
name = top;
pos = (445,700);
}
);
layerId = m004;
shapes = (
{
closed = 1;
nodes = (
(422,-200,ls),
(490,-200,o),
(553,-146,o),
(570,-60,cs),
(582,0,l),
(507,0,l),
(494,-67,ls),
(487,-104,o),
(459,-127,o),
(422,-127,cs),
(332,-127,l),
(318,-200,l)
);
},
{
ref = N;
}
);
width = 677;
},
{
anchors = (
{
name = bottom;
pos = (317,0);
},
{
name = top;
pos = (453,700);
}
);
layerId = m008;
shapes = (
{
closed = 1;
nodes = (
(413,-200,ls),
(514,-200,o),
(586,-149,o),
(602,-67,cs),
(615,0,l),
(480,0,l),
(475,-27,ls),
(468,-64,o),
(444,-87,o),
(413,-87,cs),
(313,-87,l),
(291,-200,l)
);
},
{
ref = N;
}
);
width = 710;
},
{
anchors = (
{
name = bottom;
pos = (306,0);
},
{
name = top;
pos = (442,700);
}
);
layerId = m006;
shapes = (
{
closed = 1;
nodes = (
(412,-200,ls),
(484,-200,o),
(535,-152,o),
(552,-70,cs),
(566,0,l),
(511,0,l),
(496,-77,ls),
(487,-121,o),
(456,-147,o),
(412,-147,cs),
(332,-147,l),
(322,-200,l)
);
},
{
ref = N;
}
);
width = 661;
}
);
metricLeft = N;
metricRight = H;
unicode = 330;
},
{
glyphname = O;
kernLeft = O;
kernRight = O;
layers = (
{
anchors = (
{
name = bottom;
pos = (381,0);
},
{
name = center;
pos = (381,350);
},
{
name = ogonek;
pos = (683,10);
},
{
name = top;
pos = (381,700);
},
{
name = topleft;
pos = (24,700);
},
{
name = topright;
pos = (738,700);
}
);
layerId = m01;
shapes = (
{
closed = 1;
nodes = (
(570,-16,o),
(703,135,o),
(703,350,cs),
(703,565,o),
(570,716,o),
(381,716,cs),
(192,716,o),
(59,565,o),
(59,350,cs),
(59,135,o),
(192,-16,o),
(381,-16,cs)
);
},
{
closed = 1;
nodes = (
(237,57,o),
(137,177,o),
(137,350,cs),
(137,523,o),
(237,643,o),
(381,643,cs),
(525,643,o),
(625,523,o),
(625,350,cs),
(625,177,o),
(525,57,o),
(381,57,cs)
);
}
);
width = 762;
},
{
anchors = (
{
name = bottom;
pos = (408,0);
},
{
name = center;
pos = (408,350);
},
{
name = ogonek;
pos = (725,10);
},
{
name = top;
pos = (408,700);
},
{
name = topleft;
pos = (32,700);
},
{
name = topright;
pos = (784,700);
}
);
layerId = m005;
shapes = (
{
closed = 1;
nodes = (
(615,-16,o),
(760,135,o),
(760,350,cs),
(760,565,o),
(615,716,o),
(408,716,cs),
(201,716,o),
(56,565,o),
(56,350,cs),
(56,135,o),
(201,-16,o),
(408,-16,cs)
);
},
{
closed = 1;
nodes = (
(281,97,o),
(194,199,o),
(194,350,cs),
(194,501,o),
(281,603,o),
(408,603,cs),
(535,603,o),
(622,501,o),
(622,350,cs),
(622,199,o),
(535,97,o),
(408,97,cs)
);
}
);
width = 816;
},
{
anchors = (
{
name = bottom;
pos = (372,0);
},
{
name = center;
pos = (372,350);
},
{
name = ogonek;
pos = (670,10);
},
{
name = top;
pos = (372,700);
},
{
name = topleft;
pos = (19,700);
},
{
name = topright;
pos = (725,700);
}
);
layerId = m007;
shapes = (
{
closed = 1;
nodes = (
(556,-16,o),
(684,134,o),
(684,350,cs),
(684,566,o),
(556,716,o),
(372,716,cs),
(188,716,o),
(60,566,o),
(60,350,cs),
(60,134,o),
(188,-16,o),
(372,-16,cs)
);
},
{
closed = 1;
nodes = (
(222,37,o),
(118,165,o),
(118,350,cs),
(118,535,o),
(222,663,o),
(372,663,cs),
(522,663,o),
(626,535,o),
(626,350,cs),
(626,165,o),
(522,37,o),
(372,37,cs)
);
}
);
width = 744;
},
{
anchors = (
{
name = bottom;
pos = (336,0);
},
{
name = center;
pos = (404,350);
},
{
name = ogonek;
pos = (640,10);
},
{
name = top;
pos = (472,700);
},
{
name = topleft;
pos = (113,700);
},
{
name = topright;
pos = (830,700);
}
);
layerId = m004;
shapes = (
{
closed = 1;
nodes = (
(579,-16,o),
(727,153,o),
(727,382,cs),
(727,583,o),
(608,716,o),
(430,716,cs),
(231,716,o),
(80,544,o),
(80,316,cs),
(80,116,o),
(199,-16,o),
(378,-16,cs)
);
},
{
closed = 1;
nodes = (
(242,57,o),
(158,156,o),
(158,311,cs),
(158,500,o),
(278,643,o),
(435,643,cs),
(567,643,o),
(649,545,o),
(649,389,cs),
(649,200,o),
(530,57,o),
(373,57,cs)
);
}
);
width = 770;
},
{
anchors = (
{
name = bottom;
pos = (366,0);
},
{
name = center;
pos = (434,350);
},
{
name = ogonek;
pos = (687,10);
},
{
name = top;
pos = (502,700);
},
{
name = topleft;
pos = (122,700);
},
{
name = topright;
pos = (881,700);
}
);
layerId = m008;
shapes = (
{
closed = 1;
nodes = (
(626,-16,o),
(788,151,o),
(788,376,cs),
(788,578,o),
(655,716,o),
(458,716,cs),
(241,716,o),
(79,548,o),
(79,323,cs),
(79,121,o),
(212,-16,o),
(409,-16,cs)
);
},
{
closed = 1;
nodes = (
(294,97,o),
(217,186,o),
(217,321,cs),
(217,482,o),
(321,603,o),
(458,603,cs),
(575,603,o),
(650,516,o),
(650,380,cs),
(650,218,o),
(548,97,o),
(411,97,cs)
);
}
);
width = 828;
},
{
anchors = (
{
name = bottom;
pos = (328,0);
},
{
name = center;
pos = (396,350);
},
{
name = ogonek;
pos = (629,10);
},
{
name = top;
pos = (464,700);
},
{
name = topleft;
pos = (109,700);
},
{
name = topright;
pos = (818,700);
}
);
layerId = m006;
shapes = (
{
closed = 1;
nodes = (
(566,-16,o),
(709,153,o),
(709,384,cs),
(709,584,o),
(594,716,o),
(421,716,cs),
(227,716,o),
(82,545,o),
(82,315,cs),
(82,115,o),
(196,-16,o),
(370,-16,cs)
);
},
{
closed = 1;
nodes = (
(228,37,o),
(140,143,o),
(140,310,cs),
(140,513,o),
(261,663,o),
(425,663,cs),
(564,663,o),
(651,558,o),
(651,390,cs),
(651,187,o),
(530,37,o),
(367,37,cs)
);
}
);
width = 753;
}
);
unicode = 79;
},
{
glyphname = Oslash;
kernLeft = O;
kernRight = O;
layers = (
{
anchors = (
{
name = bottom;
pos = (413,0);
},
{
name = top;
pos = (413,700);
}
);
layerId = m01;
shapes = (
{
closed = 1;
nodes = (
(129,-66,l),
(784,765,l),
(696,765,l),
(41,-66,l)
);
},
{
pos = (39,0);
ref = O;
}
);
width = 825;
},
{
anchors = (
{
name = bottom;
pos = (422,0);
},
{
name = top;
pos = (422,700);
}
);
layerId = m005;
shapes = (
{
closed = 1;
nodes = (
(158,-66,l),
(804,765,l),
(685,765,l),
(39,-66,l)
);
},
{
pos = (26,0);
ref = O;
}
);
width = 843;
},
{
anchors = (
{
name = bottom;
pos = (393,0);
},
{
name = top;
pos = (393,700);
}
);
layerId = m007;
shapes = (
{
closed = 1;
nodes = (
(104,-56,l),
(743,755,l),
(681,755,l),
(42,-56,l)
);
},
{
pos = (20,0);
ref = O;
}
);
width = 785;
},
{
anchors = (
{
name = bottom;
pos = (349,0);
},
{
name = top;
pos = (485,700);
}
);
layerId = m004;
shapes = (
{
closed = 1;
nodes = (
(68,-66,l),
(855,765,l),
(767,765,l),
(-20,-66,l)
);
},
{
pos = (20,0);
ref = O;
}
);
width = 796;
},
{
anchors = (
{
name = bottom;
pos = (361,0);
},
{
name = top;
pos = (497,700);
}
);
layerId = m008;
shapes = (
{
closed = 1;
nodes = (
(102,-66,l),
(880,765,l),
(756,765,l),
(-22,-66,l)
);
},
{
pos = (11,0);
ref = O;
}
);
width = 822;
},
{
anchors = (
{
name = bottom;
pos = (329,0);
},
{
name = top;
pos = (465,700);
}
);
layerId = m006;
shapes = (
{
closed = 1;
nodes = (
(45,-56,l),
(812,755,l),
(750,755,l),
(-17,-56,l)
);
},
{
pos = (4,0);
ref = O;
}
);
width = 756;
}
);
metricLeft = "=O*.7";
metricRight = "=O*.7";
unicode = 216;
},
{
glyphname = OE;
kernLeft = O;
kernRight = E;
layers = (
{
anchors = (
{
name = bottom;
pos = (546,0);
},
{
name = top;
pos = (546,700);
}
);
layerId = m01;
shapes = (
{
closed = 1;
nodes = (
(1033,0,l),
(1033,73,l),
(703,73,l),
(703,327,l),
(973,327,l),
(973,400,l),
(703,400,l),
(703,627,l),
(1033,627,l),
(1033,700,l),
(625,700,l),
(625,0,l)
);
},
{
closed = 1;
nodes = (
(579,-16,o),
(683,152,o),
(683,350,cs),
(683,548,o),
(579,716,o),
(381,716,cs),
(192,716,o),
(59,565,o),
(59,350,cs),
(59,135,o),
(192,-16,o),
(381,-16,cs)
);
},
{
closed = 1;
nodes = (
(237,57,o),
(137,177,o),
(137,350,cs),
(137,523,o),
(237,643,o),
(381,643,cs),
(525,643,o),
(625,523,o),
(625,350,cs),
(625,177,o),
(525,57,o),
(381,57,cs)
);
}
);
width = 1084;
},
{
anchors = (
{
name = bottom;
pos = (573,0);
},
{
name = top;
pos = (573,700);
}
);
layerId = m005;
shapes = (
{
closed = 1;
nodes = (
(1090,0,l),
(1090,113,l),
(760,113,l),
(760,307,l),
(1030,307,l),
(1030,420,l),
(760,420,l),
(760,587,l),
(1090,587,l),
(1090,700,l),
(622,700,l),
(622,0,l)
);
},
{
closed = 1;
nodes = (
(606,-16,o),
(700,152,o),
(700,350,cs),
(700,548,o),
(606,716,o),
(408,716,cs),
(201,716,o),
(56,565,o),
(56,350,cs),
(56,135,o),
(201,-16,o),
(408,-16,cs)
);
},
{
closed = 1;
nodes = (
(281,97,o),
(194,199,o),
(194,350,cs),
(194,501,o),
(281,603,o),
(408,603,cs),
(535,603,o),
(622,501,o),
(622,350,cs),
(622,199,o),
(535,97,o),
(408,97,cs)
);
}
);
width = 1158;
},
{
anchors = (
{
name = bottom;
pos = (537,0);
},
{
name = top;
pos = (537,700);
}
);
layerId = m007;
shapes = (
{
closed = 1;
nodes = (
(1014,0,l),
(1014,53,l),
(684,53,l),
(684,337,l),
(954,337,l),
(954,390,l),
(684,390,l),
(684,647,l),
(1014,647,l),
(1014,700,l),
(626,700,l),
(626,0,l)
);
},
{
closed = 1;
nodes = (
(569,-16,o),
(674,153,o),
(674,350,cs),
(674,547,o),
(569,716,o),
(372,716,cs),
(188,716,o),
(60,566,o),
(60,350,cs),
(60,134,o),
(188,-16,o),
(372,-16,cs)
);
},
{
closed = 1;
nodes = (
(222,37,o),
(118,165,o),
(118,350,cs),
(118,535,o),
(222,663,o),
(372,663,cs),
(522,663,o),
(626,535,o),
(626,350,cs),
(626,165,o),
(522,37,o),
(372,37,cs)
);
}
);
width = 1057;
},
{
anchors = (
{
name = bottom;
pos = (500,0);
},
{
name = top;
pos = (636,700);
}
);
layerId = m004;
shapes = (
{
closed = 1;
nodes = (
(987,0,l),
(1001,73,l),
(671,73,l),
(721,327,l),
(991,327,l),
(1005,400,l),
(735,400,l),
(779,627,l),
(1109,627,l),
(1123,700,l),
(715,700,l),
(579,0,l)
);
},
{
closed = 1;
nodes = (
(562,-16,o),
(704,156,o),
(704,394,cs),
(704,591,o),
(600,716,o),
(435,716,cs),
(238,716,o),
(77,531,o),
(77,304,cs),
(77,115,o),
(196,-16,o),
(367,-16,cs)
);
},
{
closed = 1;
nodes = (
(236,57,o),
(155,153,o),
(155,300,cs),
(155,488,o),
(285,643,o),
(442,643,cs),
(566,643,o),
(646,548,o),
(646,400,cs),
(646,211,o),
(517,57,o),
(360,57,cs)
);
}
);
width = 1048;
},
{
anchors = (
{
name = bottom;
pos = (530,0);
},
{
name = top;
pos = (666,700);
}
);
layerId = m008;
shapes = (
{
closed = 1;
nodes = (
(1050,0,l),
(1072,113,l),
(742,113,l),
(780,307,l),
(1050,307,l),
(1072,420,l),
(802,420,l),
(834,587,l),
(1164,587,l),
(1186,700,l),
(718,700,l),
(582,0,l)
);
},
{
closed = 1;
nodes = (
(599,-16,o),
(735,146,o),
(735,385,cs),
(735,593,o),
(633,716,o),
(462,716,cs),
(252,716,o),
(76,532,o),
(76,314,cs),
(76,123,o),
(213,-16,o),
(399,-16,cs)
);
},
{
closed = 1;
nodes = (
(289,97,o),
(214,183,o),
(214,311,cs),
(214,472,o),
(325,603,o),
(462,603,cs),
(574,603,o),
(647,518,o),
(647,389,cs),
(647,228,o),
(536,97,o),
(400,97,cs)
);
}
);
width = 1116;
},
{
anchors = (
{
name = bottom;
pos = (493,0);
},
{
name = top;
pos = (629,700);
}
);
layerId = m006;
shapes = (
{
closed = 1;
nodes = (
(972,0,l),
(982,53,l),
(652,53,l),
(707,337,l),
(977,337,l),
(988,390,l),
(718,390,l),
(768,647,l),
(1098,647,l),
(1108,700,l),
(720,700,l),
(584,0,l)
);
},
{
closed = 1;
nodes = (
(554,-16,o),
(697,160,o),
(697,398,cs),
(697,590,o),
(590,716,o),
(426,716,cs),
(233,716,o),
(80,533,o),
(80,301,cs),
(80,112,o),
(193,-16,o),
(361,-16,cs)
);
},
{
closed = 1;
nodes = (
(224,37,o),
(138,140,o),
(138,297,cs),
(138,499,o),
(270,663,o),
(433,663,cs),
(565,663,o),
(649,562,o),
(649,403,cs),
(649,200,o),
(518,37,o),
(355,37,cs)
);
}
);
width = 1030;
}
);
metricLeft = O;
metricRight = E;
unicode = 338;
},
{
glyphname = P;
kernLeft = H;
kernRight = P;
layers = (
{
anchors = (
{
name = bottom;
pos = (315,0);
},
{
name = top;
pos = (315,700);
}
);
layerId = m01;
shapes = (
{
closed = 1;
nodes = (
(190,0,l),
(190,309,l),
(352,309,ls),
(477,309,o),
(563,388,o),
(563,504,cs),
(563,621,o),
(477,700,o),
(352,700,cs),
(112,700,l),
(112,0,l)
);
},
{
closed = 1;
nodes = (
(190,627,l),
(352,627,ls),
(431,627,o),
(485,577,o),
(485,504,cs),
(485,431,o),
(432,382,o),
(352,382,cs),
(190,382,l)
);
}
);
width = 598;
},
{
anchors = (
{
name = bottom;
pos = (350,0);
},
{
name = top;
pos = (350,700);
}
);
layerId = m005;
shapes = (
{
closed = 1;
nodes = (
(250,0,l),
(250,278,l),
(352,278,ls),
(515,278,o),
(623,362,o),
(623,489,cs),
(623,616,o),
(515,700,o),
(352,700,cs),
(112,700,l),
(112,0,l)
);
},
{
closed = 1;
nodes = (
(250,587,l),
(352,587,ls),
(433,587,o),
(485,549,o),
(485,489,cs),
(485,429,o),
(433,391,o),
(352,391,cs),
(250,391,l)
);
}
);
width = 658;
},
{
anchors = (
{
name = bottom;
pos = (303,0);
},
{
name = top;
pos = (303,700);
}
);
layerId = m007;
shapes = (
{
closed = 1;
nodes = (
(170,0,l),
(170,319,l),
(322,319,ls),
(454,319,o),
(543,396,o),
(543,509,cs),
(543,623,o),
(454,700,o),
(322,700,cs),
(112,700,l),
(112,0,l)
);
},
{
closed = 1;
nodes = (
(170,647,l),
(322,647,ls),
(420,647,o),
(485,592,o),
(485,509,cs),
(485,426,o),
(421,372,o),
(322,372,cs),
(170,372,l)
);
}
);
width = 577;
},
{
anchors = (
{
name = bottom;
pos = (199,0);
},
{
name = top;
pos = (335,700);
}
);
layerId = m004;
shapes = (
{
closed = 1;
nodes = (
(75,0,l),
(135,309,l),
(291,309,ls),
(440,309,o),
(543,393,o),
(543,516,cs),
(543,626,o),
(460,700,o),
(339,700,cs),
(133,700,l),
(-3,0,l)
);
},
{
closed = 1;
nodes = (
(197,627,l),
(339,627,ls),
(416,627,o),
(467,581,o),
(467,513,cs),
(467,434,o),
(397,382,o),
(291,382,cs),
(149,382,l)
);
}
);
width = 529;
},
{
anchors = (
{
name = bottom;
pos = (234,0);
},
{
name = top;
pos = (370,700);
}
);
layerId = m008;
shapes = (
{
closed = 1;
nodes = (
(135,0,l),
(189,278,l),
(301,278,ls),
(481,278,o),
(600,365,o),
(600,497,cs),
(600,619,o),
(497,700,o),
(341,700,cs),
(133,700,l),
(-3,0,l)
);
},
{
closed = 1;
nodes = (
(249,587,l),
(341,587,ls),
(418,587,o),
(464,553,o),
(464,497,cs),
(464,432,o),
(401,391,o),
(301,391,cs),
(211,391,l)
);
}
);
width = 590;
},
{
anchors = (
{
name = bottom;
pos = (188,0);
},
{
name = top;
pos = (324,700);
}
);
layerId = m006;
shapes = (
{
closed = 1;
nodes = (
(55,0,l),
(117,319,l),
(279,319,ls),
(423,319,o),
(527,406,o),
(527,526,cs),
(527,630,o),
(448,700,o),
(333,700,cs),
(133,700,l),
(-3,0,l)
);
},
{
closed = 1;
nodes = (
(181,647,l),
(333,647,ls),
(416,647,o),
(471,599,o),
(471,526,cs),
(471,437,o),
(390,372,o),
(279,372,cs),
(127,372,l)
);
}
);
width = 510;
}
);
metricLeft = H;
unicode = 80;
},
{
glyphname = Thorn;
kernLeft = H;
kernRight = o;
layers = (
{
anchors = (
{
name = bottom;
pos = (320,0);
},
{
name = top;
pos = (320,700);
}
);
layerId = m01;
shapes = (
{
closed = 1;
nodes = (
(190,0,l),
(190,155,l),
(352,155,ls),
(477,155,o),
(563,234,o),
(563,350,cs),
(563,467,o),
(477,546,o),
(352,546,cs),
(190,546,l),
(190,700,l),
(112,700,l),
(112,0,l)
);
},
{
closed = 1;
nodes = (
(190,473,l),
(352,473,ls),
(431,473,o),
(485,423,o),
(485,350,cs),
(485,277,o),
(432,228,o),
(352,228,cs),
(190,228,l)
);
}
);
width = 621;
},
{
anchors = (
{
name = bottom;
pos = (354,0);
},
{
name = top;
pos = (354,700);
}
);
layerId = m005;
shapes = (
{
closed = 1;
nodes = (
(250,0,l),
(250,134,l),
(352,134,ls),
(515,134,o),
(623,220,o),
(623,350,cs),
(623,480,o),
(515,566,o),
(352,566,cs),
(250,566,l),
(250,700,l),
(112,700,l),
(112,0,l)
);
},
{
closed = 1;
nodes = (
(250,453,l),
(352,453,ls),
(434,453,o),
(485,414,o),
(485,350,cs),
(485,286,o),
(434,247,o),
(352,247,cs),
(250,247,l)
);
}
);
width = 678;
},
{
anchors = (
{
name = bottom;
pos = (308,0);
},
{
name = top;
pos = (308,700);
}
);
layerId = m007;
shapes = (
{
closed = 1;
nodes = (
(170,0,l),
(170,165,l),
(322,165,ls),
(459,165,o),
(543,235,o),
(543,350,cs),
(543,466,o),
(460,536,o),
(322,536,cs),
(170,536,l),
(170,700,l),
(112,700,l),
(112,0,l)
);
},
{
closed = 1;
nodes = (
(170,483,l),
(322,483,ls),
(428,483,o),
(485,437,o),
(485,350,cs),
(485,263,o),
(429,218,o),
(322,218,cs),
(170,218,l)
);
}
);
width = 600;
},
{
anchors = (
{
name = bottom;
pos = (204,0);
},
{
name = top;
pos = (340,700);
}
);
layerId = m004;
shapes = (
{
closed = 1;
nodes = (
(75,0,l),
(105,154,l),
(261,154,ls),
(410,154,o),
(513,238,o),
(513,361,cs),
(513,471,o),
(430,545,o),
(309,545,cs),
(181,545,l),
(211,700,l),
(133,700,l),
(-3,0,l)
);
},
{
closed = 1;
nodes = (
(167,472,l),
(309,472,ls),
(386,472,o),
(437,426,o),
(437,358,cs),
(437,279,o),
(367,227,o),
(261,227,cs),
(119,227,l)
);
}
);
width = 560;
},
{
anchors = (
{
name = bottom;
pos = (239,0);
},
{
name = top;
pos = (375,700);
}
);
layerId = m008;
shapes = (
{
closed = 1;
nodes = (
(135,0,l),
(161,134,l),
(285,134,ls),
(457,134,o),
(574,225,o),
(574,360,cs),
(574,484,o),
(475,566,o),
(325,566,cs),
(245,566,l),
(271,700,l),
(133,700,l),
(-3,0,l)
);
},
{
closed = 1;
nodes = (
(223,453,l),
(325,453,ls),
(395,453,o),
(438,418,o),
(438,361,cs),
(438,293,o),
(377,247,o),
(285,247,cs),
(183,247,l)
);
}
);
width = 619;
},
{
anchors = (
{
name = bottom;
pos = (193,0);
},
{
name = top;
pos = (329,700);
}
);
layerId = m006;
shapes = (
{
closed = 1;
nodes = (
(55,0,l),
(87,165,l),
(249,165,ls),
(396,165,o),
(495,244,o),
(495,361,cs),
(495,465,o),
(417,536,o),
(301,536,cs),
(159,536,l),
(191,700,l),
(133,700,l),
(-3,0,l)
);
},
{
closed = 1;
nodes = (
(149,483,l),
(301,483,ls),
(384,483,o),
(439,435,o),
(439,361,cs),
(439,275,o),
(363,218,o),
(249,218,cs),
(97,218,l)
);
}
);
width = 540;
}
);
metricLeft = H;
metricRight = B;
unicode = 222;
},
{
glyphname = Q;
kernLeft = O;
kernRight = Q;
layers = (
{
anchors = (
{
name = bottom;
pos = (386,0);
},
{
name = top;
pos = (386,700);
}
);
layerId = m01;
shapes = (
{
closed = 1;
nodes = (
(721,-66,l),
(406,346,l),
(318,346,l),
(633,-66,l)
);
},
{
ref = O;
}
);
width = 774;
},
{
anchors = (
{
name = bottom;
pos = (401,0);
},
{
name = top;
pos = (401,700);
}
);
layerId = m005;
shapes = (
{
closed = 1;
nodes = (
(761,-66,l),
(463,366,l),
(308,366,l),
(606,-66,l)
);
},
{
ref = O;
}
);
width = 811;
},
{
anchors = (
{
name = bottom;
pos = (378,0);
},
{
name = top;
pos = (378,700);
}
);
layerId = m007;
shapes = (
{
closed = 1;
nodes = (
(700,-66,l),
(391,346,l),
(329,346,l),
(638,-66,l)
);
},
{
ref = O;
}
);
width = 754;
},
{
anchors = (
{
name = bottom;
pos = (335,0);
},
{
name = top;
pos = (471,700);
}
);
layerId = m004;
shapes = (
{
closed = 1;
nodes = (
(660,-66,l),
(425,346,l),
(342,346,l),
(577,-66,l)
);
},
{
ref = O;
}
);
width = 774;
},
{
anchors = (
{
name = bottom;
pos = (351,0);
},
{
name = top;
pos = (487,700);
}
);
layerId = m008;
shapes = (
{
closed = 1;
nodes = (
(700,-66,l),
(486,366,l),
(356,366,l),
(570,-66,l)
);
},
{
ref = O;
}
);
width = 822;
},
{
anchors = (
{
name = bottom;
pos = (327,0);
},
{
name = top;
pos = (463,700);
}
);
layerId = m006;
shapes = (
{
closed = 1;
nodes = (
(639,-66,l),
(410,346,l),
(353,346,l),
(582,-66,l)
);
},
{
ref = O;
}
);
width = 754;
}
);
metricLeft = O;
metricRight = "=O*.9";
unicode = 81;
},
{
glyphname = R;
kernLeft = H;
kernRight = R;
layers = (
{
anchors = (
{
name = bottom;
pos = (333,0);
},
{
name = top;
pos = (333,700);
}
);
layerId = m01;
shapes = (
{
closed = 1;
nodes = (
(190,0,l),
(190,309,l),
(333,309,ls),
(419,309,o),
(462,266,o),
(468,174,cs),
(480,0,l),
(558,0,l),
(548,159,ls),
(540,283,o),
(485,347,o),
(387,347,c),
(377,340,l),
(489,340,o),
(563,406,o),
(563,508,cs),
(563,619,o),
(474,700,o),
(352,700,cs),
(112,700,l),
(112,0,l)
);
},
{
closed = 1;
nodes = (
(190,627,l),
(352,627,ls),
(430,627,o),
(485,576,o),
(485,504,cs),
(485,432,o),
(430,382,o),
(352,382,cs),
(190,382,l)
);
}
);
width = 643;
},
{
anchors = (
{
name = bottom;
pos = (365,0);
},
{
name = top;
pos = (365,700);
}
);
layerId = m005;
shapes = (
{
closed = 1;
nodes = (
(250,0,l),
(250,278,l),
(352,278,ls),
(430,278,o),
(466,244,o),
(471,163,cs),
(482,0,l),
(620,0,l),
(612,140,ls),
(605,266,o),
(545,327,o),
(427,327,c),
(427,317,l),
(542,317,o),
(623,392,o),
(623,498,cs),
(623,620,o),
(516,700,o),
(352,700,cs),
(112,700,l),
(112,0,l)
);
},
{
closed = 1;
nodes = (
(250,587,l),
(352,587,ls),
(433,587,o),
(485,549,o),
(485,489,cs),
(485,429,o),
(433,391,o),
(352,391,cs),
(250,391,l)
);
}
);
width = 702;
},
{
anchors = (
{
name = bottom;
pos = (321,0);
},
{
name = top;
pos = (321,700);
}
);
layerId = m007;
shapes = (
{
closed = 1;
nodes = (
(170,0,l),
(170,329,l),
(303,329,ls),
(416,329,o),
(461,287,o),
(468,175,cs),
(479,0,l),
(537,0,l),
(528,168,ls),
(521,291,o),
(466,355,o),
(367,355,c),
(377,350,l),
(474,350,o),
(543,420,o),
(543,517,cs),
(543,627,o),
(455,700,o),
(322,700,cs),
(112,700,l),
(112,0,l)
);
},
{
closed = 1;
nodes = (
(170,647,l),
(322,647,ls),
(419,647,o),
(485,593,o),
(485,514,cs),
(485,435,o),
(419,382,o),
(322,382,cs),
(170,382,l)
);
}
);
width = 624;
},
{
anchors = (
{
name = bottom;
pos = (220,0);
},
{
name = top;
pos = (356,700);
}
);
layerId = m004;
shapes = (
{
closed = 1;
nodes = (
(75,0,l),
(135,309,l),
(278,309,ls),
(362,309,o),
(405,266,o),
(395,194,cs),
(368,0,l),
(448,0,l),
(471,179,ls),
(485,284,o),
(427,347,o),
(318,347,c),
(328,340,l),
(456,340,o),
(544,413,o),
(544,521,cs),
(544,627,o),
(460,700,o),
(339,700,cs),
(133,700,l),
(-3,0,l)
);
},
{
closed = 1;
nodes = (
(197,627,l),
(339,627,ls),
(417,627,o),
(468,582,o),
(468,514,cs),
(468,434,o),
(398,382,o),
(291,382,cs),
(149,382,l)
);
}
);
width = 547;
},
{
anchors = (
{
name = bottom;
pos = (252,0);
},
{
name = top;
pos = (388,700);
}
);
layerId = m008;
shapes = (
{
closed = 1;
nodes = (
(135,0,l),
(189,278,l),
(279,278,ls),
(362,278,o),
(396,239,o),
(386,152,cs),
(369,0,l),
(509,0,l),
(525,162,ls),
(535,266,o),
(475,327,o),
(363,327,c),
(372,317,l),
(507,317,o),
(600,395,o),
(600,508,cs),
(600,624,o),
(502,700,o),
(351,700,cs),
(133,700,l),
(-3,0,l)
);
},
{
closed = 1;
nodes = (
(249,587,l),
(351,587,ls),
(421,587,o),
(464,552,o),
(464,496,cs),
(464,431,o),
(405,391,o),
(311,391,cs),
(211,391,l)
);
}
);
width = 607;
},
{
anchors = (
{
name = bottom;
pos = (209,0);
},
{
name = top;
pos = (345,700);
}
);
layerId = m006;
shapes = (
{
closed = 1;
nodes = (
(55,0,l),
(119,329,l),
(272,329,ls),
(362,329,o),
(408,283,o),
(397,205,cs),
(367,0,l),
(427,0,l),
(454,188,ls),
(469,291,o),
(414,355,o),
(310,355,c),
(330,350,l),
(445,350,o),
(527,425,o),
(526,531,cs),
(525,633,o),
(448,700,o),
(332,700,cs),
(133,700,l),
(-3,0,l)
);
},
{
closed = 1;
nodes = (
(180,647,l),
(332,647,ls),
(415,647,o),
(470,599,o),
(470,525,cs),
(470,439,o),
(394,382,o),
(280,382,cs),
(128,382,l)
);
}
);
width = 527;
}
);
metricLeft = "=H";
unicode = 82;
},
{
glyphname = S;
kernLeft = S;
kernRight = S;
layers = (
{
anchors = (
{
name = bottom;
pos = (306,0);
},
{
name = top;
pos = (306,700);
}
);
layerId = m01;
shapes = (
{
closed = 1;
nodes = (
(450,-16,o),
(552,75,o),
(552,197,cs),
(552,438,o),
(168,361,o),
(168,531,cs),
(168,601,o),
(232,643,o),
(303,643,cs),
(379,643,o),
(442,594,o),
(452,518,c),
(530,528,l),
(520,644,o),
(423,716,o),
(308,716,cs),
(189,716,o),
(90,638,o),
(90,524,cs),
(90,298,o),
(474,370,o),
(474,187,cs),
(474,104,o),
(395,57,o),
(314,57,cs),
(200,57,o),
(129,151,o),
(129,266,c),
(51,256,l),
(51,101,o),
(158,-16,o),
(313,-16,cs)
);
}
);
width = 608;
},
{
anchors = (
{
name = bottom;
pos = (334,0);
},
{
name = top;
pos = (334,700);
}
);
layerId = m005;
shapes = (
{
closed = 1;
nodes = (
(492,-16,o),
(607,76,o),
(607,198,cs),
(607,422,o),
(228,387,o),
(228,524,cs),
(228,573,o),
(276,603,o),
(331,603,cs),
(388,603,o),
(442,570,o),
(451,511,c),
(589,521,l),
(578,649,o),
(457,716,o),
(331,716,cs),
(193,716,o),
(90,636,o),
(90,513,cs),
(90,277,o),
(469,328,o),
(469,185,cs),
(469,126,o),
(405,97,o),
(345,97,cs),
(250,97,o),
(190,169,o),
(190,263,c),
(51,253,l),
(51,91,o),
(175,-16,o),
(339,-16,cs)
);
}
);
width = 662;
},
{
anchors = (
{
name = bottom;
pos = (295,0);
},
{
name = top;
pos = (295,700);
}
);
layerId = m007;
shapes = (
{
closed = 1;
nodes = (
(428,-16,o),
(529,71,o),
(529,185,cs),
(529,412,o),
(145,348,o),
(145,533,cs),
(145,611,o),
(213,663,o),
(293,663,cs),
(373,663,o),
(440,610,o),
(449,529,c),
(507,537,l),
(496,647,o),
(403,716,o),
(293,716,cs),
(179,716,o),
(87,641,o),
(87,531,cs),
(87,307,o),
(471,367,o),
(471,179,cs),
(471,89,o),
(382,37,o),
(297,37,cs),
(178,37,o),
(111,137,o),
(111,255,c),
(53,247,l),
(53,99,o),
(147,-16,o),
(297,-16,cs)
);
}
);
width = 582;
},
{
anchors = (
{
name = bottom;
pos = (238,0);
},
{
name = top;
pos = (374,700);
}
);
layerId = m004;
shapes = (
{
closed = 1;
nodes = (
(424,-16,o),
(525,74,o),
(525,191,cs),
(525,402,o),
(213,376,o),
(213,533,cs),
(213,602,o),
(273,643,o),
(343,643,cs),
(424,643,o),
(486,587,o),
(486,518,c),
(566,528,l),
(566,632,o),
(471,716,o),
(350,716,cs),
(234,716,o),
(136,641,o),
(136,526,cs),
(136,320,o),
(448,353,o),
(448,186,cs),
(448,104,o),
(371,57,o),
(294,57,cs),
(184,57,o),
(110,151,o),
(110,266,c),
(30,256,l),
(30,106,o),
(139,-16,o),
(292,-16,cs)
);
}
);
width = 585;
},
{
anchors = (
{
name = bottom;
pos = (275,0);
},
{
name = top;
pos = (411,700);
}
);
layerId = m008;
shapes = (
{
closed = 1;
nodes = (
(485,-16,o),
(600,76,o),
(600,198,cs),
(600,410,o),
(267,394,o),
(267,521,cs),
(267,573,o),
(323,603,o),
(383,603,cs),
(453,603,o),
(502,562,o),
(502,511,c),
(642,521,l),
(642,629,o),
(533,716,o),
(389,716,cs),
(249,716,o),
(129,636,o),
(129,507,cs),
(129,293,o),
(462,322,o),
(462,189,cs),
(462,131,o),
(399,97,o),
(334,97,cs),
(238,97,o),
(171,171,o),
(171,263,c),
(30,253,l),
(30,105,o),
(157,-16,o),
(331,-16,cs)
);
}
);
width = 657;
},
{
anchors = (
{
name = bottom;
pos = (231,0);
},
{
name = top;
pos = (367,700);
}
);
layerId = m006;
shapes = (
{
closed = 1;
nodes = (
(413,-16,o),
(512,71,o),
(512,185,cs),
(512,396,o),
(192,374,o),
(192,540,cs),
(192,617,o),
(261,663,o),
(339,663,cs),
(429,663,o),
(497,602,o),
(497,527,c),
(556,537,l),
(547,636,o),
(458,716,o),
(342,716,cs),
(235,716,o),
(136,649,o),
(136,539,cs),
(136,340,o),
(456,357,o),
(456,180,cs),
(456,90,o),
(371,37,o),
(285,37,cs),
(167,37,o),
(86,136,o),
(86,257,c),
(27,247,l),
(27,102,o),
(133,-16,o),
(283,-16,cs)
);
}
);
width = 569;
}
);
unicode = 83;
},
{
glyphname = Germandbls;
kernLeft = H;
kernRight = B;
layers = (
{
anchors = (
{
name = bottom;
pos = (367,0);
},
{
name = top;
pos = (367,700);
}
);
layerId = m01;
shapes = (
{
closed = 1;
nodes = (
(400,0,ls),
(551,0,o),
(652,82,o),
(652,205,cs),
(652,328,o),
(551,409,o),
(398,410,c),
(398,364,l),
(584,587,ls),
(598,604,o),
(604,622,o),
(604,638,cs),
(604,672,o),
(577,700,o),
(532,700,cs),
(112,700,l),
(112,0,l),
(190,0,l),
(190,627,l),
(521,627,l),
(350,413,l),
(350,337,l),
(400,337,ls),
(506,337,o),
(574,286,o),
(574,207,cs),
(574,128,o),
(507,78,o),
(400,78,cs),
(320,78,l),
(320,0,l)
);
}
);
width = 716;
},
{
anchors = (
{
name = bottom;
pos = (400,0);
},
{
name = top;
pos = (400,700);
}
);
layerId = m005;
shapes = (
{
closed = 1;
nodes = (
(430,0,ls),
(600,0,o),
(712,82,o),
(712,207,cs),
(712,323,o),
(616,399,o),
(459,406,c),
(469,370,l),
(620,536,ls),
(643,561,o),
(655,590,o),
(655,618,cs),
(655,667,o),
(618,700,o),
(562,700,cs),
(112,700,l),
(112,0,l),
(250,0,l),
(250,587,l),
(512,587,l),
(350,406,l),
(350,306,l),
(430,306,ls),
(521,306,o),
(574,272,o),
(574,213,cs),
(574,153,o),
(521,118,o),
(430,118,cs),
(340,118,l),
(340,0,l)
);
}
);
width = 773;
},
{
anchors = (
{
name = bottom;
pos = (341,0);
},
{
name = top;
pos = (341,700);
}
);
layerId = m007;
shapes = (
{
closed = 1;
nodes = (
(360,0,ls),
(504,0,o),
(602,84,o),
(602,206,cs),
(602,329,o),
(502,410,o),
(348,410,c),
(348,378,l),
(536,603,ls),
(548,617,o),
(554,633,o),
(554,647,cs),
(554,676,o),
(530,700,o),
(492,700,cs),
(112,700,l),
(112,0,l),
(170,0,l),
(170,647,l),
(502,647,l),
(320,419,l),
(320,357,l),
(370,357,ls),
(473,357,o),
(544,297,o),
(544,208,cs),
(544,119,o),
(473,58,o),
(370,58,cs),
(290,58,l),
(290,0,l)
);
}
);
width = 665;
},
{
anchors = (
{
name = bottom;
pos = (252,0);
},
{
name = top;
pos = (388,700);
}
);
layerId = m004;
shapes = (
{
closed = 1;
nodes = (
(300,0,ls),
(465,0,o),
(574,85,o),
(574,212,cs),
(574,328,o),
(483,407,o),
(350,407,c),
(363,373,l),
(583,587,ls),
(602,606,o),
(612,627,o),
(612,647,cs),
(612,678,o),
(588,700,o),
(553,700,cs),
(133,700,l),
(-3,0,l),
(75,0,l),
(197,627,l),
(528,627,l),
(315,413,l),
(300,337,l),
(350,337,ls),
(441,337,o),
(499,289,o),
(499,215,cs),
(499,130,o),
(423,78,o),
(300,78,cs),
(220,78,l),
(205,0,l)
);
}
);
width = 657;
},
{
anchors = (
{
name = bottom;
pos = (284,0);
},
{
name = top;
pos = (420,700);
}
);
layerId = m008;
shapes = (
{
closed = 1;
nodes = (
(355,0,ls),
(523,0,o),
(633,84,o),
(633,211,cs),
(633,332,o),
(533,407,o),
(374,407,c),
(430,374,l),
(609,536,ls),
(639,564,o),
(655,595,o),
(655,626,cs),
(655,670,o),
(622,700,o),
(573,700,cs),
(133,700,l),
(-3,0,l),
(135,0,l),
(249,587,l),
(511,587,l),
(314,406,l),
(294,306,l),
(374,306,ls),
(453,306,o),
(500,272,o),
(500,215,cs),
(500,154,o),
(446,118,o),
(355,118,cs),
(248,118,l),
(225,0,l)
);
}
);
width = 712;
},
{
anchors = (
{
name = bottom;
pos = (225,0);
},
{
name = top;
pos = (361,700);
}
);
layerId = m006;
shapes = (
{
closed = 1;
nodes = (
(266,0,ls),
(418,0,o),
(525,89,o),
(525,216,cs),
(525,333,o),
(434,410,o),
(294,410,c),
(307,378,l),
(538,603,ls),
(554,619,o),
(563,638,o),
(563,656,cs),
(563,683,o),
(544,700,o),
(513,700,cs),
(133,700,l),
(-3,0,l),
(55,0,l),
(181,647,l),
(508,647,l),
(281,419,l),
(269,357,l),
(294,357,ls),
(401,357,o),
(469,303,o),
(469,217,cs),
(469,123,o),
(386,58,o),
(266,58,cs),
(186,58,l),
(175,0,l)
);
}
);
width = 605;
}
);
metricLeft = H;
metricRight = "=B*1.1";
unicode = 7838;
},
{
glyphname = T;
kernLeft = T;
kernRight = T;
layers = (
{
anchors = (
{
name = bottom;
pos = (303,0);
},
{
name = center;
pos = (303,350);
},
{
name = top;
pos = (303,700);
}
);
layerId = m01;
shapes = (
{
closed = 1;
nodes = (
(342,0,l),
(342,627,l),
(592,627,l),
(592,700,l),
(14,700,l),
(14,627,l),
(264,627,l),
(264,0,l)
);
}
);
width = 606;
},
{
anchors = (
{
name = bottom;
pos = (340,0);
},
{
name = center;
pos = (340,350);
},
{
name = top;
pos = (340,700);
}
);
layerId = m005;
shapes = (
{
closed = 1;
nodes = (
(409,0,l),
(409,587,l),
(659,587,l),
(659,700,l),
(21,700,l),
(21,587,l),
(271,587,l),
(271,0,l)
);
}
);
width = 680;
},
{
anchors = (
{
name = bottom;
pos = (290,0);
},
{
name = center;
pos = (290,350);
},
{
name = top;
pos = (290,700);
}
);
layerId = m007;
shapes = (
{
closed = 1;
nodes = (
(319,0,l),
(319,647,l),
(569,647,l),
(569,700,l),
(11,700,l),
(11,647,l),
(261,647,l),
(261,0,l)
);
}
);
width = 580;
},
{
anchors = (
{
name = bottom;
pos = (253,0);
},
{
name = center;
pos = (321,350);
},
{
name = top;
pos = (389,700);
}
);
layerId = m004;
shapes = (
{
closed = 1;
nodes = (
(292,0,l),
(414,627,l),
(664,627,l),
(678,700,l),
(100,700,l),
(86,627,l),
(336,627,l),
(214,0,l)
);
}
);
width = 603;
},
{
anchors = (
{
name = bottom;
pos = (290,0);
},
{
name = center;
pos = (358,350);
},
{
name = top;
pos = (426,700);
}
);
layerId = m008;
shapes = (
{
closed = 1;
nodes = (
(359,0,l),
(473,587,l),
(723,587,l),
(745,700,l),
(107,700,l),
(85,587,l),
(335,587,l),
(221,0,l)
);
}
);
width = 674;
},
{
anchors = (
{
name = bottom;
pos = (240,0);
},
{
name = center;
pos = (308,350);
},
{
name = top;
pos = (376,700);
}
);
layerId = m006;
shapes = (
{
closed = 1;
nodes = (
(269,0,l),
(395,647,l),
(645,647,l),
(655,700,l),
(97,700,l),
(87,647,l),
(337,647,l),
(211,0,l)
);
}
);
width = 577;
}
);
unicode = 84;
},
{
glyphname = Tbar;
kernLeft = T;
kernRight = T;
layers = (
{
layerId = m01;
shapes = (
{
closed = 1;
nodes = (
(479,320,l),
(479,380,l),
(139,380,l),
(139,320,l)
);
},
{
ref = T;
}
);
width = 606;
},
{
layerId = m005;
shapes = (
{
closed = 1;
nodes = (
(515,305,l),
(515,395,l),
(155,395,l),
(155,305,l)
);
},
{
ref = T;
}
);
width = 680;
},
{
layerId = m007;
shapes = (
{
closed = 1;
nodes = (
(461,330,l),
(461,370,l),
(141,370,l),
(141,330,l)
);
},
{
ref = T;
}
);
width = 580;
},
{
layerId = m004;
shapes = (
{
closed = 1;
nodes = (
(498,320,l),
(510,380,l),
(170,380,l),
(158,320,l)
);
},
{
ref = T;
}
);
width = 603;
},
{
layerId = m008;
shapes = (
{
closed = 1;
nodes = (
(525,305,l),
(543,395,l),
(183,395,l),
(165,305,l)
);
},
{
ref = T;
}
);
width = 674;
},
{
layerId = m006;
shapes = (
{
closed = 1;
nodes = (
(485,330,l),
(493,370,l),
(173,370,l),
(165,330,l)
);
},
{
ref = T;
}
);
width = 577;
}
);
metricLeft = T;
metricRight = T;
unicode = 358;
},
{
glyphname = U;
kernLeft = U;
kernRight = U;
layers = (
{
anchors = (
{
name = bottom;
pos = (345,0);
},
{
name = ogonek;
pos = (483,0);
},
{
name = top;
pos = (345,700);
},
{
name = topright;
pos = (642,700);
}
);
layerId = m01;
shapes = (
{
closed = 1;
nodes = (
(497,-16,o),
(592,84,o),
(592,242,cs),
(592,700,l),
(514,700,l),
(514,242,ls),
(514,128,o),
(449,57,o),
(345,57,cs),
(240,57,o),
(175,128,o),
(175,242,cs),
(175,700,l),
(97,700,l),
(97,242,ls),
(97,84,o),
(194,-16,o),
(345,-16,cs)
);
}
);
width = 689;
},
{
anchors = (
{
name = bottom;
pos = (372,0);
},
{
name = ogonek;
pos = (520,0);
},
{
name = top;
pos = (372,700);
},
{
name = topright;
pos = (685,700);
}
);
layerId = m005;
shapes = (
{
closed = 1;
nodes = (
(535,-16,o),
(649,99,o),
(649,262,cs),
(649,700,l),
(511,700,l),
(511,262,ls),
(511,172,o),
(462,97,o),
(372,97,cs),
(282,97,o),
(232,172,o),
(232,262,cs),
(232,700,l),
(94,700,l),
(94,262,ls),
(94,99,o),
(209,-16,o),
(372,-16,cs)
);
}
);
width = 743;
},
{
anchors = (
{
name = bottom;
pos = (335,0);
},
{
name = ogonek;
pos = (463,0);
},
{
name = top;
pos = (335,700);
},
{
name = topright;
pos = (629,700);
}
);
layerId = m007;
shapes = (
{
closed = 1;
nodes = (
(476,-16,o),
(572,88,o),
(572,242,cs),
(572,700,l),
(514,700,l),
(514,242,ls),
(514,120,o),
(442,37,o),
(335,37,cs),
(228,37,o),
(155,120,o),
(155,242,cs),
(155,700,l),
(97,700,l),
(97,242,ls),
(97,89,o),
(194,-16,o),
(335,-16,cs)
);
}
);
width = 669;
},
{
anchors = (
{
name = bottom;
pos = (266,0);
},
{
name = ogonek;
pos = (415,0);
},
{
name = top;
pos = (402,700);
},
{
name = topright;
pos = (699,700);
}
);
layerId = m004;
shapes = (
{
closed = 1;
nodes = (
(422,-16,o),
(529,84,o),
(560,242,cs),
(649,700,l),
(571,700,l),
(482,242,ls),
(460,130,o),
(382,57,o),
(285,57,cs),
(183,57,o),
(123,137,o),
(143,242,cs),
(232,700,l),
(154,700,l),
(65,242,ls),
(37,97,o),
(133,-16,o),
(282,-16,cs)
);
}
);
width = 606;
},
{
anchors = (
{
name = bottom;
pos = (297,0);
},
{
name = ogonek;
pos = (465,0);
},
{
name = top;
pos = (433,700);
},
{
name = topright;
pos = (746,700);
}
);
layerId = m008;
shapes = (
{
closed = 1;
nodes = (
(474,-16,o),
(592,93,o),
(627,272,cs),
(710,700,l),
(571,700,l),
(488,272,ls),
(467,162,o),
(406,97,o),
(324,97,cs),
(237,97,o),
(189,171,o),
(209,272,cs),
(292,700,l),
(155,700,l),
(72,272,ls),
(41,112,o),
(152,-16,o),
(319,-16,cs)
);
}
);
width = 667;
},
{
anchors = (
{
name = bottom;
pos = (257,0);
},
{
name = ogonek;
pos = (399,0);
},
{
name = top;
pos = (393,700);
},
{
name = topright;
pos = (687,700);
}
);
layerId = m006;
shapes = (
{
closed = 1;
nodes = (
(405,-16,o),
(510,83,o),
(541,242,cs),
(630,700,l),
(572,700,l),
(483,242,ls),
(459,117,o),
(376,37,o),
(273,37,cs),
(166,37,o),
(101,124,o),
(124,242,cs),
(213,700,l),
(155,700,l),
(66,242,ls),
(38,97,o),
(128,-16,o),
(271,-16,cs)
);
}
);
width = 587;
}
);
unicode = 85;
},
{
glyphname = V;
kernLeft = V;
kernRight = V;
layers = (
{
anchors = (
{
name = bottom;
pos = (308,0);
},
{
name = top;
pos = (308,700);
}
);
layerId = m01;
shapes = (
{
closed = 1;
nodes = (
(359,0,l),
(592,700,l),
(514,700,l),
(293,36,l),
(322,36,l),
(102,700,l),
(24,700,l),
(257,0,l)
);
}
);
width = 616;
},
{
anchors = (
{
name = bottom;
pos = (336,0);
},
{
name = top;
pos = (336,700);
}
);
layerId = m005;
shapes = (
{
closed = 1;
nodes = (
(411,0,l),
(648,700,l),
(509,700,l),
(285,36,l),
(387,36,l),
(163,700,l),
(24,700,l),
(261,0,l)
);
}
);
width = 671;
},
{
anchors = (
{
name = bottom;
pos = (292,0);
},
{
name = top;
pos = (292,700);
}
);
layerId = m007;
shapes = (
{
closed = 1;
nodes = (
(333,0,l),
(559,700,l),
(502,700,l),
(288,36,l),
(295,36,l),
(82,700,l),
(25,700,l),
(251,0,l)
);
}
);
width = 584;
},
{
anchors = (
{
name = bottom;
pos = (300,0);
},
{
name = top;
pos = (436,700);
}
);
layerId = m004;
shapes = (
{
closed = 1;
nodes = (
(351,0,l),
(720,700,l),
(640,700,l),
(290,36,l),
(316,36,l),
(225,700,l),
(152,700,l),
(249,0,l)
);
}
);
width = 645;
},
{
anchors = (
{
name = bottom;
pos = (326,0);
},
{
name = top;
pos = (462,700);
}
);
layerId = m008;
shapes = (
{
closed = 1;
nodes = (
(401,0,l),
(774,700,l),
(629,700,l),
(276,36,l),
(378,36,l),
(283,700,l),
(150,700,l),
(251,0,l)
);
}
);
width = 699;
},
{
anchors = (
{
name = bottom;
pos = (286,0);
},
{
name = top;
pos = (422,700);
}
);
layerId = m006;
shapes = (
{
closed = 1;
nodes = (
(327,0,l),
(689,700,l),
(627,700,l),
(284,36,l),
(296,36,l),
(212,700,l),
(155,700,l),
(245,0,l)
);
}
);
width = 614;
}
);
unicode = 86;
},
{
glyphname = W;
kernLeft = W;
kernRight = W;
layers = (
{
anchors = (
{
name = bottom;
pos = (428,0);
},
{
name = top;
pos = (428,700);
}
);
layerId = m01;
shapes = (
{
closed = 1;
nodes = (
(310,0,l),
(438,587,l),
(418,587,l),
(546,0,l),
(649,0,l),
(821,700,l),
(748,700,l),
(585,38,l),
(606,38,l),
(462,700,l),
(394,700,l),
(250,38,l),
(271,38,l),
(108,700,l),
(35,700,l),
(207,0,l)
);
}
);
width = 856;
},
{
anchors = (
{
name = bottom;
pos = (479,0);
},
{
name = top;
pos = (479,700);
}
);
layerId = m005;
shapes = (
{
closed = 1;
nodes = (
(367,0,l),
(504,587,l),
(454,587,l),
(591,0,l),
(764,0,l),
(916,700,l),
(784,700,l),
(641,38,l),
(692,38,l),
(539,700,l),
(419,700,l),
(266,38,l),
(317,38,l),
(174,700,l),
(41,700,l),
(193,0,l)
);
}
);
width = 956;
},
{
anchors = (
{
name = bottom;
pos = (407,0);
},
{
name = top;
pos = (407,700);
}
);
layerId = m007;
shapes = (
{
closed = 1;
nodes = (
(273,0,l),
(407,587,l),
(406,587,l),
(540,0,l),
(609,0,l),
(776,700,l),
(723,700,l),
(569,38,l),
(586,38,l),
(436,700,l),
(377,700,l),
(227,38,l),
(248,38,l),
(90,700,l),
(37,700,l),
(204,0,l)
);
}
);
width = 812;
},
{
anchors = (
{
name = bottom;
pos = (439,0);
},
{
name = top;
pos = (575,700);
}
);
layerId = m004;
shapes = (
{
closed = 1;
nodes = (
(321,0,l),
(563,587,l),
(543,587,l),
(557,0,l),
(660,0,l),
(968,700,l),
(892,700,l),
(600,38,l),
(620,38,l),
(605,700,l),
(537,700,l),
(264,38,l),
(286,38,l),
(252,700,l),
(182,700,l),
(218,0,l)
);
}
);
width = 897;
},
{
anchors = (
{
name = bottom;
pos = (493,0);
},
{
name = top;
pos = (629,700);
}
);
layerId = m008;
shapes = (
{
closed = 1;
nodes = (
(376,0,l),
(627,587,l),
(577,587,l),
(600,0,l),
(778,0,l),
(1066,700,l),
(929,700,l),
(657,38,l),
(708,38,l),
(684,700,l),
(564,700,l),
(282,38,l),
(333,38,l),
(319,700,l),
(191,700,l),
(207,0,l)
);
}
);
width = 997;
},
{
anchors = (
{
name = bottom;
pos = (418,0);
},
{
name = top;
pos = (554,700);
}
);
layerId = m006;
shapes = (
{
closed = 1;
nodes = (
(284,0,l),
(532,587,l),
(531,587,l),
(551,0,l),
(620,0,l),
(923,700,l),
(863,700,l),
(580,38,l),
(603,38,l),
(582,700,l),
(524,700,l),
(245,38,l),
(269,38,l),
(240,700,l),
(184,700,l),
(215,0,l)
);
}
);
width = 852;
}
);
unicode = 87;
},
{
glyphname = X;
kernLeft = X;
kernRight = X;
layers = (
{
anchors = (
{
name = bottom;
pos = (305,0);
},
{
name = top;
pos = (305,700);
}
);
layerId = m01;
shapes = (
{
closed = 1;
nodes = (
(583,0,l),
(112,700,l),
(26,700,l),
(497,0,l)
);
},
{
closed = 1;
nodes = (
(112,0,l),
(583,700,l),
(497,700,l),
(26,0,l)
);
}
);
width = 609;
},
{
anchors = (
{
name = bottom;
pos = (346,0);
},
{
name = top;
pos = (346,700);
}
);
layerId = m005;
shapes = (
{
closed = 1;
nodes = (
(667,0,l),
(179,700,l),
(25,700,l),
(513,0,l)
);
},
{
closed = 1;
nodes = (
(179,0,l),
(667,700,l),
(513,700,l),
(25,0,l)
);
}
);
width = 692;
},
{
anchors = (
{
name = bottom;
pos = (287,0);
},
{
name = top;
pos = (287,700);
}
);
layerId = m007;
shapes = (
{
closed = 1;
nodes = (
(546,0,l),
(89,700,l),
(27,700,l),
(484,0,l)
);
},
{
closed = 1;
nodes = (
(89,0,l),
(546,700,l),
(484,700,l),
(27,0,l)
);
}
);
width = 573;
},
{
anchors = (
{
name = bottom;
pos = (239,0);
},
{
name = top;
pos = (375,700);
}
);
layerId = m004;
shapes = (
{
closed = 1;
nodes = (
(512,0,l),
(177,700,l),
(97,700,l),
(432,0,l)
);
},
{
closed = 1;
nodes = (
(51,0,l),
(658,700,l),
(562,700,l),
(-45,0,l)
);
}
);
width = 575;
},
{
anchors = (
{
name = bottom;
pos = (281,0);
},
{
name = top;
pos = (417,700);
}
);
layerId = m008;
shapes = (
{
closed = 1;
nodes = (
(597,0,l),
(245,700,l),
(97,700,l),
(449,0,l)
);
},
{
closed = 1;
nodes = (
(119,0,l),
(743,700,l),
(579,700,l),
(-45,0,l)
);
}
);
width = 660;
},
{
anchors = (
{
name = bottom;
pos = (218,0);
},
{
name = top;
pos = (354,700);
}
);
layerId = m006;
shapes = (
{
closed = 1;
nodes = (
(480,0,l),
(159,700,l),
(100,700,l),
(421,0,l)
);
},
{
closed = 1;
nodes = (
(23,0,l),
(616,700,l),
(549,700,l),
(-44,0,l)
);
}
);
width = 534;
}
);
unicode = 88;
},
{
glyphname = Y;
kernLeft = Y;
kernRight = Y;
layers = (
{
anchors = (
{
name = bottom;
pos = (271,0);
},
{
name = top;
pos = (271,700);
},
{
name = topleft;
pos = (12,700);
}
);
layerId = m01;
shapes = (
{
closed = 1;
nodes = (
(224,0,l),
(529,700,l),
(447,700,l),
(142,0,l)
);
},
{
closed = 1;
nodes = (
(297,246,l),
(99,700,l),
(17,700,l),
(250,165,l)
);
}
);
width = 545;
},
{
anchors = (
{
name = bottom;
pos = (308,0);
},
{
name = top;
pos = (308,700);
},
{
name = topleft;
pos = (16,700);
}
);
layerId = m005;
shapes = (
{
closed = 1;
nodes = (
(281,0,l),
(604,700,l),
(461,700,l),
(138,0,l)
);
},
{
closed = 1;
nodes = (
(367,245,l),
(160,700,l),
(16,700,l),
(285,104,l)
);
}
);
width = 619;
},
{
anchors = (
{
name = bottom;
pos = (254,0);
},
{
name = top;
pos = (254,700);
},
{
name = topleft;
pos = (9,700);
}
);
layerId = m007;
shapes = (
{
closed = 1;
nodes = (
(200,0,l),
(497,700,l),
(439,700,l),
(142,0,l)
);
},
{
closed = 1;
nodes = (
(269,247,l),
(75,700,l),
(17,700,l),
(236,187,l)
);
}
);
width = 514;
},
{
anchors = (
{
name = bottom;
pos = (250,0);
},
{
name = top;
pos = (386,700);
},
{
name = topleft;
pos = (127,700);
}
);
layerId = m004;
shapes = (
{
closed = 1;
nodes = (
(203,0,l),
(644,700,l),
(558,700,l),
(117,0,l)
);
},
{
closed = 1;
nodes = (
(320,246,l),
(210,700,l),
(132,700,l),
(261,165,l)
);
}
);
width = 566;
},
{
anchors = (
{
name = bottom;
pos = (275,0);
},
{
name = top;
pos = (411,700);
},
{
name = topleft;
pos = (121,700);
}
);
layerId = m008;
shapes = (
{
closed = 1;
nodes = (
(245,0,l),
(704,700,l),
(551,700,l),
(92,0,l)
);
},
{
closed = 1;
nodes = (
(369,245,l),
(250,700,l),
(121,700,l),
(274,104,l)
);
}
);
width = 625;
},
{
anchors = (
{
name = bottom;
pos = (239,0);
},
{
name = top;
pos = (375,700);
},
{
name = topleft;
pos = (128,700);
}
);
layerId = m006;
shapes = (
{
closed = 1;
nodes = (
(187,0,l),
(620,700,l),
(558,700,l),
(125,0,l)
);
},
{
closed = 1;
nodes = (
(294,247,l),
(188,700,l),
(136,700,l),
(255,187,l)
);
}
);
width = 542;
}
);
unicode = 89;
},
{
glyphname = Z;
kernLeft = Z;
kernRight = Z;
layers = (
{
anchors = (
{
name = bottom;
pos = (266,0);
},
{
name = center;
pos = (266,350);
},
{
name = top;
pos = (266,700);
}
);
layerId = m01;
shapes = (
{
closed = 1;
nodes = (
(486,0,l),
(486,73,l),
(104,73,l),
(104,35,l),
(486,627,l),
(486,700,l),
(46,700,l),
(46,627,l),
(428,627,l),
(428,665,l),
(46,73,l),
(46,0,l)
);
}
);
width = 532;
},
{
anchors = (
{
name = bottom;
pos = (302,0);
},
{
name = center;
pos = (302,350);
},
{
name = top;
pos = (302,700);
}
);
layerId = m005;
shapes = (
{
closed = 1;
nodes = (
(547,0,l),
(547,113,l),
(177,113,l),
(177,76,l),
(547,587,l),
(547,700,l),
(57,700,l),
(57,587,l),
(427,587,l),
(427,624,l),
(57,113,l),
(57,0,l)
);
}
);
width = 604;
},
{
anchors = (
{
name = bottom;
pos = (255,0);
},
{
name = center;
pos = (255,350);
},
{
name = top;
pos = (255,700);
}
);
layerId = m007;
shapes = (
{
closed = 1;
nodes = (
(470,0,l),
(470,53,l),
(75,53,l),
(75,15,l),
(470,647,l),
(470,700,l),
(40,700,l),
(40,647,l),
(435,647,l),
(435,685,l),
(40,53,l),
(40,0,l)
);
}
);
width = 510;
},
{
anchors = (
{
name = bottom;
pos = (186,0);
},
{
name = center;
pos = (254,350);
},
{
name = top;
pos = (322,700);
}
);
layerId = m004;
shapes = (
{
closed = 1;
nodes = (
(406,0,l),
(420,73,l),
(39,73,l),
(39,38,l),
(528,627,l),
(542,700,l),
(102,700,l),
(88,627,l),
(469,627,l),
(469,662,l),
(-20,73,l),
(-34,0,l)
);
}
);
width = 469;
},
{
anchors = (
{
name = bottom;
pos = (215,0);
},
{
name = center;
pos = (283,350);
},
{
name = top;
pos = (351,700);
}
);
layerId = m008;
shapes = (
{
closed = 1;
nodes = (
(460,0,l),
(482,113,l),
(112,113,l),
(112,80,l),
(574,587,l),
(596,700,l),
(106,700,l),
(84,587,l),
(454,587,l),
(454,620,l),
(-8,113,l),
(-30,0,l)
);
}
);
width = 527;
},
{
anchors = (
{
name = bottom;
pos = (179,0);
},
{
name = center;
pos = (247,350);
},
{
name = top;
pos = (315,700);
}
);
layerId = m006;
shapes = (
{
closed = 1;
nodes = (
(394,0,l),
(404,53,l),
(9,53,l),
(9,18,l),
(520,647,l),
(530,700,l),
(100,700,l),
(90,647,l),
(485,647,l),
(485,682,l),
(-26,53,l),
(-36,0,l)
);
}
);
width = 455;
}
);
unicode = 90;
},
{
glyphname = R.ss01;
layers = (
{
anchors = (
{
name = bottom;
pos = (327,0);
},
{
name = top;
pos = (327,700);
}
);
layerId = m01;
shapes = (
{
closed = 1;
nodes = (
(190,0,l),
(190,309,l),
(352,309,ls),
(477,309,o),
(563,388,o),
(563,504,cs),
(563,621,o),
(477,700,o),
(352,700,cs),
(112,700,l),
(112,0,l)
);
},
{
closed = 1;
nodes = (
(577,0,l),
(393,350,l),
(309,343,l),
(488,0,l)
);
},
{
closed = 1;
nodes = (
(190,627,l),
(352,627,ls),
(431,627,o),
(485,577,o),
(485,504,cs),
(485,431,o),
(432,382,o),
(352,382,cs),
(190,382,l)
);
}
);
width = 633;
},
{
anchors = (
{
name = bottom;
pos = (359,0);
},
{
name = top;
pos = (359,700);
}
);
layerId = m005;
shapes = (
{
closed = 1;
nodes = (
(250,0,l),
(250,278,l),
(352,278,ls),
(515,278,o),
(623,362,o),
(623,489,cs),
(623,616,o),
(515,700,o),
(352,700,cs),
(112,700,l),
(112,0,l)
);
},
{
closed = 1;
nodes = (
(634,0,l),
(428,372,l),
(282,359,l),
(480,0,l)
);
},
{
closed = 1;
nodes = (
(250,587,l),
(352,587,ls),
(433,587,o),
(485,549,o),
(485,489,cs),
(485,429,o),
(433,391,o),
(352,391,cs),
(250,391,l)
);
}
);
width = 689;
},
{
anchors = (
{
name = bottom;
pos = (311,0);
},
{
name = top;
pos = (311,700);
}
);
layerId = m007;
shapes = (
{
closed = 1;
nodes = (
(170,0,l),
(170,319,l),
(322,319,ls),
(454,319,o),
(543,396,o),
(543,509,cs),
(543,623,o),
(454,700,o),
(322,700,cs),
(112,700,l),
(112,0,l)
);
},
{
closed = 1;
nodes = (
(550,0,l),
(377,349,l),
(313,344,l),
(482,0,l)
);
},
{
closed = 1;
nodes = (
(170,647,l),
(322,647,ls),
(420,647,o),
(485,592,o),
(485,509,cs),
(485,426,o),
(421,372,o),
(322,372,cs),
(170,372,l)
);
}
);
width = 607;
},
{
anchors = (
{
name = bottom;
pos = (212,0);
},
{
name = top;
pos = (348,700);
}
);
layerId = m004;
shapes = (
{
closed = 1;
nodes = (
(75,0,l),
(135,309,l),
(291,309,ls),
(440,309,o),
(543,393,o),
(543,516,cs),
(543,626,o),
(460,700,o),
(339,700,cs),
(133,700,l),
(-3,0,l)
);
},
{
closed = 1;
nodes = (
(462,0,l),
(346,350,l),
(269,343,l),
(381,0,l)
);
},
{
closed = 1;
nodes = (
(197,627,l),
(339,627,ls),
(416,627,o),
(467,581,o),
(467,513,cs),
(467,434,o),
(397,382,o),
(291,382,cs),
(149,382,l)
);
}
);
width = 546;
},
{
anchors = (
{
name = bottom;
pos = (244,0);
},
{
name = top;
pos = (380,700);
}
);
layerId = m008;
shapes = (
{
closed = 1;
nodes = (
(135,0,l),
(189,278,l),
(301,278,ls),
(481,278,o),
(600,365,o),
(600,497,cs),
(600,619,o),
(497,700,o),
(341,700,cs),
(133,700,l),
(-3,0,l)
);
},
{
closed = 1;
nodes = (
(519,0,l),
(385,372,l),
(247,359,l),
(375,0,l)
);
},
{
closed = 1;
nodes = (
(249,587,l),
(341,587,ls),
(418,587,o),
(464,553,o),
(464,497,cs),
(464,432,o),
(401,391,o),
(301,391,cs),
(211,391,l)
);
}
);
width = 602;
},
{
anchors = (
{
name = bottom;
pos = (196,0);
},
{
name = top;
pos = (332,700);
}
);
layerId = m006;
shapes = (
{
closed = 1;
nodes = (
(55,0,l),
(117,319,l),
(279,319,ls),
(423,319,o),
(527,406,o),
(527,526,cs),
(527,630,o),
(448,700,o),
(333,700,cs),
(133,700,l),
(-3,0,l)
);
},
{
closed = 1;
nodes = (
(435,0,l),
(330,349,l),
(270,344,l),
(372,0,l)
);
},
{
closed = 1;
nodes = (
(181,647,l),
(333,647,ls),
(416,647,o),
(471,599,o),
(471,526,cs),
(471,437,o),
(390,372,o),
(279,372,cs),
(127,372,l)
);
}
);
width = 520;
}
);
metricLeft = R;
metricRight = "=R*.7";
},
{
glyphname = Y.ss02;
layers = (
{
anchors = (
{
name = bottom;
pos = (330,0);
},
{
name = top;
pos = (330,700);
},
{
name = topleft;
pos = (41,700);
}
);
layerId = m01;
shapes = (
{
closed = 1;
nodes = (
(367,276,l),
(624,700,l),
(536,700,l),
(307,322,l),
(353,322,l),
(124,700,l),
(36,700,l),
(293,276,l)
);
},
{
closed = 1;
nodes = (
(369,0,l),
(369,317,l),
(291,317,l),
(291,0,l)
);
}
);
width = 660;
},
{
anchors = (
{
name = bottom;
pos = (374,0);
},
{
name = top;
pos = (374,700);
},
{
name = topleft;
pos = (44,700);
}
);
layerId = m005;
shapes = (
{
closed = 1;
nodes = (
(425,257,l),
(712,700,l),
(560,700,l),
(349,377,l),
(399,377,l),
(188,700,l),
(36,700,l),
(323,257,l)
);
},
{
closed = 1;
nodes = (
(443,0,l),
(443,337,l),
(305,337,l),
(305,0,l)
);
}
);
width = 747;
},
{
anchors = (
{
name = bottom;
pos = (314,0);
},
{
name = top;
pos = (314,700);
},
{
name = topleft;
pos = (41,700);
}
);
layerId = m007;
shapes = (
{
closed = 1;
nodes = (
(330,260,l),
(590,700,l),
(526,700,l),
(291,302,l),
(337,302,l),
(102,700,l),
(38,700,l),
(298,260,l)
);
},
{
closed = 1;
nodes = (
(343,0,l),
(343,324,l),
(285,324,l),
(285,0,l)
);
}
);
width = 628;
},
{
anchors = (
{
name = bottom;
pos = (343,0);
},
{
name = top;
pos = (479,700);
},
{
name = topleft;
pos = (190,700);
}
);
layerId = m004;
shapes = (
{
closed = 1;
nodes = (
(427,266,l),
(773,700,l),
(677,700,l),
(377,325,l),
(419,325,l),
(265,700,l),
(185,700,l),
(363,267,l)
);
},
{
closed = 1;
nodes = (
(382,0,l),
(444,317,l),
(366,317,l),
(304,0,l)
);
}
);
width = 704;
},
{
anchors = (
{
name = bottom;
pos = (384,0);
},
{
name = top;
pos = (520,700);
},
{
name = topleft;
pos = (190,700);
}
);
layerId = m008;
shapes = (
{
closed = 1;
nodes = (
(485,257,l),
(858,700,l),
(692,700,l),
(422,381,l),
(467,381,l),
(320,700,l),
(182,700,l),
(383,257,l)
);
},
{
closed = 1;
nodes = (
(453,0,l),
(518,337,l),
(380,337,l),
(315,0,l)
);
}
);
width = 789;
},
{
anchors = (
{
name = bottom;
pos = (329,0);
},
{
name = top;
pos = (465,700);
},
{
name = topleft;
pos = (192,700);
}
);
layerId = m006;
shapes = (
{
closed = 1;
nodes = (
(396,260,l),
(741,700,l),
(675,700,l),
(363,303,l),
(405,303,l),
(247,700,l),
(189,700,l),
(364,260,l)
);
},
{
closed = 1;
nodes = (
(358,0,l),
(421,324,l),
(363,324,l),
(300,0,l)
);
}
);
width = 672;
}
);
metricLeft = "=V*1.5";
metricRight = "=V*1.5";
},
{
glyphname = Oslash.ss03;
layers = (
{
anchors = (
{
name = bottom;
pos = (407,0);
},
{
name = top;
pos = (407,700);
}
);
layerId = m01;
shapes = (
{
closed = 1;
nodes = (
(123,0,l),
(778,700,l),
(690,700,l),
(35,0,l)
);
},
{
pos = (30,0);
ref = O;
}
);
width = 813;
},
{
anchors = (
{
name = bottom;
pos = (432,0);
},
{
name = top;
pos = (432,700);
}
);
layerId = m005;
shapes = (
{
closed = 1;
nodes = (
(163,0,l),
(829,700,l),
(700,700,l),
(34,0,l)
);
},
{
pos = (35,0);
ref = O;
}
);
width = 863;
},
{
anchors = (
{
name = bottom;
pos = (385,0);
},
{
name = top;
pos = (385,700);
}
);
layerId = m007;
shapes = (
{
closed = 1;
nodes = (
(97,0,l),
(733,700,l),
(672,700,l),
(36,0,l)
);
},
{
pos = (11,0);
ref = O;
}
);
width = 769;
},
{
anchors = (
{
name = bottom;
pos = (360,0);
},
{
name = top;
pos = (496,700);
}
);
layerId = m004;
shapes = (
{
closed = 1;
nodes = (
(78,0,l),
(869,700,l),
(777,700,l),
(-14,0,l)
);
},
{
pos = (30,0);
ref = O;
}
);
width = 817;
},
{
anchors = (
{
name = bottom;
pos = (368,0);
},
{
name = top;
pos = (504,700);
}
);
layerId = m008;
shapes = (
{
closed = 1;
nodes = (
(124,0,l),
(886,700,l),
(747,700,l),
(-15,0,l)
);
},
{
pos = (17,0);
ref = O;
}
);
width = 833;
},
{
anchors = (
{
name = bottom;
pos = (336,0);
},
{
name = top;
pos = (472,700);
}
);
layerId = m006;
shapes = (
{
closed = 1;
nodes = (
(53,0,l),
(820,700,l),
(754,700,l),
(-13,0,l)
);
},
{
pos = (10,0);
ref = O;
}
);
width = 769;
}
);
metricLeft = "=O*.6";
metricRight = "=O*.6";
},
{
glyphname = Q.ss03;
kernLeft = O;
kernRight = O;
layers = (
{
anchors = (
{
name = bottom;
pos = (381,0);
},
{
name = top;
pos = (381,700);
}
);
layerId = m01;
shapes = (
{
closed = 1;
nodes = (
(717,0,l),
(416,346,l),
(328,346,l),
(629,0,l)
);
},
{
ref = O;
}
);
width = 765;
},
{
anchors = (
{
name = bottom;
pos = (399,0);
},
{
name = top;
pos = (399,700);
}
);
layerId = m005;
shapes = (
{
closed = 1;
nodes = (
(761,0,l),
(473,346,l),
(318,346,l),
(606,0,l)
);
},
{
ref = O;
}
);
width = 806;
},
{
anchors = (
{
name = bottom;
pos = (368,0);
},
{
name = top;
pos = (368,700);
}
);
layerId = m007;
shapes = (
{
closed = 1;
nodes = (
(685,0,l),
(401,346,l),
(340,346,l),
(624,0,l)
);
},
{
ref = O;
}
);
width = 734;
},
{
anchors = (
{
name = bottom;
pos = (336,0);
},
{
name = top;
pos = (472,700);
}
);
layerId = m004;
shapes = (
{
closed = 1;
nodes = (
(679,0,l),
(445,346,l),
(357,346,l),
(591,0,l)
);
},
{
ref = O;
}
);
width = 776;
},
{
anchors = (
{
name = bottom;
pos = (353,0);
},
{
name = top;
pos = (489,700);
}
);
layerId = m008;
shapes = (
{
closed = 1;
nodes = (
(721,0,l),
(500,346,l),
(355,346,l),
(576,0,l)
);
},
{
ref = O;
}
);
width = 817;
},
{
anchors = (
{
name = bottom;
pos = (323,0);
},
{
name = top;
pos = (459,700);
}
);
layerId = m006;
shapes = (
{
closed = 1;
nodes = (
(647,0,l),
(430,346,l),
(369,346,l),
(586,0,l)
);
},
{
ref = O;
}
);
width = 745;
}
);
metricLeft = Q;
metricRight = "=Q*.9";
},
{
glyphname = a;
kernLeft = a;
kernRight = a;
layers = (
{
anchors = (
{
name = bottom;
pos = (264,0);
},
{
name = ogonek;
pos = (503,0);
},
{
name = top;
pos = (274,500);
}
);
layerId = m01;
shapes = (
{
closed = 1;
nodes = (
(324,-16,o),
(397,64,o),
(397,180,c),
(387,140,l),
(387,0,l),
(462,0,l),
(462,331,ls),
(462,449,o),
(397,516,o),
(280,516,cs),
(157,516,o),
(64,444,o),
(64,348,c),
(137,338,l),
(137,402,o),
(189,443,o),
(270,443,cs),
(337,443,o),
(381,418,o),
(384,377,cs),
(387,337,o),
(351,315,o),
(270,307,cs),
(130,295,o),
(51,235,o),
(51,141,cs),
(51,51,o),
(123,-16,o),
(219,-16,cs)
);
},
{
closed = 1;
nodes = (
(172,57,o),
(129,93,o),
(129,145,cs),
(129,201,o),
(180,235,o),
(275,243,cs),
(360,250,o),
(402,277,o),
(402,326,c),
(387,313,l),
(387,243,ls),
(387,133,o),
(324,57,o),
(234,57,cs)
);
}
);
width = 541;
},
{
anchors = (
{
name = bottom;
pos = (291,0);
},
{
name = ogonek;
pos = (569,0);
},
{
name = top;
pos = (301,500);
}
);
layerId = m005;
shapes = (
{
closed = 1;
nodes = (
(333,-16,o),
(406,62,o),
(406,180,c),
(386,141,l),
(386,0,l),
(521,0,l),
(521,326,ls),
(521,442,o),
(432,516,o),
(294,516,cs),
(158,516,o),
(64,445,o),
(64,342,c),
(198,332,l),
(198,374,o),
(241,403,o),
(307,403,cs),
(355,403,o),
(382,386,o),
(384,354,cs),
(386,318,o),
(369,310,o),
(265,297,cs),
(122,280,o),
(50,227,o),
(50,136,cs),
(50,47,o),
(121,-16,o),
(222,-16,cs)
);
},
{
closed = 1;
nodes = (
(217,97,o),
(188,116,o),
(188,149,cs),
(188,182,o),
(214,202,o),
(274,210,cs),
(347,219,o),
(401,251,o),
(401,298,c),
(386,318,l),
(386,273,ls),
(386,167,o),
(337,97,o),
(258,97,cs)
);
}
);
width = 599;
},
{
anchors = (
{
name = bottom;
pos = (256,0);
},
{
name = ogonek;
pos = (480,0);
},
{
name = top;
pos = (266,500);
}
);
layerId = m007;
shapes = (
{
closed = 1;
nodes = (
(315,-16,o),
(397,69,o),
(397,180,c),
(387,129,l),
(387,0,l),
(442,0,l),
(442,341,ls),
(442,457,o),
(383,516,o),
(269,516,cs),
(151,516,o),
(68,452,o),
(64,357,c),
(117,349,l),
(123,418,o),
(184,463,o),
(270,463,cs),
(338,463,o),
(378,435,o),
(384,382,cs),
(390,327,o),
(353,301,o),
(262,297,cs),
(127,291,o),
(51,234,o),
(51,138,cs),
(51,48,o),
(117,-16,o),
(209,-16,cs)
);
},
{
closed = 1;
nodes = (
(156,37,o),
(109,81,o),
(109,140,cs),
(109,206,o),
(169,247,o),
(269,250,cs),
(355,253,o),
(402,284,o),
(402,339,c),
(387,299,l),
(387,233,ls),
(387,126,o),
(311,37,o),
(220,37,cs)
);
}
);
width = 520;
},
{
anchors = (
{
name = bottom;
pos = (199,0);
},
{
name = ogonek;
pos = (437,0);
},
{
name = top;
pos = (307,500);
}
);
layerId = m004;
shapes = (
{
closed = 1;
nodes = (
(268,-16,o),
(348,61,o),
(371,180,c),
(348,140,l),
(321,0,l),
(396,0,l),
(462,338,ls),
(482,439,o),
(406,516,o),
(289,516,cs),
(180,516,o),
(92,449,o),
(66,348,c),
(137,338,l),
(153,406,o),
(207,443,o),
(289,443,cs),
(353,443,o),
(390,420,o),
(391,378,cs),
(393,334,o),
(347,310,o),
(254,307,cs),
(102,303,o),
(15,239,o),
(15,132,cs),
(15,43,o),
(76,-16,o),
(166,-16,cs)
);
},
{
closed = 1;
nodes = (
(131,57,o),
(92,89,o),
(92,139,cs),
(92,203,o),
(152,241,o),
(258,245,cs),
(346,248,o),
(394,275,o),
(404,326,c),
(382,313,l),
(368,243,ls),
(345,126,o),
(279,57,o),
(192,57,cs)
);
}
);
width = 505;
},
{
anchors = (
{
name = bottom;
pos = (229,0);
},
{
name = ogonek;
pos = (509,0);
},
{
name = top;
pos = (337,500);
}
);
layerId = m008;
shapes = (
{
closed = 1;
nodes = (
(286,-16,o),
(349,45,o),
(376,180,c),
(352,141,l),
(325,0,l),
(460,0,l),
(516,291,ls),
(540,415,o),
(448,516,o),
(303,516,cs),
(193,516,o),
(82,458,o),
(58,342,c),
(190,332,l),
(200,386,o),
(253,403,o),
(307,403,cs),
(361,403,o),
(391,385,o),
(391,351,cs),
(391,318,o),
(366,304,o),
(298,301,cs),
(155,293,o),
(16,261,o),
(16,132,cs),
(16,38,o),
(88,-16,o),
(184,-16,cs)
);
},
{
closed = 1;
nodes = (
(181,97,o),
(157,116,o),
(157,146,cs),
(157,181,o),
(187,198,o),
(270,212,cs),
(354,225,o),
(382,244,o),
(392,293,c),
(384,303,l),
(376,263,ls),
(356,164,o),
(293,97,o),
(220,97,cs)
);
}
);
width = 567;
},
{
anchors = (
{
name = bottom;
pos = (189,0);
},
{
name = ogonek;
pos = (415,0);
},
{
name = top;
pos = (297,500);
}
);
layerId = m006;
shapes = (
{
closed = 1;
nodes = (
(263,-16,o),
(340,60,o),
(365,180,c),
(345,129,l),
(320,0,l),
(375,0,l),
(441,339,ls),
(461,441,o),
(392,516,o),
(278,516,cs),
(173,516,o),
(89,453,o),
(66,357,c),
(118,347,l),
(136,418,o),
(199,463,o),
(280,463,cs),
(348,463,o),
(392,431,o),
(392,382,cs),
(392,327,o),
(349,301,o),
(252,297,cs),
(101,291,o),
(13,230,o),
(13,132,cs),
(13,46,o),
(78,-16,o),
(166,-16,cs)
);
},
{
closed = 1;
nodes = (
(112,37,o),
(70,75,o),
(70,131,cs),
(70,202,o),
(136,246,o),
(248,250,cs),
(340,253,o),
(390,283,o),
(397,339,c),
(378,299,l),
(365,233,ls),
(342,115,o),
(266,37,o),
(174,37,cs)
);
}
);
width = 483;
}
);
metricRight = "=m";
unicode = 97;
},
{
glyphname = ae;
kernLeft = a;
kernRight = o;
layers = (
{
anchors = (
{
name = bottom;
pos = (443,0);
},
{
name = top;
pos = (443,500);
}
);
layerId = m01;
shapes = (
{
closed = 1;
nodes = (
(732,-16,o),
(816,47,o),
(836,144,c),
(758,154,l),
(744,95,o),
(692,57,o),
(623,57,cs),
(530,57,o),
(466,127,o),
(466,230,c),
(839,230,l),
(839,248,ls),
(839,408,o),
(749,516,o),
(615,516,cs),
(481,516,o),
(388,407,o),
(388,251,cs),
(388,92,o),
(484,-16,o),
(625,-16,cs)
);
},
{
closed = 1;
nodes = (
(466,384,o),
(526,443,o),
(613,443,cs),
(700,443,o),
(761,384,o),
(761,298,c),
(466,298,l)
);
},
{
closed = 1;
nodes = (
(343,-16,o),
(427,67,o),
(427,180,c),
(462,331,l),
(462,456,o),
(403,516,o),
(280,516,cs),
(150,516,o),
(64,449,o),
(64,348,c),
(137,338,l),
(137,402,o),
(191,443,o),
(276,443,cs),
(337,443,o),
(375,422,o),
(383,383,cs),
(393,337,o),
(353,311,o),
(268,307,cs),
(134,301,o),
(51,237,o),
(51,141,cs),
(51,50,o),
(126,-16,o),
(228,-16,cs)
);
},
{
closed = 1;
nodes = (
(172,57,o),
(129,93,o),
(129,145,cs),
(129,203,o),
(184,240,o),
(275,243,cs),
(357,246,o),
(402,276,o),
(402,326,c),
(387,313,l),
(387,243,ls),
(387,133,o),
(324,57,o),
(234,57,cs)
);
}
);
width = 885;
},
{
anchors = (
{
name = bottom;
pos = (467,0);
},
{
name = top;
pos = (467,500);
}
);
layerId = m005;
shapes = (
{
closed = 1;
nodes = (
(780,-16,o),
(872,49,o),
(887,147,c),
(751,157,l),
(736,119,o),
(698,97,o),
(648,97,cs),
(575,97,o),
(525,143,o),
(525,210,c),
(887,210,l),
(887,248,ls),
(887,406,o),
(784,516,o),
(638,516,cs),
(491,516,o),
(386,406,o),
(386,250,cs),
(386,92,o),
(495,-16,o),
(656,-16,cs)
);
},
{
closed = 1;
nodes = (
(525,364,o),
(571,403,o),
(637,403,cs),
(703,403,o),
(748,365,o),
(748,308,c),
(525,308,l)
);
},
{
closed = 1;
nodes = (
(348,-16,o),
(446,58,o),
(446,180,c),
(521,326,l),
(521,448,o),
(423,516,o),
(294,516,cs),
(180,516,o),
(64,463,o),
(64,342,c),
(198,332,l),
(198,385,o),
(255,403,o),
(300,403,cs),
(347,403,o),
(380,384,o),
(383,356,cs),
(388,317,o),
(332,308,o),
(294,303,cs),
(171,287,o),
(50,254,o),
(50,135,cs),
(50,39,o),
(128,-16,o),
(230,-16,cs)
);
},
{
closed = 1;
nodes = (
(219,97,o),
(188,114,o),
(188,149,cs),
(188,195,o),
(239,206,o),
(274,210,cs),
(340,219,o),
(391,242,o),
(391,298,c),
(386,318,l),
(386,273,ls),
(386,182,o),
(345,97,o),
(258,97,cs)
);
}
);
width = 930;
},
{
anchors = (
{
name = bottom;
pos = (433,0);
},
{
name = top;
pos = (433,500);
}
);
layerId = m007;
shapes = (
{
closed = 1;
nodes = (
(712,-16,o),
(790,43,o),
(814,135,c),
(755,143,l),
(736,78,o),
(681,37,o),
(611,37,cs),
(513,37,o),
(446,119,o),
(446,240,c),
(819,240,l),
(819,248,ls),
(819,411,o),
(737,516,o),
(609,516,cs),
(479,516,o),
(388,407,o),
(388,249,cs),
(388,91,o),
(478,-16,o),
(612,-16,cs)
);
},
{
closed = 1;
nodes = (
(446,390,o),
(513,463,o),
(608,463,cs),
(700,463,o),
(761,394,o),
(761,288,c),
(446,288,l)
);
},
{
closed = 1;
nodes = (
(328,-16,o),
(417,78,o),
(417,200,c),
(442,341,l),
(442,457,o),
(383,516,o),
(269,516,cs),
(151,516,o),
(68,452,o),
(64,357,c),
(117,349,l),
(123,418,o),
(184,463,o),
(270,463,cs),
(338,463,o),
(378,435,o),
(384,382,cs),
(390,327,o),
(353,301,o),
(260,297,cs),
(124,291,o),
(51,235,o),
(51,138,cs),
(51,46,o),
(116,-16,o),
(211,-16,cs)
);
},
{
closed = 1;
nodes = (
(156,37,o),
(109,81,o),
(109,140,cs),
(109,206,o),
(169,247,o),
(269,250,cs),
(355,253,o),
(402,284,o),
(402,339,c),
(387,299,l),
(387,233,ls),
(387,126,o),
(311,37,o),
(220,37,cs)
);
}
);
width = 867;
},
{
anchors = (
{
name = bottom;
pos = (379,0);
},
{
name = top;
pos = (477,500);
}
);
layerId = m004;
shapes = (
{
closed = 1;
nodes = (
(680,-16,o),
(761,42,o),
(801,144,c),
(725,154,l),
(696,93,o),
(641,57,o),
(579,57,cs),
(491,57,o),
(436,129,o),
(448,230,c),
(821,230,l),
(827,265,ls),
(852,409,o),
(770,516,o),
(635,516,cs),
(485,516,o),
(369,385,o),
(369,216,cs),
(369,74,o),
(450,-16,o),
(578,-16,cs)
);
},
{
closed = 1;
nodes = (
(479,386,o),
(544,443,o),
(628,443,cs),
(717,443,o),
(773,380,o),
(756,298,c),
(461,298,l)
);
},
{
closed = 1;
nodes = (
(290,-16,o),
(384,63,o),
(406,180,c),
(462,338,l),
(481,439,o),
(406,516,o),
(289,516,cs),
(180,516,o),
(92,449,o),
(66,348,c),
(137,338,l),
(153,406,o),
(207,443,o),
(289,443,cs),
(353,443,o),
(390,420,o),
(391,378,cs),
(393,334,o),
(347,310,o),
(254,307,cs),
(102,303,o),
(15,239,o),
(15,132,cs),
(15,41,o),
(77,-16,o),
(175,-16,cs)
);
},
{
closed = 1;
nodes = (
(131,57,o),
(92,89,o),
(92,139,cs),
(92,203,o),
(152,241,o),
(258,245,cs),
(346,248,o),
(394,275,o),
(404,326,c),
(382,313,l),
(368,243,ls),
(345,126,o),
(279,57,o),
(192,57,cs)
);
}
);
width = 871;
},
{
anchors = (
{
name = bottom;
pos = (404,0);
},
{
name = top;
pos = (502,500);
}
);
layerId = m008;
shapes = (
{
closed = 1;
nodes = (
(724,-16,o),
(818,47,o),
(853,147,c),
(718,157,l),
(696,119,o),
(654,97,o),
(606,97,cs),
(535,97,o),
(491,146,o),
(503,210,c),
(865,210,l),
(872,248,ls),
(900,399,o),
(804,516,o),
(652,516,cs),
(495,516,o),
(377,392,o),
(377,226,cs),
(377,79,o),
(469,-16,o),
(610,-16,cs)
);
},
{
closed = 1;
nodes = (
(532,366,o),
(581,403,o),
(646,403,cs),
(714,403,o),
(756,363,o),
(745,308,c),
(522,308,l)
);
},
{
closed = 1;
nodes = (
(315,-16,o),
(412,61,o),
(436,180,c),
(516,291,l),
(540,415,o),
(448,516,o),
(303,516,cs),
(193,516,o),
(82,458,o),
(58,342,c),
(190,332,l),
(200,386,o),
(253,403,o),
(301,403,cs),
(352,403,o),
(389,384,o),
(391,352,cs),
(394,308,o),
(324,302,o),
(284,300,cs),
(155,293,o),
(16,260,o),
(16,131,cs),
(16,41,o),
(84,-16,o),
(191,-16,cs)
);
},
{
closed = 1;
nodes = (
(181,97,o),
(157,116,o),
(157,146,cs),
(157,181,o),
(187,198,o),
(270,212,cs),
(354,225,o),
(382,244,o),
(392,293,c),
(384,303,l),
(376,263,ls),
(356,164,o),
(293,97,o),
(220,97,cs)
);
}
);
width = 916;
},
{
anchors = (
{
name = bottom;
pos = (367,0);
},
{
name = top;
pos = (465,500);
}
);
layerId = m006;
shapes = (
{
closed = 1;
nodes = (
(659,-16,o),
(728,34,o),
(775,135,c),
(718,145,l),
(682,73,o),
(633,37,o),
(572,37,cs),
(476,37,o),
(414,124,o),
(428,240,c),
(801,240,l),
(802,248,ls),
(822,408,o),
(746,516,o),
(615,516,cs),
(475,516,o),
(373,393,o),
(373,223,cs),
(373,77,o),
(449,-16,o),
(570,-16,cs)
);
},
{
closed = 1;
nodes = (
(458,396,o),
(526,463,o),
(613,463,cs),
(703,463,o),
(761,391,o),
(752,288,c),
(437,288,l)
);
},
{
closed = 1;
nodes = (
(282,-16,o),
(370,66,o),
(382,179,c),
(441,339,l),
(461,441,o),
(392,516,o),
(278,516,cs),
(173,516,o),
(89,453,o),
(66,357,c),
(118,347,l),
(136,418,o),
(199,463,o),
(280,463,cs),
(348,463,o),
(392,431,o),
(392,382,cs),
(392,327,o),
(349,301,o),
(252,297,cs),
(101,291,o),
(13,230,o),
(13,130,cs),
(13,44,o),
(78,-16,o),
(172,-16,cs)
);
},
{
closed = 1;
nodes = (
(112,37,o),
(70,75,o),
(70,131,cs),
(70,202,o),
(136,246,o),
(248,250,cs),
(340,253,o),
(390,283,o),
(397,339,c),
(378,299,l),
(365,233,ls),
(342,115,o),
(266,37,o),
(174,37,cs)
);
}
);
width = 851;
}
);
metricLeft = a;
metricRight = e;
unicode = 230;
},
{
glyphname = b;
kernLeft = l;
kernRight = o;
layers = (
{
anchors = (
{
name = bottom;
pos = (304,0);
},
{
name = center;
pos = (304,250);
},
{
name = top;
pos = (304,500);
}
);
layerId = m01;
shapes = (
{
closed = 1;
nodes = (
(463,-16,o),
(552,94,o),
(552,250,cs),
(552,406,o),
(463,516,o),
(335,516,cs),
(229,516,o),
(156,441,o),
(156,330,cs),
(156,170,ls),
(156,59,o),
(229,-16,o),
(335,-16,cs)
);
},
{
closed = 1;
nodes = (
(165,0,l),
(165,700,l),
(90,700,l),
(90,0,l)
);
},
{
closed = 1;
nodes = (
(228,57,o),
(166,135,o),
(166,250,cs),
(166,365,o),
(228,443,o),
(320,443,cs),
(412,443,o),
(474,365,o),
(474,250,cs),
(474,135,o),
(412,57,o),
(320,57,cs)
);
}
);
width = 598;
},
{
anchors = (
{
name = bottom;
pos = (336,0);
},
{
name = center;
pos = (336,250);
},
{
name = top;
pos = (336,500);
}
);
layerId = m005;
shapes = (
{
closed = 1;
nodes = (
(522,-16,o),
(612,94,o),
(612,250,cs),
(612,406,o),
(522,516,o),
(394,516,cs),
(278,516,o),
(201,426,o),
(201,290,cs),
(201,210,ls),
(201,74,o),
(278,-16,o),
(394,-16,cs)
);
},
{
closed = 1;
nodes = (
(225,0,l),
(225,700,l),
(90,700,l),
(90,0,l)
);
},
{
closed = 1;
nodes = (
(276,97,o),
(226,158,o),
(226,250,cs),
(226,342,o),
(276,403,o),
(350,403,cs),
(424,403,o),
(474,342,o),
(474,250,cs),
(474,158,o),
(424,97,o),
(350,97,cs)
);
}
);
width = 655;
},
{
anchors = (
{
name = bottom;
pos = (292,0);
},
{
name = center;
pos = (292,250);
},
{
name = top;
pos = (292,500);
}
);
layerId = m007;
shapes = (
{
closed = 1;
nodes = (
(446,-16,o),
(531,91,o),
(531,250,cs),
(531,409,o),
(446,516,o),
(321,516,cs),
(213,516,o),
(135,438,o),
(135,330,cs),
(135,170,ls),
(135,63,o),
(214,-16,o),
(321,-16,cs)
);
},
{
closed = 1;
nodes = (
(145,0,l),
(145,700,l),
(90,700,l),
(90,0,l)
);
},
{
closed = 1;
nodes = (
(211,37,o),
(145,122,o),
(145,250,cs),
(145,378,o),
(211,463,o),
(309,463,cs),
(407,463,o),
(473,378,o),
(473,250,cs),
(473,122,o),
(407,37,o),
(309,37,cs)
);
}
);
width = 579;
},
{
anchors = (
{
name = bottom;
pos = (207,0);
},
{
name = center;
pos = (256,250);
},
{
name = top;
pos = (305,500);
}
);
layerId = m004;
shapes = (
{
closed = 1;
nodes = (
(394,-16,o),
(505,115,o),
(505,282,cs),
(505,421,o),
(425,516,o),
(308,516,cs),
(208,516,o),
(141,448,o),
(118,323,cs),
(93,193,ls),
(70,72,o),
(137,-16,o),
(253,-16,cs)
);
},
{
closed = 1;
nodes = (
(67,0,l),
(203,700,l),
(128,700,l),
(-8,0,l)
);
},
{
closed = 1;
nodes = (
(150,57,o),
(96,149,o),
(121,275,cs),
(142,380,o),
(205,443,o),
(289,443,cs),
(374,443,o),
(427,379,o),
(427,276,cs),
(427,152,o),
(350,57,o),
(249,57,cs)
);
}
);
width = 552;
},
{
anchors = (
{
name = bottom;
pos = (237,0);
},
{
name = center;
pos = (286,250);
},
{
name = top;
pos = (335,500);
}
);
layerId = m008;
shapes = (
{
closed = 1;
nodes = (
(457,-16,o),
(559,109,o),
(559,281,cs),
(559,424,o),
(488,516,o),
(376,516,cs),
(268,516,o),
(185,430,o),
(158,290,cs),
(143,210,ls),
(118,81,o),
(192,-16,o),
(316,-16,cs)
);
},
{
closed = 1;
nodes = (
(127,0,l),
(263,700,l),
(128,700,l),
(-8,0,l)
);
},
{
closed = 1;
nodes = (
(200,97,o),
(159,164,o),
(178,259,cs),
(196,346,o),
(252,403,o),
(320,403,cs),
(383,403,o),
(423,353,o),
(423,272,cs),
(423,171,o),
(362,97,o),
(279,97,cs)
);
}
);
width = 604;
},
{
anchors = (
{
name = bottom;
pos = (195,0);
},
{
name = center;
pos = (244,250);
},
{
name = top;
pos = (293,500);
}
);
layerId = m006;
shapes = (
{
closed = 1;
nodes = (
(381,-16,o),
(485,116,o),
(485,295,cs),
(485,434,o),
(418,516,o),
(304,516,cs),
(199,516,o),
(124,445,o),
(98,321,cs),
(78,226,ls),
(48,86,o),
(117,-16,o),
(241,-16,cs)
);
},
{
closed = 1;
nodes = (
(47,0,l),
(183,700,l),
(128,700,l),
(-8,0,l)
);
},
{
closed = 1;
nodes = (
(130,37,o),
(73,132,o),
(99,264,cs),
(123,385,o),
(200,463,o),
(294,463,cs),
(381,463,o),
(428,402,o),
(428,289,cs),
(428,141,o),
(349,37,o),
(237,37,cs)
);
}
);
width = 532;
}
);
metricLeft = l;
metricRight = o;
unicode = 98;
},
{
glyphname = c;
kernLeft = o;
kernRight = o;
layers = (
{
anchors = (
{
name = bottom;
pos = (274,0);
},
{
name = top;
pos = (274,500);
}
);
layerId = m01;
shapes = (
{
closed = 1;
nodes = (
(402,-16,o),
(492,63,o),
(502,177,c),
(424,187,l),
(418,110,o),
(360,57,o),
(281,57,cs),
(187,57,o),
(124,134,o),
(124,249,cs),
(124,365,o),
(187,443,o),
(281,443,cs),
(360,443,o),
(418,388,o),
(424,307,c),
(502,317,l),
(492,434,o),
(402,516,o),
(281,516,cs),
(142,516,o),
(46,406,o),
(46,249,cs),
(46,92,o),
(142,-16,o),
(282,-16,cs)
);
}
);
width = 560;
},
{
anchors = (
{
name = bottom;
pos = (296,0);
},
{
name = top;
pos = (296,500);
}
);
layerId = m005;
shapes = (
{
closed = 1;
nodes = (
(439,-16,o),
(537,64,o),
(550,183,c),
(404,193,l),
(392,133,o),
(354,97,o),
(300,97,cs),
(232,97,o),
(190,155,o),
(190,248,cs),
(190,343,o),
(233,403,o),
(300,403,cs),
(353,403,o),
(391,365,o),
(404,301,c),
(550,311,l),
(536,434,o),
(436,516,o),
(302,516,cs),
(148,516,o),
(42,407,o),
(42,249,cs),
(42,91,o),
(148,-16,o),
(304,-16,cs)
);
}
);
width = 593;
},
{
anchors = (
{
name = bottom;
pos = (266,0);
},
{
name = top;
pos = (266,500);
}
);
layerId = m007;
shapes = (
{
closed = 1;
nodes = (
(386,-16,o),
(470,61,o),
(483,178,c),
(425,186,l),
(414,95,o),
(354,37,o),
(272,37,cs),
(172,37,o),
(106,122,o),
(106,249,cs),
(106,377,o),
(173,463,o),
(271,463,cs),
(354,463,o),
(414,402,o),
(425,308,c),
(483,316,l),
(469,436,o),
(385,516,o),
(272,516,cs),
(140,516,o),
(48,406,o),
(48,249,cs),
(48,92,o),
(140,-16,o),
(273,-16,cs)
);
}
);
width = 531;
},
{
anchors = (
{
name = bottom;
pos = (224,0);
},
{
name = top;
pos = (322,500);
}
);
layerId = m004;
shapes = (
{
closed = 1;
nodes = (
(365,-16,o),
(448,54,o),
(484,177,c),
(408,187,l),
(386,106,o),
(328,57,o),
(252,57,cs),
(170,57,o),
(123,113,o),
(123,217,cs),
(123,346,o),
(196,443,o),
(296,443,cs),
(372,443,o),
(428,387,o),
(433,307,c),
(513,317,l),
(507,435,o),
(420,516,o),
(304,516,cs),
(157,516,o),
(47,387,o),
(47,219,cs),
(47,75,o),
(128,-16,o),
(254,-16,cs)
);
}
);
width = 546;
},
{
anchors = (
{
name = bottom;
pos = (250,0);
},
{
name = top;
pos = (348,500);
}
);
layerId = m008;
shapes = (
{
closed = 1;
nodes = (
(411,-16,o),
(510,60,o),
(542,181,c),
(407,191,l),
(389,133,o),
(342,97,o),
(284,97,cs),
(223,97,o),
(193,137,o),
(193,220,cs),
(193,330,o),
(245,403,o),
(324,403,cs),
(383,403,o),
(425,363,o),
(427,303,c),
(566,313,l),
(569,431,o),
(471,516,o),
(333,516,cs),
(167,516,o),
(45,393,o),
(45,226,cs),
(45,79,o),
(139,-16,o),
(283,-16,cs)
);
}
);
width = 598;
},
{
anchors = (
{
name = bottom;
pos = (213,0);
},
{
name = top;
pos = (311,500);
}
);
layerId = m006;
shapes = (
{
closed = 1;
nodes = (
(348,-16,o),
(428,58,o),
(464,186,c),
(408,196,l),
(382,95,o),
(322,37,o),
(244,37,cs),
(159,37,o),
(107,107,o),
(107,221,cs),
(107,360,o),
(185,463,o),
(290,463,cs),
(368,463,o),
(417,406,o),
(425,308,c),
(485,318,l),
(475,441,o),
(403,516,o),
(294,516,cs),
(154,516,o),
(50,392,o),
(50,226,cs),
(50,81,o),
(129,-16,o),
(246,-16,cs)
);
}
);
width = 524;
}
);
metricLeft = o;
metricRight = "=o*1.25";
unicode = 99;
},
{
glyphname = d;
kernLeft = o;
kernRight = l;
layers = (
{
anchors = (
{
name = bottom;
pos = (295,0);
},
{
name = center;
pos = (295,250);
},
{
name = top;
pos = (295,965);
},
{
name = topright;
pos = (568,965);
}
);
layerId = m01;
shapes = (
{
closed = 1;
nodes = (
(368,-16,o),
(442,60,o),
(442,170,cs),
(442,330,ls),
(442,441,o),
(369,516,o),
(263,516,cs),
(135,516,o),
(46,406,o),
(46,250,cs),
(46,93,o),
(135,-16,o),
(262,-16,cs)
);
},
{
closed = 1;
nodes = (
(186,57,o),
(124,135,o),
(124,250,cs),
(124,365,o),
(186,443,o),
(278,443,cs),
(370,443,o),
(432,365,o),
(432,250,cs),
(432,135,o),
(370,57,o),
(278,57,cs)
);
},
{
closed = 1;
nodes = (
(508,0,l),
(508,700,l),
(433,700,l),
(433,0,l)
);
}
);
width = 598;
},
{
anchors = (
{
name = bottom;
pos = (318,0);
},
{
name = center;
pos = (318,250);
},
{
name = top;
pos = (318,965);
},
{
name = topright;
pos = (610,965);
}
);
layerId = m005;
shapes = (
{
closed = 1;
nodes = (
(376,-16,o),
(453,74,o),
(453,210,cs),
(453,290,ls),
(453,425,o),
(374,516,o),
(258,516,cs),
(130,516,o),
(42,408,o),
(42,251,cs),
(42,94,o),
(132,-16,o),
(260,-16,cs)
);
},
{
closed = 1;
nodes = (
(230,97,o),
(180,158,o),
(180,250,cs),
(180,342,o),
(230,403,o),
(304,403,cs),
(378,403,o),
(428,342,o),
(428,250,cs),
(428,158,o),
(378,97,o),
(304,97,cs)
);
},
{
closed = 1;
nodes = (
(564,0,l),
(564,700,l),
(429,700,l),
(429,0,l)
);
}
);
width = 654;
},
{
anchors = (
{
name = bottom;
pos = (287,0);
},
{
name = center;
pos = (287,250);
},
{
name = top;
pos = (287,965);
},
{
name = topright;
pos = (556,965);
}
);
layerId = m007;
shapes = (
{
closed = 1;
nodes = (
(366,-16,o),
(444,62,o),
(444,170,cs),
(444,330,ls),
(444,438,o),
(366,516,o),
(258,516,cs),
(133,516,o),
(48,409,o),
(48,250,cs),
(48,91,o),
(132,-16,o),
(258,-16,cs)
);
},
{
closed = 1;
nodes = (
(172,37,o),
(106,122,o),
(106,250,cs),
(106,378,o),
(172,463,o),
(270,463,cs),
(368,463,o),
(434,378,o),
(434,250,cs),
(434,122,o),
(368,37,o),
(270,37,cs)
);
},
{
closed = 1;
nodes = (
(489,0,l),
(489,700,l),
(434,700,l),
(434,0,l)
);
}
);
width = 579;
},
{
anchors = (
{
name = bottom;
pos = (248,0);
},
{
name = center;
pos = (297,250);
},
{
name = top;
pos = (436,965);
},
{
name = topright;
pos = (711,965);
}
);
layerId = m004;
shapes = (
{
closed = 1;
nodes = (
(344,-16,o),
(412,53,o),
(435,177,cs),
(460,307,ls),
(484,429,o),
(418,516,o),
(300,516,cs),
(158,516,o),
(47,386,o),
(47,220,cs),
(47,80,o),
(128,-16,o),
(245,-16,cs)
);
},
{
closed = 1;
nodes = (
(181,57,o),
(125,123,o),
(125,225,cs),
(125,348,o),
(204,443,o),
(306,443,cs),
(406,443,o),
(458,353,o),
(432,226,cs),
(411,119,o),
(350,57,o),
(266,57,cs)
);
},
{
closed = 1;
nodes = (
(463,0,l),
(599,700,l),
(524,700,l),
(388,0,l)
);
}
);
width = 513;
},
{
anchors = (
{
name = bottom;
pos = (269,0);
},
{
name = center;
pos = (318,250);
},
{
name = top;
pos = (457,965);
},
{
name = topright;
pos = (747,965);
}
);
layerId = m008;
shapes = (
{
closed = 1;
nodes = (
(332,-16,o),
(418,72,o),
(444,210,cs),
(459,290,ls),
(484,422,o),
(416,516,o),
(295,516,cs),
(152,516,o),
(43,385,o),
(43,213,cs),
(43,74,o),
(114,-16,o),
(224,-16,cs)
);
},
{
closed = 1;
nodes = (
(216,97,o),
(179,145,o),
(179,225,cs),
(179,328,o),
(240,403,o),
(325,403,cs),
(403,403,o),
(444,339,o),
(426,246,cs),
(408,158,o),
(347,97,o),
(277,97,cs)
);
},
{
closed = 1;
nodes = (
(513,0,l),
(649,700,l),
(514,700,l),
(378,0,l)
);
}
);
width = 563;
},
{
anchors = (
{
name = bottom;
pos = (241,0);
},
{
name = center;
pos = (290,250);
},
{
name = top;
pos = (429,965);
},
{
name = topright;
pos = (700,965);
}
);
layerId = m006;
shapes = (
{
closed = 1;
nodes = (
(335,-16,o),
(410,56,o),
(436,179,cs),
(456,274,ls),
(486,413,o),
(415,516,o),
(290,516,cs),
(152,516,o),
(49,388,o),
(49,216,cs),
(49,74,o),
(121,-16,o),
(234,-16,cs)
);
},
{
closed = 1;
nodes = (
(158,37,o),
(106,106,o),
(106,220,cs),
(106,362,o),
(184,463,o),
(294,463,cs),
(402,463,o),
(461,365,o),
(434,231,cs),
(411,113,o),
(336,37,o),
(245,37,cs)
);
},
{
closed = 1;
nodes = (
(445,0,l),
(581,700,l),
(526,700,l),
(390,0,l)
);
}
);
width = 495;
}
);
metricLeft = o;
metricRight = l;
unicode = 100;
},
{
glyphname = dcroat;
kernLeft = o;
kernRight = l;
layers = (
{
layerId = m01;
shapes = (
{
closed = 1;
nodes = (
(604,573,l),
(604,627,l),
(244,627,l),
(244,573,l)
);
},
{
ref = d;
}
);
width = 622;
},
{
layerId = m005;
shapes = (
{
closed = 1;
nodes = (
(651,568,l),
(651,630,l),
(263,630,l),
(263,568,l)
);
},
{
ref = d;
}
);
width = 669;
},
{
layerId = m007;
shapes = (
{
closed = 1;
nodes = (
(594,583,l),
(594,617,l),
(254,617,l),
(254,583,l)
);
},
{
ref = d;
}
);
width = 612;
},
{
layerId = m004;
shapes = (
{
closed = 1;
nodes = (
(667,573,l),
(678,627,l),
(318,627,l),
(307,573,l)
);
},
{
ref = d;
}
);
width = 605;
},
{
layerId = m008;
shapes = (
{
closed = 1;
nodes = (
(713,568,l),
(725,630,l),
(337,630,l),
(325,568,l)
);
},
{
ref = d;
}
);
width = 651;
},
{
layerId = m006;
shapes = (
{
closed = 1;
nodes = (
(659,583,l),
(666,617,l),
(326,617,l),
(319,583,l)
);
},
{
ref = d;
}
);
width = 595;
}
);
metricLeft = "=d";
metricRight = "=l*.2";
unicode = 273;
},
{
glyphname = eth;
kernLeft = o;
kernRight = o;
layers = (
{
anchors = (
{
name = bottom;
pos = (288,0);
},
{
name = top;
pos = (288,965);
}
);
layerId = m01;
shapes = (
{
closed = 1;
nodes = (
(436,-16,o),
(530,104,o),
(530,296,cs),
(530,541,o),
(378,716,o),
(167,716,c),
(167,648,l),
(343,648,o),
(460,501,o),
(460,280,c),
(475,270,l),
(475,386,o),
(395,465,o),
(278,465,cs),
(144,465,o),
(46,363,o),
(46,224,cs),
(46,84,o),
(145,-16,o),
(284,-16,cs)
);
},
{
closed = 1;
nodes = (
(192,57,o),
(124,127,o),
(124,225,cs),
(124,323,o),
(192,392,o),
(288,392,cs),
(384,392,o),
(453,323,o),
(453,225,cs),
(453,127,o),
(384,57,o),
(288,57,cs)
);
},
{
closed = 1;
nodes = (
(501,650,l),
(478,695,l),
(170,550,l),
(193,505,l)
);
}
);
width = 576;
},
{
anchors = (
{
name = bottom;
pos = (305,0);
},
{
name = top;
pos = (305,965);
}
);
layerId = m005;
shapes = (
{
closed = 1;
nodes = (
(465,-15,o),
(568,106,o),
(568,297,cs),
(568,539,o),
(402,715,o),
(175,715,c),
(175,605,l),
(338,605,o),
(454,490,o),
(454,329,c),
(475,287,l),
(475,393,o),
(396,465,o),
(280,465,cs),
(143,465,o),
(42,364,o),
(42,226,cs),
(42,84,o),
(150,-17,o),
(301,-16,cs)
);
},
{
closed = 1;
nodes = (
(239,97,o),
(190,150,o),
(190,226,cs),
(190,301,o),
(238,352,o),
(308,352,cs),
(379,352,o),
(429,300,o),
(429,225,cs),
(429,150,o),
(379,97,o),
(309,97,cs)
);
},
{
closed = 1;
nodes = (
(508,626,l),
(482,680,l),
(165,532,l),
(191,478,l)
);
}
);
width = 611;
},
{
anchors = (
{
name = bottom;
pos = (280,0);
},
{
name = top;
pos = (280,965);
}
);
layerId = m007;
shapes = (
{
closed = 1;
nodes = (
(425,-16,o),
(512,102,o),
(512,300,cs),
(512,549,o),
(374,716,o),
(169,716,c),
(169,668,l),
(347,668,o),
(462,518,o),
(462,285,c),
(466,289,l),
(466,385,o),
(387,454,o),
(275,454,cs),
(142,454,o),
(48,357,o),
(48,219,cs),
(48,82,o),
(143,-16,o),
(278,-16,cs)
);
},
{
closed = 1;
nodes = (
(175,37,o),
(106,111,o),
(106,219,cs),
(106,326,o),
(178,401,o),
(280,401,cs),
(382,401,o),
(455,326,o),
(455,220,cs),
(455,114,o),
(380,37,o),
(276,37,cs)
);
},
{
closed = 1;
nodes = (
(491,645,l),
(473,681,l),
(174,541,l),
(192,505,l)
);
}
);
width = 560;
},
{
anchors = (
{
name = bottom;
pos = (237,0);
},
{
name = top;
pos = (425,965);
}
);
layerId = m004;
shapes = (
{
closed = 1;
nodes = (
(430,-16,o),
(528,112,o),
(528,321,cs),
(528,554,o),
(408,716,o),
(236,716,c),
(223,648,l),
(375,648,o),
(464,512,o),
(464,280,c),
(479,260,l),
(479,384,o),
(403,465,o),
(286,465,cs),
(155,465,o),
(54,366,o),
(44,230,cs),
(33,87,o),
(128,-16,o),
(271,-16,cs)
);
},
{
closed = 1;
nodes = (
(185,57,o),
(120,124,o),
(120,221,cs),
(120,321,o),
(188,392,o),
(283,392,cs),
(377,392,o),
(444,321,o),
(444,223,cs),
(444,125,o),
(377,57,o),
(280,57,cs)
);
},
{
closed = 1;
nodes = (
(557,650,l),
(543,695,l),
(207,550,l),
(221,505,l)
);
}
);
width = 571;
},
{
anchors = (
{
name = bottom;
pos = (257,0);
},
{
name = top;
pos = (445,965);
}
);
layerId = m008;
shapes = (
{
closed = 1;
nodes = (
(462,-15,o),
(573,122,o),
(573,329,cs),
(573,555,o),
(438,715,o),
(247,715,c),
(226,605,l),
(370,605,o),
(471,492,o),
(471,329,c),
(486,276,l),
(486,388,o),
(404,465,o),
(283,465,cs),
(144,465,o),
(43,363,o),
(43,223,cs),
(43,83,o),
(147,-17,o),
(293,-16,cs)
);
},
{
closed = 1;
nodes = (
(226,98,o),
(179,147,o),
(179,218,cs),
(179,295,o),
(233,351,o),
(308,351,cs),
(378,351,o),
(425,302,o),
(425,231,cs),
(425,154,o),
(371,98,o),
(296,98,cs)
);
},
{
closed = 1;
nodes = (
(564,627,l),
(548,681,l),
(202,533,l),
(218,479,l)
);
}
);
width = 611;
},
{
anchors = (
{
name = bottom;
pos = (230,0);
},
{
name = top;
pos = (418,965);
}
);
layerId = m006;
shapes = (
{
closed = 1;
nodes = (
(420,-16,o),
(512,109,o),
(512,318,cs),
(512,553,o),
(396,716,o),
(228,716,c),
(219,668,l),
(375,668,o),
(469,524,o),
(469,285,c),
(469,231,l),
(490,360,o),
(411,454,o),
(282,454,cs),
(146,454,o),
(45,350,o),
(45,209,cs),
(45,75,o),
(135,-16,o),
(266,-16,cs)
);
},
{
closed = 1;
nodes = (
(168,37,o),
(101,108,o),
(101,210,cs),
(101,321,o),
(178,401,o),
(283,401,cs),
(381,401,o),
(447,331,o),
(447,228,cs),
(447,118,o),
(371,37,o),
(266,37,cs)
);
},
{
closed = 1;
nodes = (
(538,645,l),
(527,681,l),
(201,541,l),
(212,505,l)
);
}
);
width = 558;
}
);
metricLeft = o;
metricRight = o;
unicode = 240;
},
{
glyphname = e;
kernLeft = o;
kernRight = o;
layers = (
{
anchors = (
{
name = bottom;
pos = (272,0);
},
{
name = ogonek;
pos = (412,0);
},
{
name = top;
pos = (272,500);
}
);
layerId = m01;
shapes = (
{
closed = 1;
nodes = (
(390,-16,o),
(474,47,o),
(494,144,c),
(416,154,l),
(402,95,o),
(350,57,o),
(281,57,cs),
(188,57,o),
(124,127,o),
(124,230,c),
(497,230,l),
(497,248,ls),
(497,408,o),
(407,516,o),
(273,516,cs),
(139,516,o),
(46,407,o),
(46,251,cs),
(46,92,o),
(142,-16,o),
(282,-16,cs)
);
},
{
closed = 1;
nodes = (
(124,384,o),
(184,443,o),
(271,443,cs),
(358,443,o),
(419,384,o),
(419,298,c),
(124,298,l)
);
}
);
width = 543;
},
{
anchors = (
{
name = bottom;
pos = (293,0);
},
{
name = ogonek;
pos = (460,0);
},
{
name = top;
pos = (293,500);
}
);
layerId = m005;
shapes = (
{
closed = 1;
nodes = (
(437,-16,o),
(528,49,o),
(543,147,c),
(407,157,l),
(392,119,o),
(354,97,o),
(304,97,cs),
(231,97,o),
(181,143,o),
(181,210,c),
(543,210,l),
(543,248,ls),
(543,406,o),
(440,516,o),
(293,516,cs),
(147,516,o),
(42,406,o),
(42,251,cs),
(42,91,o),
(151,-16,o),
(312,-16,cs)
);
},
{
closed = 1;
nodes = (
(181,364,o),
(227,403,o),
(293,403,cs),
(359,403,o),
(404,365,o),
(404,308,c),
(181,308,l)
);
}
);
width = 586;
},
{
anchors = (
{
name = bottom;
pos = (264,0);
},
{
name = ogonek;
pos = (395,0);
},
{
name = top;
pos = (264,500);
}
);
layerId = m007;
shapes = (
{
closed = 1;
nodes = (
(372,-16,o),
(450,43,o),
(474,135,c),
(415,143,l),
(396,78,o),
(341,37,o),
(272,37,cs),
(173,37,o),
(106,119,o),
(106,240,c),
(479,240,l),
(479,248,ls),
(479,411,o),
(397,516,o),
(269,516,cs),
(139,516,o),
(48,407,o),
(48,249,cs),
(48,91,o),
(138,-16,o),
(272,-16,cs)
);
},
{
closed = 1;
nodes = (
(106,390,o),
(173,463,o),
(268,463,cs),
(360,463,o),
(421,394,o),
(421,288,c),
(106,288,l)
);
}
);
width = 527;
},
{
anchors = (
{
name = bottom;
pos = (225,0);
},
{
name = ogonek;
pos = (384,0);
},
{
name = top;
pos = (323,500);
}
);
layerId = m004;
shapes = (
{
closed = 1;
nodes = (
(358,-16,o),
(438,42,o),
(478,144,c),
(402,154,l),
(373,93,o),
(318,57,o),
(256,57,cs),
(168,57,o),
(113,129,o),
(125,230,c),
(498,230,l),
(504,265,ls),
(529,408,o),
(446,516,o),
(311,516,cs),
(162,516,o),
(46,385,o),
(46,216,cs),
(46,74,o),
(128,-16,o),
(256,-16,cs)
);
},
{
closed = 1;
nodes = (
(156,386,o),
(221,443,o),
(305,443,cs),
(394,443,o),
(450,380,o),
(433,298,c),
(138,298,l)
);
}
);
width = 548;
},
{
anchors = (
{
name = bottom;
pos = (243,0);
},
{
name = ogonek;
pos = (421,0);
},
{
name = top;
pos = (341,500);
}
);
layerId = m008;
shapes = (
{
closed = 1;
nodes = (
(392,-16,o),
(486,47,o),
(521,147,c),
(386,157,l),
(364,119,o),
(322,97,o),
(274,97,cs),
(203,97,o),
(159,146,o),
(171,210,c),
(533,210,l),
(540,248,ls),
(568,399,o),
(472,516,o),
(320,516,cs),
(163,516,o),
(45,392,o),
(45,226,cs),
(45,79,o),
(137,-16,o),
(278,-16,cs)
);
},
{
closed = 1;
nodes = (
(200,366,o),
(249,403,o),
(314,403,cs),
(382,403,o),
(424,363,o),
(413,308,c),
(190,308,l)
);
}
);
width = 584;
},
{
anchors = (
{
name = bottom;
pos = (215,0);
},
{
name = ogonek;
pos = (367,0);
},
{
name = top;
pos = (313,500);
}
);
layerId = m006;
shapes = (
{
closed = 1;
nodes = (
(336,-16,o),
(405,34,o),
(452,135,c),
(395,145,l),
(359,73,o),
(310,37,o),
(249,37,cs),
(153,37,o),
(91,124,o),
(105,240,c),
(478,240,l),
(479,248,ls),
(499,408,o),
(423,516,o),
(292,516,cs),
(152,516,o),
(50,393,o),
(50,223,cs),
(50,77,o),
(126,-16,o),
(247,-16,cs)
);
},
{
closed = 1;
nodes = (
(135,396,o),
(203,463,o),
(290,463,cs),
(380,463,o),
(438,391,o),
(429,288,c),
(114,288,l)
);
}
);
width = 528;
}
);
metricLeft = o;
metricRight = o;
unicode = 101;
},
{
glyphname = f;
kernLeft = f;
kernRight = f;
layers = (
{
anchors = (
{
name = bottom;
pos = (178,0);
},
{
name = top;
pos = (178,965);
}
);
layerId = m01;
shapes = (
{
closed = 1;
nodes = (
(194,0,l),
(194,577,ls),
(194,617,o),
(214,637,o),
(254,637,cs),
(344,637,l),
(344,710,l),
(259,710,ls),
(165,710,o),
(119,664,o),
(119,570,cs),
(119,0,l)
);
},
{
closed = 1;
nodes = (
(344,427,l),
(344,500,l),
(11,500,l),
(11,427,l)
);
}
);
width = 345;
},
{
anchors = (
{
name = bottom;
pos = (216,0);
},
{
name = top;
pos = (216,965);
}
);
layerId = m005;
shapes = (
{
closed = 1;
nodes = (
(262,0,l),
(262,537,ls),
(262,577,o),
(282,597,o),
(322,597,cs),
(412,597,l),
(412,710,l),
(297,710,ls),
(183,710,o),
(127,657,o),
(127,550,cs),
(127,0,l)
);
},
{
closed = 1;
nodes = (
(412,387,l),
(412,500,l),
(19,500,l),
(19,387,l)
);
}
);
width = 422;
},
{
anchors = (
{
name = bottom;
pos = (164,0);
},
{
name = top;
pos = (164,965);
}
);
layerId = m007;
shapes = (
{
closed = 1;
nodes = (
(170,0,l),
(170,587,ls),
(170,634,o),
(193,657,o),
(240,657,cs),
(320,657,l),
(320,710,l),
(245,710,ls),
(158,710,o),
(115,667,o),
(115,580,cs),
(115,0,l)
);
},
{
closed = 1;
nodes = (
(320,447,l),
(320,500,l),
(7,500,l),
(7,447,l)
);
}
);
width = 317;
},
{
anchors = (
{
name = bottom;
pos = (162,0);
},
{
name = top;
pos = (350,965);
}
);
layerId = m004;
shapes = (
{
closed = 1;
nodes = (
(179,0,l),
(291,577,ls),
(298,614,o),
(326,637,o),
(363,637,cs),
(453,637,l),
(467,710,l),
(382,710,ls),
(295,710,o),
(231,656,o),
(215,570,cs),
(104,0,l)
);
},
{
closed = 1;
nodes = (
(412,427,l),
(426,500,l),
(93,500,l),
(79,427,l)
);
}
);
width = 335;
},
{
anchors = (
{
name = bottom;
pos = (192,0);
},
{
name = top;
pos = (380,965);
}
);
layerId = m008;
shapes = (
{
closed = 1;
nodes = (
(239,0,l),
(343,537,ls),
(351,575,o),
(374,597,o),
(405,597,cs),
(505,597,l),
(527,710,l),
(392,710,ls),
(299,710,o),
(232,660,o),
(216,577,cs),
(104,0,l)
);
},
{
closed = 1;
nodes = (
(464,387,l),
(486,500,l),
(93,500,l),
(71,387,l)
);
}
);
width = 401;
},
{
anchors = (
{
name = bottom;
pos = (152,0);
},
{
name = top;
pos = (340,965);
}
);
layerId = m006;
shapes = (
{
closed = 1;
nodes = (
(159,0,l),
(273,587,ls),
(281,630,o),
(313,657,o),
(357,657,cs),
(437,657,l),
(447,710,l),
(372,710,ls),
(291,710,o),
(232,660,o),
(217,580,cs),
(104,0,l)
);
},
{
closed = 1;
nodes = (
(396,447,l),
(406,500,l),
(93,500,l),
(83,447,l)
);
}
);
width = 311;
}
);
unicode = 102;
},
{
glyphname = g;
kernLeft = o;
kernRight = g;
layers = (
{
anchors = (
{
name = bottom;
pos = (295,-225);
},
{
name = top;
pos = (295,500);
}
);
layerId = m01;
shapes = (
{
closed = 1;
nodes = (
(415,-216,o),
(508,-122,o),
(508,19,cs),
(508,500,l),
(433,500,l),
(433,19,ls),
(433,-79,o),
(369,-143,o),
(273,-143,cs),
(199,-143,o),
(144,-105,o),
(140,-51,c),
(62,-61,l),
(66,-151,o),
(154,-216,o),
(273,-216,cs)
);
},
{
closed = 1;
nodes = (
(368,-16,o),
(442,60,o),
(442,170,cs),
(442,330,ls),
(442,441,o),
(369,516,o),
(263,516,cs),
(135,516,o),
(46,406,o),
(46,250,cs),
(46,93,o),
(135,-16,o),
(262,-16,cs)
);
},
{
closed = 1;
nodes = (
(186,57,o),
(124,135,o),
(124,250,cs),
(124,365,o),
(186,443,o),
(278,443,cs),
(370,443,o),
(432,365,o),
(432,250,cs),
(432,135,o),
(370,57,o),
(278,57,cs)
);
}
);
width = 598;
},
{
anchors = (
{
name = bottom;
pos = (318,-225);
},
{
name = top;
pos = (318,500);
}
);
layerId = m005;
shapes = (
{
closed = 1;
nodes = (
(456,-216,o),
(564,-112,o),
(564,50,cs),
(564,500,l),
(429,500,l),
(429,20,ls),
(429,-52,o),
(375,-103,o),
(300,-103,cs),
(251,-103,o),
(216,-82,o),
(206,-45,c),
(58,-55,l),
(58,-150,o),
(152,-216,o),
(288,-216,cs)
);
},
{
closed = 1;
nodes = (
(376,-16,o),
(453,74,o),
(453,210,cs),
(453,290,ls),
(453,425,o),
(374,516,o),
(258,516,cs),
(130,516,o),
(42,408,o),
(42,251,cs),
(42,94,o),
(132,-16,o),
(260,-16,cs)
);
},
{
closed = 1;
nodes = (
(230,97,o),
(180,158,o),
(180,250,cs),
(180,342,o),
(230,403,o),
(304,403,cs),
(378,403,o),
(428,342,o),
(428,250,cs),
(428,158,o),
(378,97,o),
(304,97,cs)
);
}
);
width = 654;
},
{
anchors = (
{
name = bottom;
pos = (288,-225);
},
{
name = top;
pos = (288,500);
}
);
layerId = m007;
shapes = (
{
closed = 1;
nodes = (
(399,-216,o),
(490,-125,o),
(490,9,cs),
(490,500,l),
(435,500,l),
(435,9,ls),
(435,-93,o),
(368,-163,o),
(270,-163,cs),
(196,-163,o),
(139,-124,o),
(124,-62,c),
(65,-70,l),
(81,-158,o),
(161,-216,o),
(267,-216,cs)
);
},
{
closed = 1;
nodes = (
(366,-16,o),
(444,62,o),
(444,170,cs),
(444,330,ls),
(444,438,o),
(366,516,o),
(258,516,cs),
(133,516,o),
(48,409,o),
(48,250,cs),
(48,91,o),
(132,-16,o),
(258,-16,cs)
);
},
{
closed = 1;
nodes = (
(172,37,o),
(106,122,o),
(106,250,cs),
(106,378,o),
(172,463,o),
(270,463,cs),
(368,463,o),
(434,378,o),
(434,250,cs),
(434,122,o),
(368,37,o),
(270,37,cs)
);
}
);
width = 580;
},
{
anchors = (
{
name = bottom;
pos = (205,-225);
},
{
name = top;
pos = (346,500);
}
);
layerId = m004;
shapes = (
{
closed = 1;
nodes = (
(340,-216,o),
(440,-126,o),
(468,19,cs),
(561,500,l),
(486,500,l),
(393,19,ls),
(374,-80,o),
(303,-143,o),
(209,-143,cs),
(136,-143,o),
(86,-105,o),
(86,-51,c),
(6,-61,l),
(16,-153,o),
(98,-216,o),
(208,-216,cs)
);
},
{
closed = 1;
nodes = (
(344,-16,o),
(412,53,o),
(435,177,cs),
(460,307,ls),
(484,429,o),
(418,516,o),
(300,516,cs),
(158,516,o),
(47,386,o),
(47,220,cs),
(47,80,o),
(128,-16,o),
(245,-16,cs)
);
},
{
closed = 1;
nodes = (
(181,57,o),
(125,123,o),
(125,225,cs),
(125,348,o),
(204,443,o),
(306,443,cs),
(406,443,o),
(458,353,o),
(432,226,cs),
(411,119,o),
(350,57,o),
(266,57,cs)
);
}
);
width = 514;
},
{
anchors = (
{
name = bottom;
pos = (226,-225);
},
{
name = top;
pos = (367,500);
}
);
layerId = m008;
shapes = (
{
closed = 1;
nodes = (
(379,-216,o),
(490,-126,o),
(518,20,cs),
(611,500,l),
(476,500,l),
(383,20,ls),
(368,-55,o),
(310,-103,o),
(234,-103,cs),
(184,-103,o),
(152,-82,o),
(147,-45,c),
(-3,-55,l),
(7,-152,o),
(99,-216,o),
(227,-216,cs)
);
},
{
closed = 1;
nodes = (
(332,-16,o),
(418,72,o),
(444,210,cs),
(459,290,ls),
(484,422,o),
(416,516,o),
(295,516,cs),
(152,516,o),
(43,385,o),
(43,213,cs),
(43,74,o),
(114,-16,o),
(224,-16,cs)
);
},
{
closed = 1;
nodes = (
(216,97,o),
(179,145,o),
(179,225,cs),
(179,328,o),
(240,403,o),
(325,403,cs),
(403,403,o),
(444,339,o),
(426,246,cs),
(408,158,o),
(347,97,o),
(277,97,cs)
);
}
);
width = 564;
},
{
anchors = (
{
name = bottom;
pos = (198,-225);
},
{
name = top;
pos = (339,500);
}
);
layerId = m006;
shapes = (
{
closed = 1;
nodes = (
(323,-216,o),
(420,-131,o),
(447,9,cs),
(542,500,l),
(487,500,l),
(392,9,ls),
(372,-96,o),
(296,-163,o),
(199,-163,cs),
(123,-163,o),
(70,-122,o),
(67,-62,c),
(6,-70,l),
(12,-157,o),
(89,-216,o),
(196,-216,cs)
);
},
{
closed = 1;
nodes = (
(335,-16,o),
(410,56,o),
(436,179,cs),
(456,274,ls),
(486,413,o),
(415,516,o),
(290,516,cs),
(152,516,o),
(49,388,o),
(49,216,cs),
(49,74,o),
(121,-16,o),
(234,-16,cs)
);
},
{
closed = 1;
nodes = (
(158,37,o),
(106,106,o),
(106,220,cs),
(106,362,o),
(184,463,o),
(294,463,cs),
(402,463,o),
(461,365,o),
(434,231,cs),
(411,113,o),
(336,37,o),
(245,37,cs)
);
}
);
width = 495;
}
);
metricLeft = o;
metricRight = l;
unicode = 103;
},
{
glyphname = h;
kernLeft = l;
kernRight = m;
layers = (
{
anchors = (
{
name = bottom;
pos = (288,0);
},
{
name = center;
pos = (288,483);
},
{
name = top;
pos = (126,700);
}
);
layerId = m01;
shapes = (
{
closed = 1;
nodes = (
(492,0,l),
(492,329,ls),
(492,444,o),
(429,516,o),
(330,516,cs),
(228,516,o),
(149,439,o),
(149,339,c),
(164,243,l),
(164,364,o),
(224,443,o),
(314,443,cs),
(379,443,o),
(417,401,o),
(417,329,cs),
(417,0,l)
);
},
{
closed = 1;
nodes = (
(164,0,l),
(164,700,l),
(89,700,l),
(89,0,l)
);
}
);
width = 571;
},
{
anchors = (
{
name = bottom;
pos = (319,0);
},
{
name = center;
pos = (319,483);
},
{
name = top;
pos = (154,700);
}
);
layerId = m005;
shapes = (
{
closed = 1;
nodes = (
(552,0,l),
(552,299,ls),
(552,437,o),
(492,516,o),
(386,516,cs),
(273,516,o),
(198,427,o),
(198,293,c),
(224,243,l),
(224,339,o),
(268,403,o),
(335,403,cs),
(387,403,o),
(417,363,o),
(417,293,cs),
(417,0,l)
);
},
{
closed = 1;
nodes = (
(224,0,l),
(224,700,l),
(89,700,l),
(89,0,l)
);
}
);
width = 630;
},
{
anchors = (
{
name = bottom;
pos = (278,0);
},
{
name = center;
pos = (278,483);
},
{
name = top;
pos = (118,700);
}
);
layerId = m007;
shapes = (
{
closed = 1;
nodes = (
(472,0,l),
(472,319,ls),
(472,439,o),
(408,516,o),
(310,516,cs),
(206,516,o),
(124,430,o),
(124,319,c),
(144,243,l),
(144,376,o),
(207,463,o),
(304,463,cs),
(377,463,o),
(417,413,o),
(417,319,cs),
(417,0,l)
);
},
{
closed = 1;
nodes = (
(144,0,l),
(144,700,l),
(89,700,l),
(89,0,l)
);
}
);
width = 550;
},
{
anchors = (
{
name = bottom;
pos = (191,0);
},
{
name = center;
pos = (285,483);
},
{
name = top;
pos = (164,700);
}
);
layerId = m004;
shapes = (
{
closed = 1;
nodes = (
(395,0,l),
(453,300,ls),
(478,428,o),
(419,516,o),
(310,516,cs),
(212,516,o),
(134,444,o),
(120,339,c),
(114,243,l),
(136,364,o),
(206,443,o),
(291,443,cs),
(362,443,o),
(395,388,o),
(378,300,cs),
(320,0,l)
);
},
{
closed = 1;
nodes = (
(67,0,l),
(203,700,l),
(128,700,l),
(-8,0,l)
);
}
);
width = 504;
},
{
anchors = (
{
name = bottom;
pos = (222,0);
},
{
name = center;
pos = (316,483);
},
{
name = top;
pos = (193,700);
}
);
layerId = m008;
shapes = (
{
closed = 1;
nodes = (
(455,0,l),
(517,319,ls),
(539,432,o),
(478,516,o),
(372,516,cs),
(266,516,o),
(184,431,o),
(158,293,c),
(174,243,l),
(193,343,o),
(243,403,o),
(308,403,cs),
(362,403,o),
(391,362,o),
(379,303,cs),
(320,0,l)
);
},
{
closed = 1;
nodes = (
(127,0,l),
(263,700,l),
(128,700,l),
(-8,0,l)
);
}
);
width = 562;
},
{
anchors = (
{
name = bottom;
pos = (181,0);
},
{
name = center;
pos = (275,483);
},
{
name = top;
pos = (159,700);
}
);
layerId = m006;
shapes = (
{
closed = 1;
nodes = (
(375,0,l),
(435,309,ls),
(458,429,o),
(400,516,o),
(294,516,cs),
(193,516,o),
(111,438,o),
(89,319,c),
(94,243,l),
(122,378,o),
(196,463,o),
(287,463,cs),
(363,463,o),
(398,404,o),
(380,309,cs),
(320,0,l)
);
},
{
closed = 1;
nodes = (
(47,0,l),
(183,700,l),
(128,700,l),
(-8,0,l)
);
}
);
width = 483;
}
);
metricLeft = m;
metricRight = m;
unicode = 104;
},
{
glyphname = hbar;
kernLeft = l;
kernRight = m;
layers = (
{
layerId = m01;
shapes = (
{
closed = 1;
nodes = (
(378,573,l),
(378,627,l),
(18,627,l),
(18,573,l)
);
},
{
pos = (38,0);
ref = h;
}
);
width = 609;
},
{
layerId = m005;
shapes = (
{
closed = 1;
nodes = (
(406,568,l),
(406,630,l),
(18,630,l),
(18,568,l)
);
},
{
pos = (48,0);
ref = h;
}
);
width = 678;
},
{
layerId = m007;
shapes = (
{
closed = 1;
nodes = (
(358,583,l),
(358,617,l),
(18,617,l),
(18,583,l)
);
},
{
pos = (28,0);
ref = h;
}
);
width = 578;
},
{
layerId = m004;
shapes = (
{
closed = 1;
nodes = (
(431,573,l),
(442,627,l),
(82,627,l),
(71,573,l)
);
},
{
pos = (28,0);
ref = h;
}
);
width = 532;
},
{
layerId = m008;
shapes = (
{
closed = 1;
nodes = (
(458,568,l),
(470,630,l),
(82,630,l),
(70,568,l)
);
},
{
pos = (38,0);
ref = h;
}
);
width = 600;
},
{
layerId = m006;
shapes = (
{
closed = 1;
nodes = (
(413,583,l),
(420,617,l),
(80,617,l),
(73,583,l)
);
},
{
pos = (18,0);
ref = h;
}
);
width = 501;
}
);
metricLeft = "=h*.2";
metricRight = h;
unicode = 295;
},
{
glyphname = idotless;
kernLeft = l;
kernRight = l;
layers = (
{
anchors = (
{
name = bottom;
pos = (124,0);
},
{
name = ogonek;
pos = (202,0);
},
{
name = top;
pos = (124,500);
}
);
layerId = m01;
shapes = (
{
closed = 1;
nodes = (
(161,0,l),
(161,500,l),
(86,500,l),
(86,0,l)
);
}
);
width = 247;
},
{
anchors = (
{
name = bottom;
pos = (154,0);
},
{
name = ogonek;
pos = (269,0);
},
{
name = top;
pos = (154,500);
}
);
layerId = m005;
shapes = (
{
closed = 1;
nodes = (
(221,0,l),
(221,500,l),
(86,500,l),
(86,0,l)
);
}
);
width = 307;
},
{
anchors = (
{
name = bottom;
pos = (114,0);
},
{
name = ogonek;
pos = (179,0);
},
{
name = top;
pos = (114,500);
}
);
layerId = m007;
shapes = (
{
closed = 1;
nodes = (
(141,0,l),
(141,500,l),
(86,500,l),
(86,0,l)
);
}
);
width = 227;
},
{
anchors = (
{
name = bottom;
pos = (28,0);
},
{
name = ogonek;
pos = (107,0);
},
{
name = top;
pos = (126,500);
}
);
layerId = m004;
shapes = (
{
closed = 1;
nodes = (
(66,0,l),
(163,500,l),
(88,500,l),
(-9,0,l)
);
}
);
width = 116;
},
{
anchors = (
{
name = bottom;
pos = (58,0);
},
{
name = ogonek;
pos = (174,0);
},
{
name = top;
pos = (156,500);
}
);
layerId = m008;
shapes = (
{
closed = 1;
nodes = (
(126,0,l),
(223,500,l),
(88,500,l),
(-9,0,l)
);
}
);
width = 176;
},
{
anchors = (
{
name = bottom;
pos = (18,0);
},
{
name = ogonek;
pos = (86,0);
},
{
name = top;
pos = (116,500);
}
);
layerId = m006;
shapes = (
{
closed = 1;
nodes = (
(46,0,l),
(143,500,l),
(88,500,l),
(-9,0,l)
);
}
);
width = 96;
}
);
metricLeft = "=l*.95";
metricRight = "=l*.95";
unicode = 305;
},
{
glyphname = ibreve;
kernLeft = l;
kernRight = l;
layers = (
{
anchors = (
{
name = top;
pos = (123,730);
}
);
layerId = m01;
shapes = (
{
pos = (10,0);
ref = idotless;
},
{
closed = 1;
nodes = (
(194,580,o),
(233,633,o),
(233,730,c),
(169,730,l),
(168,674,o),
(152,644,o),
(123,644,cs),
(94,644,o),
(78,674,o),
(77,730,c),
(13,730,l),
(13,633,o),
(52,580,o),
(123,580,cs)
);
}
);
width = 246;
},
{
anchors = (
{
name = top;
pos = (133,750);
}
);
layerId = m005;
shapes = (
{
pos = (4,0);
ref = idotless;
},
{
closed = 1;
nodes = (
(218,580,o),
(253,630,o),
(253,750,c),
(158,750,l),
(158,697,o),
(151,675,o),
(133,675,cs),
(115,675,o),
(108,697,o),
(108,750,c),
(13,750,l),
(13,630,o),
(48,580,o),
(133,580,cs)
);
}
);
width = 266;
},
{
anchors = (
{
name = top;
pos = (113,720);
}
);
layerId = m007;
shapes = (
{
pos = (3,0);
ref = idotless;
},
{
closed = 1;
nodes = (
(172,590,o),
(207,636,o),
(213,720,c),
(168,720,l),
(162,665,o),
(142,634,o),
(113,634,cs),
(84,634,o),
(64,665,o),
(58,720,c),
(13,720,l),
(19,636,o),
(54,590,o),
(113,590,cs)
);
}
);
width = 226;
},
{
anchors = (
{
name = top;
pos = (209,730);
}
);
layerId = m004;
shapes = (
{
pos = (2,0);
ref = idotless;
},
{
closed = 1;
nodes = (
(257,580,o),
(300,631,o),
(319,730,c),
(255,730,l),
(244,672,o),
(226,644,o),
(200,644,cs),
(173,644,o),
(158,678,o),
(163,730,c),
(99,730,l),
(93,635,o),
(128,580,o),
(194,580,cs)
);
}
);
width = 226;
},
{
anchors = (
{
name = top;
pos = (223,750);
}
);
layerId = m008;
shapes = (
{
pos = (-4,0);
ref = idotless;
},
{
closed = 1;
nodes = (
(278,580,o),
(318,627,o),
(343,750,c),
(243,750,l),
(232,693,o),
(224,675,o),
(210,675,cs),
(196,675,o),
(192,693,o),
(193,750,c),
(103,750,l),
(80,633,o),
(109,580,o),
(196,580,cs)
);
}
);
width = 246;
},
{
anchors = (
{
name = top;
pos = (197,720);
}
);
layerId = m006;
shapes = (
{
pos = (-5,0);
ref = idotless;
},
{
closed = 1;
nodes = (
(234,590,o),
(276,635,o),
(297,720,c),
(247,720,l),
(236,665,o),
(212,634,o),
(181,634,cs),
(150,634,o),
(135,664,o),
(139,720,c),
(97,720,l),
(86,637,o),
(114,590,o),
(175,590,cs)
);
}
);
width = 206;
}
);
metricLeft = "=idotless*.15";
metricRight = "=idotless*.15";
unicode = 301;
},
{
glyphname = icircumflex;
kernLeft = l;
kernRight = l;
layers = (
{
layerId = m01;
shapes = (
{
closed = 1;
nodes = (
(67,580,l),
(111,690,l),
(155,580,l),
(218,580,l),
(168,730,l),
(54,730,l),
(4,580,l)
);
},
{
pos = (-2,0);
ref = idotless;
}
);
width = 222;
},
{
layerId = m005;
shapes = (
{
closed = 1;
nodes = (
(103,580,l),
(133,680,l),
(163,580,l),
(262,580,l),
(210,720,l),
(56,720,l),
(4,580,l)
);
},
{
pos = (4,0);
ref = idotless;
}
);
width = 266;
},
{
layerId = m007;
shapes = (
{
closed = 1;
nodes = (
(45,590,l),
(105,700,l),
(165,590,l),
(206,590,l),
(156,720,l),
(54,720,l),
(4,590,l)
);
},
{
pos = (-5,0);
ref = idotless;
}
);
width = 210;
},
{
layerId = m004;
shapes = (
{
closed = 1;
nodes = (
(129,580,l),
(195,690,l),
(217,580,l),
(280,580,l),
(259,730,l),
(145,730,l),
(66,580,l)
);
},
{
pos = (-2,0);
ref = idotless;
}
);
width = 216;
},
{
layerId = m008;
shapes = (
{
closed = 1;
nodes = (
(165,580,l),
(215,680,l),
(225,580,l),
(324,580,l),
(299,720,l),
(145,720,l),
(66,580,l)
);
},
{
pos = (-1,0);
ref = idotless;
}
);
width = 260;
},
{
layerId = m006;
shapes = (
{
closed = 1;
nodes = (
(109,590,l),
(190,700,l),
(229,590,l),
(270,590,l),
(245,720,l),
(143,720,l),
(68,590,l)
);
},
{
pos = (-2,0);
ref = idotless;
}
);
width = 204;
}
);
metricLeft = "=idotless*.05";
metricRight = "=idotless*.05";
unicode = 238;
},
{
glyphname = idieresis;
kernLeft = l;
kernRight = l;
layers = (
{
layerId = m01;
shapes = (
{
closed = 1;
nodes = (
(209,580,l),
(209,660,l),
(134,660,l),
(134,580,l)
);
},
{
pos = (2,0);
ref = idotless;
},
{
closed = 1;
nodes = (
(96,580,l),
(96,660,l),
(21,660,l),
(21,580,l)
);
}
);
width = 230;
},
{
layerId = m005;
shapes = (
{
closed = 1;
nodes = (
(261,570,l),
(261,690,l),
(156,690,l),
(156,570,l)
);
},
{
pos = (12,0);
ref = idotless;
},
{
closed = 1;
nodes = (
(126,570,l),
(126,690,l),
(21,690,l),
(21,570,l)
);
}
);
width = 282;
},
{
layerId = m007;
shapes = (
{
closed = 1;
nodes = (
(199,590,l),
(199,650,l),
(139,650,l),
(139,590,l)
);
},
{
ref = idotless;
},
{
closed = 1;
nodes = (
(81,590,l),
(81,650,l),
(21,650,l),
(21,590,l)
);
}
);
width = 220;
},
{
layerId = m004;
shapes = (
{
closed = 1;
nodes = (
(262,580,l),
(278,660,l),
(203,660,l),
(187,580,l)
);
},
{
pos = (-9,0);
ref = idotless;
},
{
closed = 1;
nodes = (
(149,580,l),
(165,660,l),
(90,660,l),
(74,580,l)
);
}
);
width = 198;
},
{
layerId = m008;
shapes = (
{
closed = 1;
nodes = (
(312,570,l),
(336,690,l),
(231,690,l),
(207,570,l)
);
},
{
pos = (-5,0);
ref = idotless;
},
{
closed = 1;
nodes = (
(177,570,l),
(201,690,l),
(96,690,l),
(72,570,l)
);
}
);
width = 250;
},
{
layerId = m006;
shapes = (
{
closed = 1;
nodes = (
(254,590,l),
(266,650,l),
(206,650,l),
(194,590,l)
);
},
{
pos = (-11,0);
ref = idotless;
},
{
closed = 1;
nodes = (
(136,590,l),
(148,650,l),
(88,650,l),
(76,590,l)
);
}
);
width = 188;
}
);
metricLeft = "=idotless*.25";
metricRight = "=idotless*.25";
unicode = 239;
},
{
glyphname = imacron;
kernLeft = l;
kernRight = l;
layers = (
{
anchors = (
{
name = top;
pos = (118,643);
}
);
layerId = m01;
shapes = (
{
pos = (5,0);
ref = idotless;
},
{
closed = 1;
nodes = (
(219,580,l),
(219,643,l),
(17,643,l),
(17,580,l)
);
}
);
width = 236;
},
{
anchors = (
{
name = top;
pos = (133,673);
}
);
layerId = m005;
shapes = (
{
pos = (4,0);
ref = idotless;
},
{
closed = 1;
nodes = (
(249,570,l),
(249,673,l),
(17,673,l),
(17,570,l)
);
}
);
width = 266;
},
{
anchors = (
{
name = top;
pos = (108,633);
}
);
layerId = m007;
shapes = (
{
pos = (-2,0);
ref = idotless;
},
{
closed = 1;
nodes = (
(199,590,l),
(199,633,l),
(17,633,l),
(17,590,l)
);
}
);
width = 216;
},
{
anchors = (
{
name = top;
pos = (185,643);
}
);
layerId = m004;
shapes = (
{
pos = (-5,0);
ref = idotless;
},
{
closed = 1;
nodes = (
(274,580,l),
(286,643,l),
(84,643,l),
(72,580,l)
);
}
);
width = 210;
},
{
anchors = (
{
name = top;
pos = (206,673);
}
);
layerId = m008;
shapes = (
{
pos = (-6,0);
ref = idotless;
},
{
closed = 1;
nodes = (
(302,570,l),
(322,673,l),
(90,673,l),
(70,570,l)
);
}
);
width = 240;
},
{
anchors = (
{
name = top;
pos = (173,633);
}
);
layerId = m006;
shapes = (
{
pos = (-12,0);
ref = idotless;
},
{
closed = 1;
nodes = (
(256,590,l),
(264,633,l),
(82,633,l),
(74,590,l)
);
}
);
width = 190;
}
);
metricLeft = "=idotless*.2";
metricRight = "=idotless*.2";
unicode = 299;
},
{
glyphname = itilde;
kernLeft = l;
kernRight = l;
layers = (
{
anchors = (
{
name = top;
pos = (122,699);
}
);
layerId = m01;
shapes = (
{
pos = (9,0);
ref = idotless;
},
{
closed = 1;
nodes = (
(207,580,o),
(243,625,o),
(243,689,c),
(180,689,l),
(180,662,o),
(171,643,o),
(158,643,cs),
(137,643,o),
(142,699,o),
(87,699,cs),
(37,699,o),
(1,654,o),
(1,590,c),
(64,590,l),
(64,617,o),
(73,636,o),
(85,636,cs),
(106,636,o),
(102,580,o),
(157,580,cs)
);
}
);
width = 244;
},
{
anchors = (
{
name = top;
pos = (131,742);
}
);
layerId = m005;
shapes = (
{
pos = (2,0);
ref = idotless;
},
{
closed = 1;
nodes = (
(234,580,o),
(261,632,o),
(261,732,c),
(179,732,l),
(179,701,o),
(172,684,o),
(160,684,cs),
(137,684,o),
(140,742,o),
(83,742,cs),
(31,742,o),
(1,693,o),
(1,590,c),
(83,590,l),
(83,622,o),
(90,637,o),
(102,637,cs),
(126,637,o),
(125,580,o),
(181,580,cs)
);
}
);
width = 262;
},
{
anchors = (
{
name = top;
pos = (112,689);
}
);
layerId = m007;
shapes = (
{
pos = (2,0);
ref = idotless;
},
{
closed = 1;
nodes = (
(188,590,o),
(219,628,o),
(223,680,c),
(180,680,l),
(180,653,o),
(167,633,o),
(150,633,cs),
(121,633,o),
(126,689,o),
(76,689,cs),
(36,689,o),
(4,652,o),
(1,599,c),
(45,599,l),
(49,626,o),
(62,646,o),
(76,646,cs),
(100,646,o),
(99,590,o),
(148,590,cs)
);
}
);
width = 224;
},
{
anchors = (
{
name = top;
pos = (208,699);
}
);
layerId = m004;
shapes = (
{
pos = (-1,0);
ref = idotless;
},
{
closed = 1;
nodes = (
(282,580,o),
(314,617,o),
(327,689,c),
(264,689,l),
(259,662,o),
(246,643,o),
(233,643,cs),
(211,643,o),
(219,699,o),
(159,699,cs),
(107,699,o),
(80,657,o),
(66,590,c),
(129,590,l),
(134,618,o),
(147,636,o),
(159,636,cs),
(181,636,o),
(172,580,o),
(233,580,cs)
);
}
);
width = 242;
},
{
anchors = (
{
name = top;
pos = (235,742);
}
);
layerId = m008;
shapes = (
{
pos = (-1,0);
ref = idotless;
},
{
closed = 1;
nodes = (
(295,580,o),
(334,634,o),
(354,732,c),
(272,732,l),
(265,700,o),
(256,684,o),
(244,684,cs),
(222,684,o),
(230,742,o),
(176,742,cs),
(122,742,o),
(84,683,o),
(66,590,c),
(148,590,l),
(153,619,o),
(163,637,o),
(176,637,cs),
(199,637,o),
(192,580,o),
(244,580,cs)
);
}
);
width = 260;
},
{
anchors = (
{
name = top;
pos = (197,689);
}
);
layerId = m006;
shapes = (
{
pos = (-1,0);
ref = idotless;
},
{
closed = 1;
nodes = (
(261,590,o),
(288,619,o),
(306,680,c),
(263,680,l),
(257,652,o),
(241,633,o),
(223,633,cs),
(193,633,o),
(206,689,o),
(152,689,cs),
(110,689,o),
(81,654,o),
(68,599,c),
(112,599,l),
(122,628,o),
(138,646,o),
(152,646,cs),
(177,646,o),
(171,590,o),
(223,590,cs)
);
}
);
width = 222;
}
);
metricLeft = "=idotless*.01";
metricRight = "=idotless*.01";
unicode = 297;
},
{
glyphname = jdotless;
kernLeft = j;
kernRight = j;
layers = (
{
anchors = (
{
name = bottom;
pos = (123,-225);
},
{
name = top;
pos = (127,500);
}
);
layerId = m01;
shapes = (
{
closed = 1;
nodes = (
(25,-200,ls),
(119,-200,o),
(165,-154,o),
(165,-60,cs),
(165,500,l),
(90,500,l),
(90,-67,ls),
(90,-107,o),
(70,-127,o),
(30,-127,cs),
(-60,-127,l),
(-60,-200,l)
);
}
);
width = 254;
},
{
anchors = (
{
name = bottom;
pos = (139,-225);
},
{
name = top;
pos = (165,500);
}
);
layerId = m005;
shapes = (
{
closed = 1;
nodes = (
(55,-200,ls),
(169,-200,o),
(225,-147,o),
(225,-40,cs),
(225,500,l),
(90,500,l),
(90,-27,ls),
(90,-67,o),
(70,-87,o),
(30,-87,cs),
(-60,-87,l),
(-60,-200,l)
);
}
);
width = 315;
},
{
anchors = (
{
name = bottom;
pos = (120,-225);
},
{
name = top;
pos = (120,500);
}
);
layerId = m007;
shapes = (
{
closed = 1;
nodes = (
(15,-200,ls),
(102,-200,o),
(145,-157,o),
(145,-70,cs),
(145,500,l),
(90,500,l),
(90,-77,ls),
(90,-124,o),
(67,-147,o),
(20,-147,cs),
(-60,-147,l),
(-60,-200,l)
);
}
);
width = 234;
},
{
anchors = (
{
name = bottom;
pos = (-57,-225);
},
{
name = top;
pos = (91,500);
}
);
layerId = m004;
shapes = (
{
closed = 1;
nodes = (
(-131,-200,ls),
(-57,-200,o),
(0,-145,o),
(17,-60,cs),
(126,500,l),
(51,500,l),
(-59,-67,ls),
(-66,-103,o),
(-94,-127,o),
(-131,-127,cs),
(-221,-127,l),
(-235,-200,l)
);
}
);
width = 118;
},
{
anchors = (
{
name = bottom;
pos = (-41,-225);
},
{
name = top;
pos = (120,500);
}
);
layerId = m008;
shapes = (
{
closed = 1;
nodes = (
(-113,-200,ls),
(-12,-200,o),
(60,-149,o),
(76,-67,cs),
(186,500,l),
(51,500,l),
(-51,-27,ls),
(-58,-64,o),
(-82,-87,o),
(-113,-87,cs),
(-213,-87,l),
(-235,-200,l)
);
}
);
width = 179;
},
{
anchors = (
{
name = bottom;
pos = (-60,-225);
},
{
name = top;
pos = (79,500);
}
);
layerId = m006;
shapes = (
{
closed = 1;
nodes = (
(-145,-200,ls),
(-75,-200,o),
(-20,-149,o),
(-5,-70,cs),
(106,500,l),
(51,500,l),
(-61,-77,ls),
(-69,-119,o),
(-102,-147,o),
(-145,-147,cs),
(-225,-147,l),
(-235,-200,l)
);
}
);
width = 98;
}
);
unicode = 567;
},
{
glyphname = k;
kernLeft = l;
kernRight = k;
layers = (
{
anchors = (
{
name = bottom;
pos = (272,0);
},
{
name = top;
pos = (272,965);
}
);
layerId = m01;
shapes = (
{
closed = 1;
nodes = (
(493,500,l),
(398,500,l),
(107,201,l),
(159,154,l)
);
},
{
closed = 1;
nodes = (
(164,0,l),
(164,700,l),
(89,700,l),
(89,0,l)
);
},
{
closed = 1;
nodes = (
(505,0,l),
(287,363,l),
(247,290,l),
(417,0,l)
);
}
);
width = 518;
},
{
anchors = (
{
name = bottom;
pos = (320,0);
},
{
name = top;
pos = (320,965);
}
);
layerId = m005;
shapes = (
{
closed = 1;
nodes = (
(590,500,l),
(412,500,l),
(126,240,l),
(212,146,l)
);
},
{
closed = 1;
nodes = (
(224,0,l),
(224,700,l),
(89,700,l),
(89,0,l)
);
},
{
closed = 1;
nodes = (
(588,0,l),
(360,362,l),
(251,290,l),
(428,0,l)
);
}
);
width = 601;
},
{
anchors = (
{
name = bottom;
pos = (256,0);
},
{
name = top;
pos = (256,965);
}
);
layerId = m007;
shapes = (
{
closed = 1;
nodes = (
(459,500,l),
(392,500,l),
(111,201,l),
(111,127,l)
);
},
{
closed = 1;
nodes = (
(144,0,l),
(144,700,l),
(89,700,l),
(89,0,l)
);
},
{
closed = 1;
nodes = (
(477,0,l),
(277,343,l),
(248,290,l),
(413,0,l)
);
}
);
width = 489;
},
{
anchors = (
{
name = bottom;
pos = (175,0);
},
{
name = top;
pos = (363,965);
}
);
layerId = m004;
shapes = (
{
closed = 1;
nodes = (
(493,500,l),
(393,500,l),
(44,201,l),
(92,154,l)
);
},
{
closed = 1;
nodes = (
(67,0,l),
(203,700,l),
(128,700,l),
(-8,0,l)
);
},
{
closed = 1;
nodes = (
(408,0,l),
(261,363,l),
(216,290,l),
(330,0,l)
);
}
);
width = 447;
},
{
anchors = (
{
name = bottom;
pos = (222,0);
},
{
name = top;
pos = (410,965);
}
);
layerId = m008;
shapes = (
{
closed = 1;
nodes = (
(590,500,l),
(407,500,l),
(71,240,l),
(143,146,l)
);
},
{
closed = 1;
nodes = (
(127,0,l),
(263,700,l),
(128,700,l),
(-8,0,l)
);
},
{
closed = 1;
nodes = (
(491,0,l),
(333,362,l),
(215,290,l),
(336,0,l)
);
}
);
width = 528;
},
{
anchors = (
{
name = bottom;
pos = (159,0);
},
{
name = top;
pos = (347,965);
}
);
layerId = m006;
shapes = (
{
closed = 1;
nodes = (
(459,500,l),
(386,500,l),
(47,201,l),
(39,127,l)
);
},
{
closed = 1;
nodes = (
(47,0,l),
(183,700,l),
(128,700,l),
(-8,0,l)
);
},
{
closed = 1;
nodes = (
(380,0,l),
(247,343,l),
(212,290,l),
(321,0,l)
);
}
);
width = 420;
}
);
metricLeft = h;
unicode = 107;
},
{
glyphname = l;
kernLeft = l;
kernRight = l;
layers = (
{
anchors = (
{
name = bottom;
pos = (128,0);
},
{
name = center;
pos = (128,483);
},
{
name = top;
pos = (128,700);
},
{
name = topright;
pos = (225,965);
}
);
layerId = m01;
shapes = (
{
closed = 1;
nodes = (
(165,0,l),
(165,710,l),
(90,710,l),
(90,0,l)
);
}
);
width = 255;
},
{
anchors = (
{
name = bottom;
pos = (158,0);
},
{
name = center;
pos = (158,483);
},
{
name = top;
pos = (158,700);
},
{
name = topright;
pos = (271,965);
}
);
layerId = m005;
shapes = (
{
closed = 1;
nodes = (
(225,0,l),
(225,710,l),
(90,710,l),
(90,0,l)
);
}
);
width = 315;
},
{
anchors = (
{
name = bottom;
pos = (118,0);
},
{
name = center;
pos = (118,483);
},
{
name = top;
pos = (118,700);
},
{
name = topright;
pos = (212,965);
}
);
layerId = m007;
shapes = (
{
closed = 1;
nodes = (
(145,0,l),
(145,710,l),
(90,710,l),
(90,0,l)
);
}
);
width = 235;
},
{
anchors = (
{
name = bottom;
pos = (30,0);
},
{
name = center;
pos = (124,483);
},
{
name = top;
pos = (166,700);
},
{
name = topright;
pos = (315,965);
}
);
layerId = m004;
shapes = (
{
closed = 1;
nodes = (
(67,0,l),
(205,710,l),
(130,710,l),
(-8,0,l)
);
}
);
width = 117;
},
{
anchors = (
{
name = bottom;
pos = (60,0);
},
{
name = center;
pos = (154,483);
},
{
name = top;
pos = (192,700);
},
{
name = topright;
pos = (361,965);
}
);
layerId = m008;
shapes = (
{
closed = 1;
nodes = (
(127,0,l),
(265,710,l),
(130,710,l),
(-8,0,l)
);
}
);
width = 177;
},
{
anchors = (
{
name = bottom;
pos = (20,0);
},
{
name = center;
pos = (114,483);
},
{
name = top;
pos = (154,700);
},
{
name = topright;
pos = (302,965);
}
);
layerId = m006;
shapes = (
{
closed = 1;
nodes = (
(47,0,l),
(185,710,l),
(130,710,l),
(-8,0,l)
);
}
);
width = 97;
}
);
unicode = 108;
},
{
glyphname = lslash;
kernLeft = l;
kernRight = l;
layers = (
{
layerId = m01;
shapes = (
{
closed = 1;
nodes = (
(218,385,l),
(218,445,l),
(18,325,l),
(18,265,l)
);
},
{
pos = (1,0);
ref = l;
}
);
width = 236;
},
{
layerId = m005;
shapes = (
{
closed = 1;
nodes = (
(298,369,l),
(298,473,l),
(18,341,l),
(18,237,l)
);
},
{
pos = (25,0);
ref = l;
}
);
width = 316;
},
{
layerId = m007;
shapes = (
{
closed = 1;
nodes = (
(198,386,l),
(198,427,l),
(18,319,l),
(18,278,l)
);
},
{
pos = (-6,0);
ref = l;
}
);
width = 216;
},
{
layerId = m004;
shapes = (
{
closed = 1;
nodes = (
(235,385,l),
(246,445,l),
(23,325,l),
(11,265,l)
);
},
{
pos = (-9,0);
ref = l;
}
);
width = 209;
},
{
layerId = m008;
shapes = (
{
closed = 1;
nodes = (
(312,369,l),
(332,473,l),
(26,341,l),
(6,237,l)
);
},
{
pos = (16,0);
ref = l;
}
);
width = 289;
},
{
layerId = m006;
shapes = (
{
closed = 1;
nodes = (
(215,386,l),
(222,427,l),
(21,319,l),
(14,278,l)
);
},
{
pos = (-16,0);
ref = l;
}
);
width = 189;
}
);
metricLeft = "=l*.2";
metricRight = "=l*.2";
unicode = 322;
},
{
glyphname = m;
kernLeft = m;
kernRight = m;
layers = (
{
anchors = (
{
name = bottom;
pos = (442,0);
},
{
name = top;
pos = (442,500);
}
);
layerId = m01;
shapes = (
{
closed = 1;
nodes = (
(800,0,l),
(800,329,ls),
(800,443,o),
(737,516,o),
(639,516,cs),
(537,516,o),
(457,438,o),
(457,339,c),
(482,243,l),
(482,367,o),
(535,443,o),
(622,443,cs),
(687,443,o),
(725,400,o),
(725,329,cs),
(725,0,l)
);
},
{
closed = 1;
nodes = (
(164,0,l),
(164,500,l),
(89,500,l),
(89,0,l)
);
},
{
closed = 1;
nodes = (
(482,0,l),
(482,329,ls),
(482,442,o),
(418,516,o),
(321,516,cs),
(222,516,o),
(149,440,o),
(149,339,c),
(164,243,l),
(164,367,o),
(217,443,o),
(304,443,cs),
(369,443,o),
(407,400,o),
(407,329,cs),
(407,0,l)
);
}
);
width = 879;
},
{
anchors = (
{
name = bottom;
pos = (473,0);
},
{
name = top;
pos = (473,500);
}
);
layerId = m005;
shapes = (
{
closed = 1;
nodes = (
(860,0,l),
(860,299,ls),
(860,438,o),
(802,516,o),
(699,516,cs),
(587,516,o),
(506,423,o),
(506,293,c),
(542,243,l),
(542,340,o),
(584,403,o),
(648,403,cs),
(698,403,o),
(725,365,o),
(725,293,cs),
(725,0,l)
);
},
{
closed = 1;
nodes = (
(224,0,l),
(224,500,l),
(89,500,l),
(89,0,l)
);
},
{
closed = 1;
nodes = (
(542,0,l),
(542,299,ls),
(542,438,o),
(484,516,o),
(381,516,cs),
(271,516,o),
(198,427,o),
(198,293,c),
(224,243,l),
(224,340,o),
(266,403,o),
(330,403,cs),
(380,403,o),
(407,365,o),
(407,293,cs),
(407,0,l)
);
}
);
width = 938;
},
{
anchors = (
{
name = bottom;
pos = (432,0);
},
{
name = top;
pos = (432,500);
}
);
layerId = m007;
shapes = (
{
closed = 1;
nodes = (
(780,0,l),
(780,319,ls),
(780,436,o),
(714,516,o),
(617,516,cs),
(516,516,o),
(437,429,o),
(437,319,c),
(462,243,l),
(462,378,o),
(520,463,o),
(612,463,cs),
(684,463,o),
(725,411,o),
(725,319,cs),
(725,0,l)
);
},
{
closed = 1;
nodes = (
(144,0,l),
(144,500,l),
(89,500,l),
(89,0,l)
);
},
{
closed = 1;
nodes = (
(462,0,l),
(462,319,ls),
(462,436,o),
(396,516,o),
(300,516,cs),
(200,516,o),
(124,430,o),
(124,319,c),
(144,243,l),
(144,378,o),
(202,463,o),
(294,463,cs),
(366,463,o),
(407,411,o),
(407,319,cs),
(407,0,l)
);
}
);
width = 858;
},
{
anchors = (
{
name = bottom;
pos = (346,0);
},
{
name = top;
pos = (444,500);
}
);
layerId = m004;
shapes = (
{
closed = 1;
nodes = (
(704,0,l),
(762,300,ls),
(787,428,o),
(729,516,o),
(621,516,cs),
(521,516,o),
(440,442,o),
(429,339,c),
(433,243,l),
(455,363,o),
(526,443,o),
(609,443,cs),
(676,443,o),
(705,391,o),
(687,300,cs),
(629,0,l)
);
},
{
closed = 1;
nodes = (
(68,0,l),
(165,500,l),
(90,500,l),
(-7,0,l)
);
},
{
closed = 1;
nodes = (
(386,0,l),
(444,300,ls),
(469,427,o),
(412,516,o),
(307,516,cs),
(211,516,o),
(135,443,o),
(121,339,c),
(115,243,l),
(137,363,o),
(208,443,o),
(291,443,cs),
(358,443,o),
(387,391,o),
(369,300,cs),
(311,0,l)
);
}
);
width = 813;
},
{
anchors = (
{
name = bottom;
pos = (376,0);
},
{
name = top;
pos = (474,500);
}
);
layerId = m008;
shapes = (
{
closed = 1;
nodes = (
(764,0,l),
(826,319,ls),
(849,434,o),
(790,516,o),
(685,516,cs),
(575,516,o),
(484,427,o),
(457,293,c),
(493,243,l),
(515,349,o),
(557,403,o),
(618,403,cs),
(671,403,o),
(700,362,o),
(688,303,cs),
(629,0,l)
);
},
{
closed = 1;
nodes = (
(128,0,l),
(225,500,l),
(90,500,l),
(-7,0,l)
);
},
{
closed = 1;
nodes = (
(446,0,l),
(508,319,ls),
(530,434,o),
(473,516,o),
(371,516,cs),
(267,516,o),
(185,430,o),
(159,293,c),
(175,243,l),
(197,349,o),
(239,403,o),
(300,403,cs),
(353,403,o),
(382,362,o),
(370,303,cs),
(311,0,l)
);
}
);
width = 871;
},
{
anchors = (
{
name = bottom;
pos = (335,0);
},
{
name = top;
pos = (433,500);
}
);
layerId = m006;
shapes = (
{
closed = 1;
nodes = (
(684,0,l),
(744,309,ls),
(767,429,o),
(708,516,o),
(603,516,cs),
(502,516,o),
(417,437,o),
(393,319,c),
(413,243,l),
(439,379,o),
(509,463,o),
(598,463,cs),
(673,463,o),
(708,404,o),
(689,309,cs),
(629,0,l)
);
},
{
closed = 1;
nodes = (
(48,0,l),
(145,500,l),
(90,500,l),
(-7,0,l)
);
},
{
closed = 1;
nodes = (
(366,0,l),
(426,309,ls),
(449,430,o),
(391,516,o),
(288,516,cs),
(191,516,o),
(114,440,o),
(90,319,c),
(95,243,l),
(121,379,o),
(191,463,o),
(280,463,cs),
(355,463,o),
(390,404,o),
(371,309,cs),
(311,0,l)
);
}
);
width = 792;
}
);
unicode = 109;
},
{
glyphname = n;
kernLeft = m;
kernRight = m;
layers = (
{
anchors = (
{
name = bottom;
pos = (288,0);
},
{
name = top;
pos = (288,500);
}
);
layerId = m01;
shapes = (
{
closed = 1;
nodes = (
(492,0,l),
(492,329,ls),
(492,444,o),
(429,516,o),
(330,516,cs),
(228,516,o),
(149,439,o),
(149,339,c),
(164,243,l),
(164,364,o),
(224,443,o),
(314,443,cs),
(379,443,o),
(417,401,o),
(417,329,cs),
(417,0,l)
);
},
{
closed = 1;
nodes = (
(164,0,l),
(164,500,l),
(89,500,l),
(89,0,l)
);
}
);
width = 571;
},
{
anchors = (
{
name = bottom;
pos = (319,0);
},
{
name = top;
pos = (319,500);
}
);
layerId = m005;
shapes = (
{
closed = 1;
nodes = (
(552,0,l),
(552,299,ls),
(552,437,o),
(492,516,o),
(386,516,cs),
(273,516,o),
(198,427,o),
(198,293,c),
(224,243,l),
(224,339,o),
(268,403,o),
(335,403,cs),
(387,403,o),
(417,363,o),
(417,293,cs),
(417,0,l)
);
},
{
closed = 1;
nodes = (
(224,0,l),
(224,500,l),
(89,500,l),
(89,0,l)
);
}
);
width = 630;
},
{
anchors = (
{
name = bottom;
pos = (278,0);
},
{
name = top;
pos = (278,500);
}
);
layerId = m007;
shapes = (
{
closed = 1;
nodes = (
(472,0,l),
(472,319,ls),
(472,439,o),
(408,516,o),
(310,516,cs),
(206,516,o),
(124,430,o),
(124,319,c),
(144,243,l),
(144,376,o),
(207,463,o),
(304,463,cs),
(377,463,o),
(417,413,o),
(417,319,cs),
(417,0,l)
);
},
{
closed = 1;
nodes = (
(144,0,l),
(144,500,l),
(89,500,l),
(89,0,l)
);
}
);
width = 550;
},
{
anchors = (
{
name = bottom;
pos = (192,0);
},
{
name = top;
pos = (290,500);
}
);
layerId = m004;
shapes = (
{
closed = 1;
nodes = (
(396,0,l),
(454,300,ls),
(478,428,o),
(420,516,o),
(311,516,cs),
(213,516,o),
(135,444,o),
(121,339,c),
(115,243,l),
(137,364,o),
(207,443,o),
(292,443,cs),
(363,443,o),
(396,388,o),
(379,300,cs),
(321,0,l)
);
},
{
closed = 1;
nodes = (
(68,0,l),
(165,500,l),
(90,500,l),
(-7,0,l)
);
}
);
width = 505;
},
{
anchors = (
{
name = bottom;
pos = (222,0);
},
{
name = top;
pos = (320,500);
}
);
layerId = m008;
shapes = (
{
closed = 1;
nodes = (
(456,0,l),
(518,319,ls),
(540,432,o),
(479,516,o),
(373,516,cs),
(267,516,o),
(185,431,o),
(159,293,c),
(175,243,l),
(194,343,o),
(244,403,o),
(309,403,cs),
(363,403,o),
(392,362,o),
(380,303,cs),
(321,0,l)
);
},
{
closed = 1;
nodes = (
(128,0,l),
(225,500,l),
(90,500,l),
(-7,0,l)
);
}
);
width = 563;
},
{
anchors = (
{
name = bottom;
pos = (181,0);
},
{
name = top;
pos = (279,500);
}
);
layerId = m006;
shapes = (
{
closed = 1;
nodes = (
(376,0,l),
(436,309,ls),
(459,430,o),
(400,516,o),
(295,516,cs),
(194,516,o),
(112,437,o),
(90,319,c),
(95,243,l),
(123,378,o),
(197,463,o),
(288,463,cs),
(364,463,o),
(400,404,o),
(381,309,cs),
(321,0,l)
);
},
{
closed = 1;
nodes = (
(48,0,l),
(145,500,l),
(90,500,l),
(-7,0,l)
);
}
);
width = 484;
}
);
metricLeft = m;
metricRight = m;
unicode = 110;
},
{
glyphname = eng;
kernLeft = m;
kernRight = m;
layers = (
{
anchors = (
{
name = bottom;
pos = (277,0);
},
{
name = top;
pos = (277,500);
}
);
layerId = m01;
shapes = (
{
closed = 1;
nodes = (
(338,-200,ls),
(432,-200,o),
(478,-154,o),
(478,-60,cs),
(478,0,l),
(403,0,l),
(403,-67,ls),
(403,-107,o),
(383,-127,o),
(343,-127,cs),
(253,-127,l),
(253,-200,l)
);
},
{
ref = n;
}
);
width = 572;
},
{
anchors = (
{
name = bottom;
pos = (294,0);
},
{
name = top;
pos = (294,500);
}
);
layerId = m005;
shapes = (
{
closed = 1;
nodes = (
(353,-200,ls),
(467,-200,o),
(523,-147,o),
(523,-40,cs),
(523,0,l),
(388,0,l),
(388,-27,ls),
(388,-67,o),
(368,-87,o),
(328,-87,cs),
(238,-87,l),
(238,-200,l)
);
},
{
ref = n;
}
);
width = 622;
},
{
anchors = (
{
name = bottom;
pos = (271,0);
},
{
name = top;
pos = (271,500);
}
);
layerId = m007;
shapes = (
{
closed = 1;
nodes = (
(336,-200,ls),
(423,-200,o),
(466,-157,o),
(466,-70,cs),
(466,0,l),
(411,0,l),
(411,-77,ls),
(411,-124,o),
(388,-147,o),
(341,-147,cs),
(261,-147,l),
(261,-200,l)
);
},
{
ref = n;
}
);
width = 549;
},
{
anchors = (
{
name = bottom;
pos = (228,0);
},
{
name = top;
pos = (326,500);
}
);
layerId = m004;
shapes = (
{
closed = 1;
nodes = (
(270,-200,ls),
(339,-200,o),
(401,-141,o),
(418,-60,cs),
(430,0,l),
(355,0,l),
(342,-67,ls),
(334,-105,o),
(308,-127,o),
(270,-127,cs),
(180,-127,l),
(166,-200,l)
);
},
{
ref = n;
}
);
width = 507;
},
{
anchors = (
{
name = bottom;
pos = (245,0);
},
{
name = top;
pos = (343,500);
}
);
layerId = m008;
shapes = (
{
closed = 1;
nodes = (
(273,-200,ls),
(374,-200,o),
(447,-149,o),
(462,-67,cs),
(475,0,l),
(340,0,l),
(335,-27,ls),
(327,-64,o),
(304,-87,o),
(273,-87,cs),
(173,-87,l),
(151,-200,l)
);
},
{
ref = n;
}
);
width = 551;
},
{
anchors = (
{
name = bottom;
pos = (222,0);
},
{
name = top;
pos = (320,500);
}
);
layerId = m006;
shapes = (
{
closed = 1;
nodes = (
(264,-200,ls),
(334,-200,o),
(388,-150,o),
(404,-70,cs),
(418,0,l),
(363,0,l),
(348,-77,ls),
(340,-120,o),
(307,-147,o),
(264,-147,cs),
(184,-147,l),
(174,-200,l)
);
},
{
ref = n;
}
);
width = 497;
}
);
metricLeft = m;
metricRight = j;
unicode = 331;
},
{
glyphname = o;
kernLeft = o;
kernRight = o;
layers = (
{
anchors = (
{
name = bottom;
pos = (282,0);
},
{
name = center;
pos = (282,250);
},
{
name = ogonek;
pos = (506,10);
},
{
name = top;
pos = (282,500);
},
{
name = topright;
pos = (542,500);
}
);
layerId = m01;
shapes = (
{
closed = 1;
nodes = (
(421,-16,o),
(517,91,o),
(517,248,cs),
(517,406,o),
(420,516,o),
(282,516,cs),
(143,516,o),
(46,405,o),
(46,248,cs),
(46,92,o),
(142,-16,o),
(282,-16,cs)
);
},
{
closed = 1;
nodes = (
(187,57,o),
(124,133,o),
(124,248,cs),
(124,365,o),
(188,443,o),
(282,443,cs),
(376,443,o),
(440,365,o),
(440,248,cs),
(440,133,o),
(377,57,o),
(282,57,cs)
);
}
);
width = 563;
},
{
anchors = (
{
name = bottom;
pos = (303,0);
},
{
name = center;
pos = (303,250);
},
{
name = ogonek;
pos = (540,10);
},
{
name = top;
pos = (303,500);
},
{
name = topright;
pos = (579,500);
}
);
layerId = m005;
shapes = (
{
closed = 1;
nodes = (
(455,-16,o),
(563,95,o),
(563,250,cs),
(563,405,o),
(455,516,o),
(303,516,cs),
(151,516,o),
(42,405,o),
(42,250,cs),
(42,95,o),
(151,-16,o),
(303,-16,cs)
);
},
{
closed = 1;
nodes = (
(228,97,o),
(180,157,o),
(180,250,cs),
(180,343,o),
(228,403,o),
(303,403,cs),
(378,403,o),
(426,343,o),
(426,250,cs),
(426,157,o),
(378,97,o),
(303,97,cs)
);
}
);
width = 606;
},
{
anchors = (
{
name = bottom;
pos = (274,0);
},
{
name = center;
pos = (274,250);
},
{
name = ogonek;
pos = (495,10);
},
{
name = top;
pos = (274,500);
},
{
name = topright;
pos = (530,500);
}
);
layerId = m007;
shapes = (
{
closed = 1;
nodes = (
(408,-16,o),
(500,92,o),
(500,250,cs),
(500,408,o),
(408,516,o),
(274,516,cs),
(140,516,o),
(48,408,o),
(48,250,cs),
(48,92,o),
(140,-16,o),
(274,-16,cs)
);
},
{
closed = 1;
nodes = (
(173,37,o),
(106,122,o),
(106,250,cs),
(106,378,o),
(173,463,o),
(274,463,cs),
(375,463,o),
(442,378,o),
(442,250,cs),
(442,122,o),
(375,37,o),
(274,37,cs)
);
}
);
width = 548;
},
{
anchors = (
{
name = bottom;
pos = (232,0);
},
{
name = center;
pos = (281,250);
},
{
name = ogonek;
pos = (458,10);
},
{
name = top;
pos = (330,500);
},
{
name = topright;
pos = (590,500);
}
);
layerId = m004;
shapes = (
{
closed = 1;
nodes = (
(407,-16,o),
(514,108,o),
(514,276,cs),
(514,421,o),
(429,516,o),
(300,516,cs),
(156,516,o),
(48,391,o),
(48,224,cs),
(48,79,o),
(133,-16,o),
(262,-16,cs)
);
},
{
closed = 1;
nodes = (
(181,57,o),
(125,124,o),
(125,226,cs),
(125,351,o),
(198,443,o),
(297,443,cs),
(383,443,o),
(437,378,o),
(437,275,cs),
(437,149,o),
(365,57,o),
(266,57,cs)
);
}
);
width = 562;
},
{
anchors = (
{
name = bottom;
pos = (254,0);
},
{
name = center;
pos = (303,250);
},
{
name = ogonek;
pos = (492,10);
},
{
name = top;
pos = (352,500);
},
{
name = topright;
pos = (627,500);
}
);
layerId = m008;
shapes = (
{
closed = 1;
nodes = (
(439,-16,o),
(561,109,o),
(561,276,cs),
(561,420,o),
(467,516,o),
(326,516,cs),
(165,516,o),
(44,390,o),
(44,223,cs),
(44,79,o),
(137,-16,o),
(278,-16,cs)
);
},
{
closed = 1;
nodes = (
(222,97,o),
(181,146,o),
(181,225,cs),
(181,327,o),
(240,403,o),
(319,403,cs),
(385,403,o),
(424,356,o),
(424,275,cs),
(424,172,o),
(366,97,o),
(287,97,cs)
);
}
);
width = 605;
},
{
anchors = (
{
name = bottom;
pos = (225,0);
},
{
name = center;
pos = (274,250);
},
{
name = ogonek;
pos = (447,10);
},
{
name = top;
pos = (323,500);
},
{
name = topright;
pos = (578,500);
}
);
layerId = m006;
shapes = (
{
closed = 1;
nodes = (
(395,-16,o),
(496,106,o),
(496,275,cs),
(496,421,o),
(415,516,o),
(290,516,cs),
(152,516,o),
(50,392,o),
(50,223,cs),
(50,78,o),
(131,-16,o),
(255,-16,cs)
);
},
{
closed = 1;
nodes = (
(167,37,o),
(107,111,o),
(107,225,cs),
(107,363,o),
(183,463,o),
(287,463,cs),
(380,463,o),
(439,390,o),
(439,274,cs),
(439,136,o),
(364,37,o),
(259,37,cs)
);
}
);
width = 547;
}
);
unicode = 111;
},
{
glyphname = oslash;
kernLeft = o;
kernRight = o;
layers = (
{
anchors = (
{
name = top;
pos = (308,500);
}
);
layerId = m01;
shapes = (
{
closed = 1;
nodes = (
(110,-66,l),
(584,566,l),
(506,566,l),
(32,-66,l)
);
},
{
pos = (28,0);
ref = o;
}
);
width = 616;
},
{
anchors = (
{
name = top;
pos = (311,500);
}
);
layerId = m005;
shapes = (
{
closed = 1;
nodes = (
(128,-66,l),
(592,566,l),
(493,566,l),
(29,-66,l)
);
},
{
pos = (14,0);
ref = o;
}
);
width = 622;
},
{
anchors = (
{
name = top;
pos = (289,500);
}
);
layerId = m007;
shapes = (
{
closed = 1;
nodes = (
(86,-56,l),
(543,556,l),
(491,556,l),
(34,-56,l)
);
},
{
pos = (13,0);
ref = o;
}
);
width = 577;
},
{
anchors = (
{
name = top;
pos = (349,500);
}
);
layerId = m004;
shapes = (
{
closed = 1;
nodes = (
(53,-66,l),
(629,566,l),
(547,566,l),
(-29,-66,l)
);
},
{
pos = (20,0);
ref = o;
}
);
width = 600;
},
{
anchors = (
{
name = top;
pos = (354,500);
}
);
layerId = m008;
shapes = (
{
closed = 1;
nodes = (
(73,-66,l),
(640,566,l),
(536,566,l),
(-31,-66,l)
);
},
{
pos = (9,0);
ref = o;
}
);
width = 609;
},
{
anchors = (
{
name = top;
pos = (330,500);
}
);
layerId = m006;
shapes = (
{
closed = 1;
nodes = (
(30,-56,l),
(586,556,l),
(531,556,l),
(-25,-56,l)
);
},
{
pos = (7,0);
ref = o;
}
);
width = 561;
}
);
metricLeft = "=o*.7";
metricRight = "=o*.7";
unicode = 248;
},
{
glyphname = oe;
kernLeft = o;
kernRight = o;
layers = (
{
anchors = (
{
name = bottom;
pos = (472,0);
},
{
name = top;
pos = (472,500);
}
);
layerId = m01;
shapes = (
{
closed = 1;
nodes = (
(421,-16,o),
(517,91,o),
(517,248,cs),
(517,406,o),
(420,516,o),
(282,516,cs),
(143,516,o),
(46,405,o),
(46,248,cs),
(46,92,o),
(142,-16,o),
(282,-16,cs)
);
},
{
closed = 1;
nodes = (
(187,57,o),
(124,133,o),
(124,248,cs),
(124,365,o),
(188,443,o),
(282,443,cs),
(376,443,o),
(440,365,o),
(440,248,cs),
(440,133,o),
(377,57,o),
(282,57,cs)
);
},
{
closed = 1;
nodes = (
(791,-16,o),
(875,47,o),
(895,144,c),
(817,154,l),
(803,95,o),
(751,57,o),
(682,57,cs),
(589,57,o),
(525,127,o),
(525,230,c),
(898,230,l),
(898,248,ls),
(898,408,o),
(808,516,o),
(674,516,cs),
(540,516,o),
(447,407,o),
(447,251,cs),
(447,92,o),
(543,-16,o),
(683,-16,cs)
);
},
{
closed = 1;
nodes = (
(525,384,o),
(585,443,o),
(672,443,cs),
(759,443,o),
(820,384,o),
(820,298,c),
(525,298,l)
);
}
);
width = 944;
},
{
anchors = (
{
name = bottom;
pos = (489,0);
},
{
name = top;
pos = (489,500);
}
);
layerId = m005;
shapes = (
{
closed = 1;
nodes = (
(455,-16,o),
(563,95,o),
(563,250,cs),
(563,405,o),
(455,516,o),
(303,516,cs),
(151,516,o),
(42,405,o),
(42,250,cs),
(42,95,o),
(151,-16,o),
(303,-16,cs)
);
},
{
closed = 1;
nodes = (
(228,97,o),
(180,157,o),
(180,250,cs),
(180,343,o),
(228,403,o),
(303,403,cs),
(378,403,o),
(426,343,o),
(426,250,cs),
(426,157,o),
(378,97,o),
(303,97,cs)
);
},
{
closed = 1;
nodes = (
(830,-16,o),
(921,49,o),
(936,147,c),
(800,157,l),
(785,119,o),
(747,97,o),
(697,97,cs),
(624,97,o),
(574,143,o),
(574,210,c),
(936,210,l),
(936,248,ls),
(936,406,o),
(833,516,o),
(686,516,cs),
(540,516,o),
(435,406,o),
(435,251,cs),
(435,91,o),
(544,-16,o),
(705,-16,cs)
);
},
{
closed = 1;
nodes = (
(574,364,o),
(620,403,o),
(686,403,cs),
(752,403,o),
(797,365,o),
(797,308,c),
(574,308,l)
);
}
);
width = 979;
},
{
anchors = (
{
name = bottom;
pos = (465,0);
},
{
name = top;
pos = (465,500);
}
);
layerId = m007;
shapes = (
{
closed = 1;
nodes = (
(408,-16,o),
(500,92,o),
(500,250,cs),
(500,408,o),
(408,516,o),
(274,516,cs),
(140,516,o),
(48,408,o),
(48,250,cs),
(48,92,o),
(140,-16,o),
(274,-16,cs)
);
},
{
closed = 1;
nodes = (
(173,37,o),
(106,122,o),
(106,250,cs),
(106,378,o),
(173,463,o),
(274,463,cs),
(375,463,o),
(442,378,o),
(442,250,cs),
(442,122,o),
(375,37,o),
(274,37,cs)
);
},
{
closed = 1;
nodes = (
(774,-16,o),
(852,43,o),
(876,135,c),
(817,143,l),
(798,78,o),
(743,37,o),
(674,37,cs),
(575,37,o),
(508,119,o),
(508,240,c),
(881,240,l),
(881,248,ls),
(881,411,o),
(799,516,o),
(671,516,cs),
(541,516,o),
(450,407,o),
(450,249,cs),
(450,91,o),
(540,-16,o),
(674,-16,cs)
);
},
{
closed = 1;
nodes = (
(508,390,o),
(575,463,o),
(670,463,cs),
(762,463,o),
(823,394,o),
(823,288,c),
(508,288,l)
);
}
);
width = 929;
},
{
anchors = (
{
name = bottom;
pos = (425,0);
},
{
name = top;
pos = (523,500);
}
);
layerId = m004;
shapes = (
{
closed = 1;
nodes = (
(407,-16,o),
(514,108,o),
(514,276,cs),
(514,421,o),
(429,516,o),
(300,516,cs),
(156,516,o),
(48,391,o),
(48,224,cs),
(48,79,o),
(133,-16,o),
(262,-16,cs)
);
},
{
closed = 1;
nodes = (
(181,57,o),
(125,124,o),
(125,226,cs),
(125,351,o),
(198,443,o),
(297,443,cs),
(383,443,o),
(437,378,o),
(437,275,cs),
(437,149,o),
(365,57,o),
(266,57,cs)
);
},
{
closed = 1;
nodes = (
(758,-16,o),
(838,42,o),
(878,144,c),
(802,154,l),
(773,93,o),
(718,57,o),
(656,57,cs),
(568,57,o),
(513,129,o),
(525,230,c),
(898,230,l),
(904,265,ls),
(929,408,o),
(846,516,o),
(711,516,cs),
(562,516,o),
(446,385,o),
(446,216,cs),
(446,74,o),
(528,-16,o),
(656,-16,cs)
);
},
{
closed = 1;
nodes = (
(556,386,o),
(621,443,o),
(705,443,cs),
(794,443,o),
(850,380,o),
(833,298,c),
(538,298,l)
);
}
);
width = 948;
},
{
anchors = (
{
name = bottom;
pos = (439,0);
},
{
name = top;
pos = (537,500);
}
);
layerId = m008;
shapes = (
{
closed = 1;
nodes = (
(439,-16,o),
(561,109,o),
(561,276,cs),
(561,420,o),
(467,516,o),
(326,516,cs),
(165,516,o),
(44,390,o),
(44,223,cs),
(44,79,o),
(137,-16,o),
(278,-16,cs)
);
},
{
closed = 1;
nodes = (
(222,97,o),
(181,146,o),
(181,225,cs),
(181,327,o),
(240,403,o),
(319,403,cs),
(385,403,o),
(424,356,o),
(424,275,cs),
(424,172,o),
(366,97,o),
(287,97,cs)
);
},
{
closed = 1;
nodes = (
(783,-16,o),
(877,47,o),
(912,147,c),
(777,157,l),
(755,119,o),
(713,97,o),
(665,97,cs),
(594,97,o),
(550,146,o),
(562,210,c),
(924,210,l),
(931,248,ls),
(959,399,o),
(863,516,o),
(711,516,cs),
(554,516,o),
(436,392,o),
(436,226,cs),
(436,79,o),
(528,-16,o),
(669,-16,cs)
);
},
{
closed = 1;
nodes = (
(591,366,o),
(640,403,o),
(705,403,cs),
(773,403,o),
(815,363,o),
(804,308,c),
(581,308,l)
);
}
);
width = 975;
},
{
anchors = (
{
name = bottom;
pos = (416,0);
},
{
name = top;
pos = (514,500);
}
);
layerId = m006;
shapes = (
{
closed = 1;
nodes = (
(395,-16,o),
(496,106,o),
(496,275,cs),
(496,421,o),
(415,516,o),
(290,516,cs),
(152,516,o),
(50,392,o),
(50,223,cs),
(50,78,o),
(131,-16,o),
(255,-16,cs)
);
},
{
closed = 1;
nodes = (
(167,37,o),
(107,111,o),
(107,225,cs),
(107,363,o),
(183,463,o),
(287,463,cs),
(380,463,o),
(439,390,o),
(439,274,cs),
(439,136,o),
(364,37,o),
(259,37,cs)
);
},
{
closed = 1;
nodes = (
(737,-16,o),
(806,34,o),
(853,135,c),
(796,145,l),
(760,73,o),
(711,37,o),
(650,37,cs),
(554,37,o),
(492,124,o),
(506,240,c),
(879,240,l),
(880,248,ls),
(900,408,o),
(824,516,o),
(693,516,cs),
(553,516,o),
(451,393,o),
(451,223,cs),
(451,77,o),
(527,-16,o),
(648,-16,cs)
);
},
{
closed = 1;
nodes = (
(536,396,o),
(604,463,o),
(691,463,cs),
(781,463,o),
(839,391,o),
(830,288,c),
(515,288,l)
);
}
);
width = 929;
}
);
metricLeft = o;
metricRight = e;
unicode = 339;
},
{
glyphname = p;
kernLeft = p;
kernRight = o;
layers = (
{
anchors = (
{
name = bottom;
pos = (304,0);
},
{
name = top;
pos = (304,500);
}
);
layerId = m01;
shapes = (
{
closed = 1;
nodes = (
(463,-16,o),
(552,94,o),
(552,250,cs),
(552,406,o),
(463,516,o),
(335,516,cs),
(229,516,o),
(156,441,o),
(156,330,cs),
(156,170,ls),
(156,59,o),
(229,-16,o),
(335,-16,cs)
);
},
{
closed = 1;
nodes = (
(165,-200,l),
(165,500,l),
(90,500,l),
(90,-200,l)
);
},
{
closed = 1;
nodes = (
(228,57,o),
(166,135,o),
(166,250,cs),
(166,365,o),
(228,443,o),
(320,443,cs),
(412,443,o),
(474,365,o),
(474,250,cs),
(474,135,o),
(412,57,o),
(320,57,cs)
);
}
);
width = 598;
},
{
anchors = (
{
name = bottom;
pos = (336,0);
},
{
name = top;
pos = (336,500);
}
);
layerId = m005;
shapes = (
{
closed = 1;
nodes = (
(522,-16,o),
(612,94,o),
(612,250,cs),
(612,406,o),
(522,516,o),
(394,516,cs),
(278,516,o),
(201,426,o),
(201,290,cs),
(201,210,ls),
(201,74,o),
(278,-16,o),
(394,-16,cs)
);
},
{
closed = 1;
nodes = (
(225,-200,l),
(225,500,l),
(90,500,l),
(90,-200,l)
);
},
{
closed = 1;
nodes = (
(276,97,o),
(226,158,o),
(226,250,cs),
(226,342,o),
(276,403,o),
(350,403,cs),
(424,403,o),
(474,342,o),
(474,250,cs),
(474,158,o),
(424,97,o),
(350,97,cs)
);
}
);
width = 655;
},
{
anchors = (
{
name = bottom;
pos = (293,0);
},
{
name = top;
pos = (293,500);
}
);
layerId = m007;
shapes = (
{
closed = 1;
nodes = (
(447,-16,o),
(532,91,o),
(532,250,cs),
(532,409,o),
(447,516,o),
(322,516,cs),
(214,516,o),
(136,438,o),
(136,330,cs),
(136,170,ls),
(136,63,o),
(215,-16,o),
(322,-16,cs)
);
},
{
closed = 1;
nodes = (
(145,-200,l),
(145,500,l),
(90,500,l),
(90,-200,l)
);
},
{
closed = 1;
nodes = (
(212,37,o),
(146,122,o),
(146,250,cs),
(146,378,o),
(212,463,o),
(310,463,cs),
(408,463,o),
(474,378,o),
(474,250,cs),
(474,122,o),
(408,37,o),
(310,37,cs)
);
}
);
width = 580;
},
{
anchors = (
{
name = bottom;
pos = (208,0);
},
{
name = top;
pos = (306,500);
}
);
layerId = m004;
shapes = (
{
closed = 1;
nodes = (
(395,-16,o),
(506,115,o),
(506,282,cs),
(506,421,o),
(426,516,o),
(309,516,cs),
(209,516,o),
(142,448,o),
(119,323,cs),
(94,193,ls),
(71,72,o),
(138,-16,o),
(254,-16,cs)
);
},
{
closed = 1;
nodes = (
(29,-200,l),
(165,500,l),
(90,500,l),
(-46,-200,l)
);
},
{
closed = 1;
nodes = (
(151,57,o),
(97,149,o),
(122,275,cs),
(143,380,o),
(206,443,o),
(290,443,cs),
(375,443,o),
(428,379,o),
(428,276,cs),
(428,152,o),
(351,57,o),
(250,57,cs)
);
}
);
width = 553;
},
{
anchors = (
{
name = bottom;
pos = (238,0);
},
{
name = top;
pos = (336,500);
}
);
layerId = m008;
shapes = (
{
closed = 1;
nodes = (
(458,-16,o),
(560,109,o),
(560,281,cs),
(560,424,o),
(489,516,o),
(377,516,cs),
(269,516,o),
(186,430,o),
(159,290,cs),
(144,210,ls),
(119,81,o),
(193,-16,o),
(317,-16,cs)
);
},
{
closed = 1;
nodes = (
(89,-200,l),
(225,500,l),
(90,500,l),
(-46,-200,l)
);
},
{
closed = 1;
nodes = (
(201,97,o),
(160,164,o),
(179,259,cs),
(197,346,o),
(253,403,o),
(321,403,cs),
(384,403,o),
(424,353,o),
(424,272,cs),
(424,171,o),
(363,97,o),
(280,97,cs)
);
}
);
width = 605;
},
{
anchors = (
{
name = bottom;
pos = (195,0);
},
{
name = top;
pos = (293,500);
}
);
layerId = m006;
shapes = (
{
closed = 1;
nodes = (
(381,-16,o),
(485,116,o),
(485,295,cs),
(485,434,o),
(418,516,o),
(304,516,cs),
(199,516,o),
(124,445,o),
(98,321,cs),
(78,226,ls),
(48,86,o),
(117,-16,o),
(241,-16,cs)
);
},
{
closed = 1;
nodes = (
(9,-200,l),
(145,500,l),
(90,500,l),
(-46,-200,l)
);
},
{
closed = 1;
nodes = (
(130,37,o),
(73,132,o),
(99,264,cs),
(123,385,o),
(200,463,o),
(294,463,cs),
(381,463,o),
(428,402,o),
(428,289,cs),
(428,141,o),
(349,37,o),
(237,37,cs)
);
}
);
width = 532;
}
);
metricLeft = b;
metricRight = o;
unicode = 112;
},
{
glyphname = thorn;
kernLeft = l;
kernRight = o;
layers = (
{
anchors = (
{
name = bottom;
pos = (305,0);
},
{
name = top;
pos = (305,500);
}
);
layerId = m01;
shapes = (
{
closed = 1;
nodes = (
(462,-16,o),
(551,94,o),
(551,250,cs),
(551,406,o),
(462,516,o),
(334,516,cs),
(228,516,o),
(155,441,o),
(155,330,cs),
(155,170,ls),
(155,59,o),
(228,-16,o),
(334,-16,cs)
);
},
{
closed = 1;
nodes = (
(164,-200,l),
(164,700,l),
(89,700,l),
(89,-200,l)
);
},
{
closed = 1;
nodes = (
(227,57,o),
(165,135,o),
(165,250,cs),
(165,365,o),
(227,443,o),
(319,443,cs),
(411,443,o),
(473,365,o),
(473,250,cs),
(473,135,o),
(411,57,o),
(319,57,cs)
);
}
);
width = 597;
},
{
anchors = (
{
name = bottom;
pos = (338,0);
},
{
name = top;
pos = (338,500);
}
);
layerId = m005;
shapes = (
{
closed = 1;
nodes = (
(521,-16,o),
(611,94,o),
(611,250,cs),
(611,406,o),
(521,516,o),
(393,516,cs),
(277,516,o),
(200,426,o),
(200,290,cs),
(200,210,ls),
(200,74,o),
(277,-16,o),
(393,-16,cs)
);
},
{
closed = 1;
nodes = (
(224,-200,l),
(224,700,l),
(89,700,l),
(89,-200,l)
);
},
{
closed = 1;
nodes = (
(275,97,o),
(225,158,o),
(225,250,cs),
(225,342,o),
(275,403,o),
(349,403,cs),
(423,403,o),
(473,342,o),
(473,250,cs),
(473,158,o),
(423,97,o),
(349,97,cs)
);
}
);
width = 654;
},
{
anchors = (
{
name = bottom;
pos = (294,0);
},
{
name = top;
pos = (294,500);
}
);
layerId = m007;
shapes = (
{
closed = 1;
nodes = (
(446,-16,o),
(531,91,o),
(531,250,cs),
(531,409,o),
(446,516,o),
(321,516,cs),
(213,516,o),
(135,438,o),
(135,330,cs),
(135,170,ls),
(135,63,o),
(214,-16,o),
(321,-16,cs)
);
},
{
closed = 1;
nodes = (
(144,-200,l),
(144,700,l),
(89,700,l),
(89,-200,l)
);
},
{
closed = 1;
nodes = (
(211,37,o),
(145,122,o),
(145,250,cs),
(145,378,o),
(211,463,o),
(309,463,cs),
(407,463,o),
(473,378,o),
(473,250,cs),
(473,122,o),
(407,37,o),
(309,37,cs)
);
}
);
width = 579;
},
{
anchors = (
{
name = bottom;
pos = (211,0);
},
{
name = top;
pos = (309,500);
}
);
layerId = m004;
shapes = (
{
closed = 1;
nodes = (
(397,-16,o),
(508,115,o),
(508,282,cs),
(508,421,o),
(428,516,o),
(311,516,cs),
(211,516,o),
(144,448,o),
(121,323,cs),
(96,193,ls),
(73,72,o),
(140,-16,o),
(256,-16,cs)
);
},
{
closed = 1;
nodes = (
(29,-200,l),
(204,700,l),
(129,700,l),
(-46,-200,l)
);
},
{
closed = 1;
nodes = (
(153,57,o),
(99,149,o),
(124,275,cs),
(145,380,o),
(208,443,o),
(292,443,cs),
(377,443,o),
(430,379,o),
(430,276,cs),
(430,152,o),
(353,57,o),
(252,57,cs)
);
}
);
width = 555;
},
{
anchors = (
{
name = bottom;
pos = (241,0);
},
{
name = top;
pos = (339,500);
}
);
layerId = m008;
shapes = (
{
closed = 1;
nodes = (
(459,-16,o),
(561,109,o),
(561,281,cs),
(561,424,o),
(490,516,o),
(378,516,cs),
(270,516,o),
(187,430,o),
(160,290,cs),
(145,210,ls),
(120,81,o),
(194,-16,o),
(318,-16,cs)
);
},
{
closed = 1;
nodes = (
(89,-200,l),
(264,700,l),
(129,700,l),
(-46,-200,l)
);
},
{
closed = 1;
nodes = (
(202,97,o),
(161,164,o),
(180,259,cs),
(198,346,o),
(254,403,o),
(322,403,cs),
(385,403,o),
(425,353,o),
(425,272,cs),
(425,171,o),
(364,97,o),
(281,97,cs)
);
}
);
width = 606;
},
{
anchors = (
{
name = bottom;
pos = (199,0);
},
{
name = top;
pos = (297,500);
}
);
layerId = m006;
shapes = (
{
closed = 1;
nodes = (
(385,-16,o),
(489,116,o),
(489,295,cs),
(489,434,o),
(422,516,o),
(308,516,cs),
(203,516,o),
(128,445,o),
(102,321,cs),
(82,226,ls),
(52,86,o),
(121,-16,o),
(245,-16,cs)
);
},
{
closed = 1;
nodes = (
(9,-200,l),
(184,700,l),
(129,700,l),
(-46,-200,l)
);
},
{
closed = 1;
nodes = (
(134,37,o),
(77,132,o),
(103,264,cs),
(127,385,o),
(204,463,o),
(298,463,cs),
(385,463,o),
(432,402,o),
(432,289,cs),
(432,141,o),
(353,37,o),
(241,37,cs)
);
}
);
width = 536;
}
);
metricLeft = h;
metricRight = b;
unicode = 254;
},
{
glyphname = q;
kernLeft = o;
kernRight = q;
layers = (
{
anchors = (
{
name = bottom;
pos = (295,0);
},
{
name = top;
pos = (295,500);
}
);
layerId = m01;
shapes = (
{
closed = 1;
nodes = (
(368,-16,o),
(442,60,o),
(442,170,cs),
(442,330,ls),
(442,441,o),
(369,516,o),
(263,516,cs),
(135,516,o),
(46,406,o),
(46,250,cs),
(46,93,o),
(135,-16,o),
(262,-16,cs)
);
},
{
closed = 1;
nodes = (
(186,57,o),
(124,135,o),
(124,250,cs),
(124,365,o),
(186,443,o),
(278,443,cs),
(370,443,o),
(432,365,o),
(432,250,cs),
(432,135,o),
(370,57,o),
(278,57,cs)
);
},
{
closed = 1;
nodes = (
(508,-200,l),
(508,500,l),
(433,500,l),
(433,-200,l)
);
}
);
width = 598;
},
{
anchors = (
{
name = bottom;
pos = (318,0);
},
{
name = top;
pos = (318,500);
}
);
layerId = m005;
shapes = (
{
closed = 1;
nodes = (
(376,-16,o),
(453,74,o),
(453,210,cs),
(453,290,ls),
(453,425,o),
(374,516,o),
(258,516,cs),
(130,516,o),
(42,408,o),
(42,251,cs),
(42,94,o),
(132,-16,o),
(260,-16,cs)
);
},
{
closed = 1;
nodes = (
(230,97,o),
(180,158,o),
(180,250,cs),
(180,342,o),
(230,403,o),
(304,403,cs),
(378,403,o),
(428,342,o),
(428,250,cs),
(428,158,o),
(378,97,o),
(304,97,cs)
);
},
{
closed = 1;
nodes = (
(564,-200,l),
(564,500,l),
(429,500,l),
(429,-200,l)
);
}
);
width = 654;
},
{
anchors = (
{
name = bottom;
pos = (288,0);
},
{
name = top;
pos = (288,500);
}
);
layerId = m007;
shapes = (
{
closed = 1;
nodes = (
(366,-16,o),
(444,62,o),
(444,170,cs),
(444,330,ls),
(444,438,o),
(366,516,o),
(258,516,cs),
(133,516,o),
(48,409,o),
(48,250,cs),
(48,91,o),
(132,-16,o),
(258,-16,cs)
);
},
{
closed = 1;
nodes = (
(172,37,o),
(106,122,o),
(106,250,cs),
(106,378,o),
(172,463,o),
(270,463,cs),
(368,463,o),
(434,378,o),
(434,250,cs),
(434,122,o),
(368,37,o),
(270,37,cs)
);
},
{
closed = 1;
nodes = (
(490,-200,l),
(490,500,l),
(435,500,l),
(435,-200,l)
);
}
);
width = 580;
},
{
anchors = (
{
name = bottom;
pos = (247,0);
},
{
name = top;
pos = (345,500);
}
);
layerId = m004;
shapes = (
{
closed = 1;
nodes = (
(344,-16,o),
(412,53,o),
(435,177,cs),
(460,307,ls),
(484,429,o),
(418,516,o),
(300,516,cs),
(158,516,o),
(47,386,o),
(47,220,cs),
(47,80,o),
(128,-16,o),
(245,-16,cs)
);
},
{
closed = 1;
nodes = (
(181,57,o),
(125,123,o),
(125,225,cs),
(125,348,o),
(204,443,o),
(306,443,cs),
(406,443,o),
(458,353,o),
(432,226,cs),
(411,119,o),
(350,57,o),
(266,57,cs)
);
},
{
closed = 1;
nodes = (
(424,-200,l),
(560,500,l),
(485,500,l),
(349,-200,l)
);
}
);
width = 512;
},
{
anchors = (
{
name = bottom;
pos = (269,0);
},
{
name = top;
pos = (367,500);
}
);
layerId = m008;
shapes = (
{
closed = 1;
nodes = (
(332,-16,o),
(418,72,o),
(444,210,cs),
(459,290,ls),
(484,422,o),
(416,516,o),
(295,516,cs),
(152,516,o),
(43,385,o),
(43,213,cs),
(43,74,o),
(114,-16,o),
(224,-16,cs)
);
},
{
closed = 1;
nodes = (
(216,97,o),
(179,145,o),
(179,225,cs),
(179,328,o),
(240,403,o),
(325,403,cs),
(403,403,o),
(444,339,o),
(426,246,cs),
(408,158,o),
(347,97,o),
(277,97,cs)
);
},
{
closed = 1;
nodes = (
(476,-200,l),
(612,500,l),
(477,500,l),
(341,-200,l)
);
}
);
width = 564;
},
{
anchors = (
{
name = bottom;
pos = (241,0);
},
{
name = top;
pos = (339,500);
}
);
layerId = m006;
shapes = (
{
closed = 1;
nodes = (
(335,-16,o),
(410,56,o),
(436,179,cs),
(456,274,ls),
(486,413,o),
(415,516,o),
(290,516,cs),
(152,516,o),
(49,388,o),
(49,216,cs),
(49,74,o),
(121,-16,o),
(234,-16,cs)
);
},
{
closed = 1;
nodes = (
(158,37,o),
(106,106,o),
(106,220,cs),
(106,362,o),
(184,463,o),
(294,463,cs),
(402,463,o),
(461,365,o),
(434,231,cs),
(411,113,o),
(336,37,o),
(245,37,cs)
);
},
{
closed = 1;
nodes = (
(407,-200,l),
(543,500,l),
(488,500,l),
(352,-200,l)
);
}
);
width = 495;
}
);
metricLeft = o;
metricRight = l;
unicode = 113;
},
{
glyphname = r;
kernLeft = m;
kernRight = r;
layers = (
{
anchors = (
{
name = bottom;
pos = (111,0);
},
{
name = top;
pos = (189,500);
}
);
layerId = m01;
shapes = (
{
closed = 1;
nodes = (
(152,0,l),
(152,228,ls),
(152,359,o),
(193,427,o),
(273,427,cs),
(355,427,l),
(355,500,l),
(263,500,ls),
(189,500,o),
(144,415,o),
(144,275,c),
(152,335,l),
(152,500,l),
(77,500,l),
(77,0,l)
);
}
);
width = 356;
},
{
anchors = (
{
name = bottom;
pos = (142,0);
},
{
name = top;
pos = (221,500);
}
);
layerId = m005;
shapes = (
{
closed = 1;
nodes = (
(209,0,l),
(209,208,ls),
(209,340,o),
(241,387,o),
(330,387,cs),
(412,387,l),
(412,500,l),
(320,500,ls),
(237,500,o),
(191,409,o),
(191,245,c),
(209,314,l),
(209,500,l),
(74,500,l),
(74,0,l)
);
}
);
width = 422;
},
{
anchors = (
{
name = bottom;
pos = (101,0);
},
{
name = top;
pos = (176,500);
}
);
layerId = m007;
shapes = (
{
closed = 1;
nodes = (
(132,0,l),
(132,238,ls),
(132,374,o),
(178,447,o),
(263,447,cs),
(335,447,l),
(335,500,l),
(253,500,ls),
(178,500,o),
(124,410,o),
(124,285,c),
(132,346,l),
(132,500,l),
(77,500,l),
(77,0,l)
);
}
);
width = 332;
},
{
anchors = (
{
name = bottom;
pos = (19,0);
},
{
name = top;
pos = (192,500);
}
);
layerId = m004;
shapes = (
{
closed = 1;
nodes = (
(58,0,l),
(102,228,ls),
(127,359,o),
(182,427,o),
(262,427,cs),
(344,427,l),
(358,500,l),
(262,500,ls),
(183,500,o),
(135,432,o),
(103,275,c),
(123,335,l),
(155,500,l),
(80,500,l),
(-17,0,l)
);
}
);
width = 308;
},
{
anchors = (
{
name = bottom;
pos = (46,0);
},
{
name = top;
pos = (224,500);
}
);
layerId = m008;
shapes = (
{
closed = 1;
nodes = (
(115,0,l),
(155,208,ls),
(180,340,o),
(222,387,o),
(311,387,cs),
(393,387,l),
(415,500,l),
(311,500,ls),
(238,500,o),
(176,405,o),
(145,245,c),
(176,314,l),
(212,500,l),
(77,500,l),
(-20,0,l)
);
}
);
width = 370;
},
{
anchors = (
{
name = bottom;
pos = (6,0);
},
{
name = top;
pos = (179,500);
}
);
layerId = m006;
shapes = (
{
closed = 1;
nodes = (
(38,0,l),
(84,238,ls),
(110,374,o),
(170,447,o),
(256,447,cs),
(328,447,l),
(338,500,l),
(256,500,ls),
(172,500,o),
(112,425,o),
(85,285,c),
(105,346,l),
(135,500,l),
(80,500,l),
(-17,0,l)
);
}
);
width = 284;
}
);
metricLeft = i;
unicode = 114;
},
{
glyphname = s;
kernLeft = s;
kernRight = s;
layers = (
{
anchors = (
{
name = bottom;
pos = (257,0);
},
{
name = top;
pos = (257,500);
}
);
layerId = m01;
shapes = (
{
closed = 1;
nodes = (
(381,-16,o),
(466,49,o),
(466,142,cs),
(466,326,o),
(147,264,o),
(147,377,cs),
(147,425,o),
(203,443,o),
(257,443,cs),
(318,443,o),
(372,420,o),
(372,362,c),
(445,372,l),
(445,469,o),
(362,516,o),
(262,516,cs),
(166,516,o),
(69,473,o),
(69,373,cs),
(69,192,o),
(388,265,o),
(388,139,cs),
(388,84,o),
(327,57,o),
(264,57,cs),
(184,57,o),
(116,100,o),
(116,180,c),
(43,170,l),
(43,52,o),
(139,-16,o),
(261,-16,cs)
);
}
);
width = 512;
},
{
anchors = (
{
name = bottom;
pos = (286,0);
},
{
name = top;
pos = (286,500);
}
);
layerId = m005;
shapes = (
{
closed = 1;
nodes = (
(438,-16,o),
(525,48,o),
(525,153,cs),
(525,354,o),
(206,278,o),
(206,362,cs),
(206,386,o),
(232,403,o),
(282,403,cs),
(337,403,o),
(366,383,o),
(370,347,c),
(504,357,l),
(500,452,o),
(416,516,o),
(280,516,cs),
(153,516,o),
(68,461,o),
(68,357,cs),
(68,156,o),
(387,241,o),
(387,148,cs),
(387,117,o),
(353,97,o),
(295,97,cs),
(222,97,o),
(180,128,o),
(176,176,c),
(43,166,l),
(47,58,o),
(144,-16,o),
(296,-16,cs)
);
}
);
width = 572;
},
{
anchors = (
{
name = bottom;
pos = (245,0);
},
{
name = top;
pos = (245,500);
}
);
layerId = m007;
shapes = (
{
closed = 1;
nodes = (
(365,-16,o),
(443,47,o),
(443,139,cs),
(443,325,o),
(124,249,o),
(124,380,cs),
(124,437,o),
(184,463,o),
(247,463,cs),
(306,463,o),
(359,440,o),
(368,383,c),
(422,391,l),
(410,477,o),
(332,516,o),
(246,516,cs),
(153,516,o),
(66,470,o),
(66,376,cs),
(66,197,o),
(385,277,o),
(385,134,cs),
(385,71,o),
(322,37,o),
(255,37,cs),
(176,37,o),
(112,83,o),
(93,159,c),
(40,151,l),
(54,44,o),
(143,-16,o),
(253,-16,cs)
);
}
);
width = 486;
},
{
anchors = (
{
name = bottom;
pos = (188,0);
},
{
name = top;
pos = (286,500);
}
);
layerId = m004;
shapes = (
{
closed = 1;
nodes = (
(342,-16,o),
(424,50,o),
(424,142,cs),
(424,310,o),
(157,276,o),
(157,378,cs),
(157,422,o),
(207,443,o),
(258,443,cs),
(324,443,o),
(372,407,o),
(377,362,c),
(452,372,l),
(446,451,o),
(364,516,o),
(260,516,cs),
(164,516,o),
(79,460,o),
(79,371,cs),
(79,214,o),
(346,256,o),
(346,140,cs),
(346,90,o),
(297,57,o),
(231,57,cs),
(145,57,o),
(85,112,o),
(80,180,c),
(5,170,l),
(10,67,o),
(102,-16,o),
(229,-16,cs)
);
}
);
width = 486;
},
{
anchors = (
{
name = bottom;
pos = (216,0);
},
{
name = top;
pos = (314,500);
}
);
layerId = m008;
shapes = (
{
closed = 1;
nodes = (
(389,-16,o),
(484,56,o),
(484,157,cs),
(484,331,o),
(211,291,o),
(211,363,cs),
(211,390,o),
(248,403,o),
(285,403,cs),
(336,403,o),
(373,378,o),
(377,347,c),
(513,357,l),
(505,445,o),
(399,516,o),
(275,516,cs),
(165,516,o),
(73,460,o),
(73,358,cs),
(73,183,o),
(346,229,o),
(346,146,cs),
(346,113,o),
(304,97,o),
(260,97,cs),
(195,97,o),
(145,132,o),
(140,176,c),
(5,166,l),
(14,66,o),
(116,-16,o),
(256,-16,cs)
);
}
);
width = 541;
},
{
anchors = (
{
name = bottom;
pos = (181,0);
},
{
name = top;
pos = (279,500);
}
);
layerId = m006;
shapes = (
{
closed = 1;
nodes = (
(327,-16,o),
(406,47,o),
(406,134,cs),
(406,299,o),
(131,262,o),
(131,378,cs),
(131,433,o),
(194,463,o),
(256,463,cs),
(328,463,o),
(377,422,o),
(381,371,c),
(437,381,l),
(433,456,o),
(358,516,o),
(256,516,cs),
(161,516,o),
(73,465,o),
(73,376,cs),
(73,219,o),
(348,261,o),
(348,132,cs),
(348,75,o),
(293,37,o),
(218,37,cs),
(124,37,o),
(61,97,o),
(61,171,c),
(6,161,l),
(6,63,o),
(94,-16,o),
(217,-16,cs)
);
}
);
width = 466;
}
);
unicode = 115;
},
{
glyphname = germandbls;
kernLeft = l;
kernRight = o;
layers = (
{
anchors = (
{
name = bottom;
pos = (294,0);
},
{
name = top;
pos = (294,965);
}
);
layerId = m01;
shapes = (
{
closed = 1;
nodes = (
(165,0,l),
(165,490,ls),
(165,581,o),
(218,643,o),
(296,643,cs),
(366,643,o),
(415,594,o),
(415,525,cs),
(415,453,o),
(363,402,o),
(290,402,cs),
(255,402,l),
(255,329,l),
(305,329,ls),
(389,329,o),
(449,274,o),
(449,198,cs),
(449,123,o),
(391,73,o),
(305,73,cs),
(255,73,l),
(255,0,l),
(315,0,ls),
(441,0,o),
(527,80,o),
(527,195,cs),
(527,301,o),
(455,377,o),
(354,377,c),
(334,354,l),
(426,354,o),
(493,426,o),
(493,526,cs),
(493,636,o),
(410,716,o),
(296,716,cs),
(174,716,o),
(90,624,o),
(90,490,cs),
(90,0,l)
);
}
);
width = 578;
},
{
anchors = (
{
name = bottom;
pos = (335,0);
},
{
name = top;
pos = (335,965);
}
);
layerId = m005;
shapes = (
{
closed = 1;
nodes = (
(225,0,l),
(225,470,ls),
(225,550,o),
(270,603,o),
(336,603,cs),
(393,603,o),
(434,565,o),
(434,513,cs),
(434,459,o),
(389,422,o),
(324,422,cs),
(304,422,l),
(304,306,l),
(364,306,ls),
(425,306,o),
(468,266,o),
(468,209,cs),
(468,154,o),
(429,116,o),
(374,116,cs),
(304,116,l),
(304,0,l),
(384,0,ls),
(515,0,o),
(606,83,o),
(606,201,cs),
(606,308,o),
(531,385,o),
(425,385,c),
(425,353,l),
(511,353,o),
(572,422,o),
(572,518,cs),
(572,635,o),
(479,716,o),
(344,716,cs),
(195,716,o),
(90,615,o),
(90,470,cs),
(90,0,l)
);
}
);
width = 653;
},
{
anchors = (
{
name = bottom;
pos = (283,0);
},
{
name = top;
pos = (283,965);
}
);
layerId = m007;
shapes = (
{
closed = 1;
nodes = (
(145,0,l),
(145,500,ls),
(145,596,o),
(202,663,o),
(285,663,cs),
(361,663,o),
(415,608,o),
(415,530,cs),
(415,450,o),
(358,392,o),
(280,392,cs),
(255,392,l),
(255,339,l),
(295,339,ls),
(385,339,o),
(449,278,o),
(449,194,cs),
(449,111,o),
(386,53,o),
(295,53,cs),
(255,53,l),
(255,0,l),
(305,0,ls),
(424,0,o),
(507,79,o),
(507,193,cs),
(507,301,o),
(434,376,o),
(332,375,c),
(322,362,l),
(410,361,o),
(473,431,o),
(473,531,cs),
(473,640,o),
(396,716,o),
(287,716,cs),
(171,716,o),
(92,628,o),
(92,500,cs),
(90,0,l)
);
}
);
width = 560;
},
{
anchors = (
{
name = bottom;
pos = (216,0);
},
{
name = top;
pos = (404,965);
}
);
layerId = m004;
shapes = (
{
closed = 1;
nodes = (
(68,0,l),
(163,490,ls),
(182,585,o),
(239,643,o),
(313,643,cs),
(378,643,o),
(422,598,o),
(422,531,cs),
(422,454,o),
(362,402,o),
(271,402,cs),
(236,402,l),
(222,329,l),
(272,329,ls),
(342,329,o),
(393,278,o),
(393,206,cs),
(393,124,o),
(327,73,o),
(222,73,cs),
(172,73,l),
(158,0,l),
(218,0,ls),
(373,0,o),
(472,82,o),
(472,209,cs),
(472,307,o),
(413,377,o),
(330,377,c),
(306,354,l),
(423,354,o),
(502,427,o),
(502,536,cs),
(502,642,o),
(427,716,o),
(320,716,cs),
(203,716,o),
(114,629,o),
(88,490,cs),
(-7,0,l)
);
}
);
width = 535;
},
{
anchors = (
{
name = bottom;
pos = (257,0);
},
{
name = top;
pos = (445,965);
}
);
layerId = m008;
shapes = (
{
closed = 1;
nodes = (
(128,0,l),
(219,470,ls),
(238,555,o),
(285,603,o),
(349,603,cs),
(403,603,o),
(439,569,o),
(439,519,cs),
(439,460,o),
(388,422,o),
(309,422,cs),
(289,422,l),
(266,306,l),
(326,306,ls),
(378,306,o),
(414,270,o),
(414,217,cs),
(414,157,o),
(368,116,o),
(300,116,cs),
(230,116,l),
(207,0,l),
(287,0,ls),
(448,0,o),
(552,84,o),
(552,215,cs),
(552,315,o),
(491,385,o),
(403,385,c),
(397,353,l),
(506,353,o),
(580,424,o),
(580,527,cs),
(580,639,o),
(490,716,o),
(361,716,cs),
(219,716,o),
(113,622,o),
(84,470,cs),
(-7,0,l)
);
}
);
width = 610;
},
{
anchors = (
{
name = bottom;
pos = (136,0);
},
{
name = top;
pos = (512,965);
}
);
layerId = m006;
shapes = (
{
closed = 1;
nodes = (
(47,0,l),
(144,500,ls),
(164,601,o),
(226,663,o),
(305,663,cs),
(375,663,o),
(423,613,o),
(423,538,cs),
(423,451,o),
(357,392,o),
(258,392,cs),
(233,392,l),
(223,339,l),
(263,339,ls),
(338,339,o),
(392,283,o),
(392,203,cs),
(392,111,o),
(320,53,o),
(207,53,cs),
(167,53,l),
(157,0,l),
(207,0,ls),
(355,0,o),
(450,81,o),
(450,207,cs),
(450,307,o),
(391,376,o),
(307,375,c),
(296,362,l),
(408,362,o),
(482,434,o),
(482,541,cs),
(482,645,o),
(412,716,o),
(311,716,cs),
(201,716,o),
(116,633,o),
(91,500,cs),
(-8,0,l)
);
}
);
width = 516;
}
);
metricLeft = l;
metricRight = "=o*1.1";
unicode = 223;
},
{
glyphname = uni017F;
layers = (
{
anchors = (
{
name = bottom;
pos = (150,0);
},
{
name = top;
pos = (150,500);
}
);
layerId = m007;
shapes = (
{
closed = 1;
nodes = (
(145,0,l),
(145,500,ls),
(145,596,o),
(202,663,o),
(285,663,c),
(285,716,l),
(171,716,o),
(92,628,o),
(92,500,cs),
(90,0,l)
);
}
);
width = 284;
},
{
anchors = (
{
name = bottom;
pos = (158,0);
},
{
name = top;
pos = (158,500);
}
);
layerId = m01;
shapes = (
{
closed = 1;
nodes = (
(165,0,l),
(165,490,ls),
(165,581,o),
(218,643,o),
(296,643,c),
(296,716,l),
(174,716,o),
(90,624,o),
(90,490,cs),
(90,0,l)
);
}
);
width = 297;
},
{
anchors = (
{
name = bottom;
pos = (184,0);
},
{
name = top;
pos = (184,500);
}
);
layerId = m005;
shapes = (
{
closed = 1;
nodes = (
(225,0,l),
(225,470,ls),
(225,550,o),
(270,603,o),
(336,603,c),
(336,716,l),
(193,716,o),
(90,613,o),
(90,470,cs),
(90,0,l)
);
}
);
width = 341;
},
{
anchors = (
{
name = bottom;
pos = (46,0);
},
{
name = top;
pos = (144,500);
}
);
layerId = m006;
shapes = (
{
closed = 1;
nodes = (
(47,0,l),
(144,500,ls),
(164,601,o),
(226,663,o),
(305,663,c),
(311,716,l),
(201,716,o),
(117,633,o),
(91,500,cs),
(-8,0,l)
);
}
);
width = 202;
},
{
anchors = (
{
name = bottom;
pos = (55,0);
},
{
name = top;
pos = (153,500);
}
);
layerId = m004;
shapes = (
{
closed = 1;
nodes = (
(68,0,l),
(163,490,ls),
(182,585,o),
(239,643,o),
(313,643,c),
(320,716,l),
(203,716,o),
(114,629,o),
(88,490,cs),
(-7,0,l)
);
}
);
width = 216;
},
{
anchors = (
{
name = bottom;
pos = (83,0);
},
{
name = top;
pos = (181,500);
}
);
layerId = m008;
shapes = (
{
closed = 1;
nodes = (
(128,0,l),
(219,470,ls),
(238,555,o),
(285,603,o),
(349,603,c),
(361,716,l),
(219,716,o),
(113,622,o),
(84,470,cs),
(-7,0,l)
);
}
);
width = 262;
}
);
metricLeft = l;
metricRight = "=f*.5";
unicode = 383;
},
